<?xml version="1.0" encoding="utf-8"?>
<!-- Generator: Adobe Illustrator 23.1.1, SVG Export Plug-In . SVG Version: 6.00 Build 0)  -->
<svg version="1.1" id="Layer_1" xmlns="http://www.w3.org/2000/svg" xmlns:xlink="http://www.w3.org/1999/xlink" x="0px" y="0px"
	 viewBox="0 0 228 228" style="enable-background:new 0 0 228 228;" xml:space="preserve">
<style type="text/css">
	.st0{fill:#FCFDFC;}
	.st1{fill:#057F06;}
	.st2{fill:#028003;}
</style>
<g>
	<path class="st0" d="M227.98,119.04c0,35.94,0,71.89,0.02,107.83c0,0.85-0.11,1.14-1.07,1.13c-75.29-0.03-150.57-0.03-225.86,0
		C0.1,228,0,227.71,0,226.86c0.02-37.22,0.02-74.44,0.02-111.67c0.36,0,0.72-0.02,1.08,0.01c9.81,0.69,19.62,1.37,29.43,2.1
		c0.98,0.07,1.38-0.04,1.44-1.18c0.2-4.07,0.51-8.14,0.83-12.2c0.05-0.67-0.06-0.94-0.77-0.96c-1.6-0.06-3.2-0.16-4.79-0.32
		c-0.68-0.07-0.81,0.17-0.84,0.76c-0.07,1.44-0.21,2.87-0.29,4.31c-0.03,0.63-0.21,0.93-0.92,0.86c-1.75-0.16-3.51-0.27-5.26-0.35
		c-0.62-0.03-0.84-0.21-0.78-0.86c0.12-1.19,0.12-2.4,0.24-3.59c0.07-0.64-0.13-0.84-0.76-0.87c-1.52-0.07-3.03-0.18-4.55-0.32
		c-0.63-0.06-0.75,0.25-0.79,0.75c-0.08,1.2-0.18,2.39-0.26,3.59c-0.03,0.41,0.01,0.79-0.63,0.73c-1.55-0.14-3.11-0.22-4.67-0.29
		c-0.61-0.02-0.72-0.29-0.67-0.83c0.11-1.31,0.14-2.64,0.26-3.95c0.06-0.6-0.04-0.85-0.71-0.88c-1.52-0.07-3.03-0.19-4.54-0.36
		c-0.8-0.09-1.11,0.06-1.15,0.96c-0.12,2.67-0.34,5.35-0.57,8.01c-0.03,0.35,0.19,0.83-0.33,1.04c0-37.11,0-74.22,0-111.34
		c75.63,0,151.25,0,226.88-0.02c0.9,0,1.1,0.2,1.1,1.1c-0.03,37.79-0.02,75.58-0.02,113.38c-4.63-0.27-9.25-0.54-13.88-0.83
		c-5.66-0.35-11.32-0.71-16.98-1.09c-0.71-0.05-1.09,0.05-1.11,0.91c-0.06,2.16-0.2,4.31-0.36,6.46c-0.06,0.75,0.2,0.96,0.92,0.98
		c1.88,0.06,3.75,0.2,5.62,0.31c2.31,0.14,4.62,0.31,6.94,0.43c0.7,0.03,0.89,0.22,0.7,0.94c-0.22,0.85-0.64,1.36-1.54,1.37
		c-0.72,0.01-1.44,0.03-2.15-0.02c-3.27-0.19-6.54-0.39-9.81-0.61c-0.61-0.04-0.94,0.04-0.97,0.78c-0.07,2.08-0.2,4.15-0.35,6.22
		c-0.04,0.54,0.13,0.69,0.64,0.71c3.87,0.2,7.74,0.44,11.61,0.63c1.42,0.07,2.53-0.66,3.47-1.62c0.37-0.38,0.35-1.13,1.11-1.23
		c0.43,1.77,1.5,2.85,3.33,3.23c2.06,0.42,4.13,0.54,6.2,0.33c2.99-0.3,4.81-1.94,5.44-4.87c0.49-2.27,0.66-4.58,0.77-6.9
		C227.6,120.1,227.37,119.44,227.98,119.04z M47.46,141.36c0.17,0.33,0.26,0.5,0.35,0.67c3.85,6.81,7.88,13.51,11.96,20.18
		c2.89,4.73,5.73,9.5,9.26,13.81c1.21,1.47,2.69,2.44,4.58,2.83c2.95,0.6,5.94,0.75,8.93,0.89c7.87,0.35,15.75,0.28,23.62,0.25
		c3.01-0.01,3.01-0.03,3.36-2.97c0.04-0.32,0.1-0.63,0.11-0.95c0.37-9.27,0.56-18.54-0.17-27.8c-0.17-2.12-0.21-2.12-2.3-2.36
		c-5.37-0.62-10.77-0.74-16.16-0.84c-10.51-0.19-21.02-0.27-31.51-1.07c-3.11-0.24-6.2-0.59-9.13-1.8
		C49.51,141.83,48.62,141.44,47.46,141.36z M169.55,160.41c0.33-0.52,0.6-0.91,0.84-1.32c2.26-3.99,4.54-7.98,6.77-11.98
		c3.74-6.72,7.56-13.41,10.72-20.43c1.26-2.8,2.09-5.62,0.7-8.64c-0.58-1.27-1.06-2.59-1.68-3.83c-4.32-8.73-9.27-17.11-14.19-25.51
		c-0.43-0.74-0.88-0.97-1.73-0.6c-3.37,1.46-6.58,3.25-9.78,5.05c-5.81,3.25-11.59,6.57-17.07,10.37c-1.05,0.73-1.23,1.41-0.72,2.59
		c1.39,3.23,2.97,6.37,4.63,9.46c5.47,10.14,11.27,20.11,16.41,30.43c1.85,3.71,3.75,7.41,4.38,11.59
		C168.97,158.47,169.02,159.4,169.55,160.41z M124.82,46.82c-0.31,0-0.5,0-0.7,0c-7.36-0.11-14.71,0.19-22.07,0.27
		c-4.88,0.05-9.74,0.38-14.61,0.66c-4.43,0.26-7.74,1.96-10.27,5.74c-5.67,8.47-10.72,17.3-15.74,26.15
		c-0.84,1.49-0.82,1.52,0.61,2.54c3.81,2.72,7.83,5.09,11.87,7.42c4.8,2.78,9.59,5.58,14.66,7.86c0.94,0.42,1.51,0.25,2.12-0.54
		c2.29-2.98,4.31-6.14,6.28-9.34c6.03-9.78,11.76-19.75,18.11-29.34c2.52-3.8,5.13-7.52,8.85-10.29
		C124.28,47.69,124.67,47.45,124.82,46.82z M36.6,96.3c3.34,2.15,6.38,4.13,9.45,6.07c0.65,0.41,0.81,0.71,0.43,1.49
		c-1.85,3.8-3.81,7.55-5.38,11.48c-1.36,3.4-2.63,6.91-1.82,10.6c1.55,7.02,5.69,12.1,12.22,15.17c3.84,1.8,7.97,1.83,12.09,1.92
		c0.82,0.02,1.27-0.23,1.69-0.94c4.04-6.74,8.13-13.45,12.17-20.2c0.43-0.71,0.75-0.99,1.54-0.5c0.77,0.48,1.64,0.82,2.46,1.23
		c1.65,0.81,3.29,1.62,5.11,2.52c-0.13-0.32-0.15-0.4-0.19-0.46c-5.5-9.03-11.01-18.06-16.48-27.11c-0.4-0.65-0.89-0.66-1.5-0.68
		c-9.03-0.19-18.06-0.39-27.09-0.58C39.85,96.28,38.39,96.3,36.6,96.3z M135.67,192.09c0.08-0.01,0.15-0.02,0.23-0.03
		c0.04-0.53,0.1-1.07,0.13-1.6c0.15-3.03,0.34-6.07,0.41-9.1c0.02-1.04,0.37-1.32,1.38-1.39c4.42-0.3,8.85-0.54,13.25-1.17
		c5.82-0.84,10.48-3.33,13.38-8.71c2.53-4.69,3.58-9.57,2.57-14.85c-0.61-3.2-2.21-5.96-3.65-8.81c-0.69-1.36-1.47-1.83-3-1.84
		c-7.56-0.06-15.11-0.28-22.66-0.39c-0.95-0.01-1.26-0.31-1.26-1.21c-0.01-1.08-0.11-2.16-0.18-3.23c-0.11-1.6-0.24-3.2-0.38-5.13
		c-0.41,0.68-0.64,1.05-0.85,1.43c-4.79,8.75-9.56,17.51-14.4,26.23c-0.56,1.01-0.5,1.73,0.04,2.7c3.34,5.95,6.61,11.94,9.9,17.91
		C132.28,185.97,133.98,189.03,135.67,192.09z M119.34,88.91c0.73,0,1.16,0.01,1.58,0c10.07-0.22,20.14-0.46,30.21-0.64
		c0.96-0.02,1.49-0.34,1.97-1.14c4.31-7.18,8.65-14.34,12.98-21.51c1.06-1.75,2.11-3.51,3.16-5.26c-3.33,1.43-6.48,3.03-9.61,4.67
		c-0.82,0.43-1.29,0.47-1.9-0.42c-2.58-3.79-5.05-7.66-7.98-11.21c-2.24-2.71-4.68-5.31-8.19-6.17c-7.14-1.75-13.78-0.57-19.61,4.16
		c-2.82,2.29-4.58,5.38-6.43,8.42c-0.54,0.88-0.53,1.49-0.04,2.36c3.71,6.66,7.36,13.34,11.03,20.02c0.79,1.43,0.77,1.42-0.6,2.33
		C123.82,85.91,121.71,87.32,119.34,88.91z M44.81,164.8c-1.31,0.02-2.39,0.6-3.37,1.39c-5.27,4.21-10.36,8.64-15.32,13.21
		c-0.77,0.71-1.33,1.57-1.65,2.6c-0.71,2.29,0.06,4.25,1.33,6.08c2.28,3.29,5.04,6.2,7.6,9.26c0.53,0.64,0.82,0.28,1.23-0.08
		c6.86-5.92,13.73-11.83,20.59-17.75c0.9-0.78,2.36-1.51,2.51-2.42c0.16-1.04-1.31-1.93-2.11-2.84c-2.27-2.58-4.33-5.34-6.84-7.7
		C47.67,165.5,46.38,164.82,44.81,164.8z M41.58,154.9c-0.02-1.59-0.94-4.03-2.48-6.23c-2.33-3.35-5.78-4.45-9.55-2.85
		c-7.42,3.15-14.61,6.78-21.93,10.15c-0.6,0.28-0.62,0.58-0.38,1.09c0.95,1.98,1.91,3.94,2.79,5.95c0.31,0.7,0.59,0.76,1.25,0.45
		c3.45-1.65,6.92-3.27,10.38-4.89c3.98-1.85,7.95-3.7,11.94-5.52c0.64-0.29,1.42-0.63,1.88,0.27c0.49,0.96-0.27,1.4-0.95,1.74
		c-1.64,0.82-3.3,1.6-4.96,2.38c-5.77,2.72-11.54,5.43-17.31,8.14c-0.44,0.21-0.9,0.28-0.55,0.99c1.03,2.07,2,4.17,2.96,6.27
		c0.24,0.53,0.5,0.57,1.01,0.33c7.29-3.5,14.7-6.78,21.91-10.44C40.34,161.33,41.61,159.07,41.58,154.9z M191.37,152.84
		c-0.97-0.06-1.9,0.16-2.78,0.57c-2.87,1.33-4.65,3.67-5.94,6.47c-1.71,3.71-0.79,8.03,2.93,10.23c6.83,4.05,13.63,8.15,20.43,12.24
		c0.63,0.38,0.94,0.27,1.29-0.36c1.02-1.81,2.05-3.61,3.18-5.35c0.54-0.83,0.33-1.16-0.44-1.61c-6.13-3.6-12.23-7.23-18.34-10.87
		c-1.06-0.63-2.15-1.23-3.1-2.04c-0.45-0.38-0.62-0.82-0.3-1.37c0.32-0.55,0.83-0.61,1.36-0.41c0.45,0.17,0.87,0.4,1.28,0.65
		c6.79,4.03,13.59,8.06,20.36,12.13c0.69,0.42,1.06,0.44,1.46-0.34c0.59-1.13,1.3-2.2,1.94-3.3c0.56-0.96,1.66-2.04,1.51-2.88
		c-0.18-0.97-1.74-1.31-2.73-1.89c-6.09-3.58-12.07-7.34-18.25-10.76C194.04,153.29,192.8,152.78,191.37,152.84z M71.55,205.41
		c-0.12,0.15-0.14,0.2-0.16,0.21c-0.2,0.01-0.4,0.05-0.59,0.02c-1.86-0.3-3.05,0.62-3.9,2.15c-0.68,1.22-1.27,2.48-1.69,3.82
		c-1.53,4.91-0.54,7.31,4.11,9.44c3.12,1.43,6.32,2.68,9.47,4.04c0.62,0.27,0.86,0.12,1.11-0.49c3.77-9.31,7.56-18.62,11.38-27.91
		c0.3-0.73,0.09-0.97-0.54-1.22c-1.93-0.76-3.86-1.52-5.75-2.36c-0.83-0.36-1.17-0.24-1.52,0.65c-1.5,3.82-3.12,7.6-4.64,11.41
		c-0.29,0.72-0.55,0.82-1.2,0.43c-1.04-0.62-0.98-1.46-0.61-2.39c1.39-3.52,2.78-7.05,4.22-10.55c0.29-0.7,0.24-1.02-0.53-1.3
		c-1.83-0.68-3.63-1.46-5.43-2.21c-0.48-0.2-0.84-0.33-1.1,0.35c-1.42,3.64-3.06,7.19-4.32,10.9c-0.5,1.49-0.13,2.83,0.82,4.04
		C70.92,204.77,71.23,205.07,71.55,205.41z M65.32,30.8c1.54-1.4,2.15-2.95,1.28-4.88c-0.86-1.9-1.95-3.67-3.37-5.2
		c-2.32-2.5-4.57-2.95-7.64-1.48c-3.64,1.75-6.9,4.16-10.33,6.26c-0.7,0.43-0.16,0.83,0.06,1.17c5.4,8.43,10.81,16.85,16.2,25.28
		c0.36,0.56,0.64,0.67,1.21,0.29c1.76-1.17,3.52-2.35,5.34-3.42c0.83-0.49,0.86-0.86,0.35-1.64c-2.24-3.4-4.41-6.84-6.6-10.27
		c-0.21-0.32-0.77-0.71-0.15-1.09c0.69-0.42,1.48-0.74,2.17,0.04c0.52,0.6,1.02,1.23,1.46,1.89c1.81,2.77,3.6,5.56,5.37,8.36
		c0.33,0.53,0.58,0.7,1.18,0.3c1.65-1.12,3.33-2.2,5.03-3.25c0.59-0.37,0.72-0.65,0.3-1.28c-1.82-2.72-3.63-5.45-5.34-8.24
		C70.32,31.2,68.38,29.92,65.32,30.8z M115.1,25.81c-0.1-1.15-0.23-2.31-0.28-3.47c-0.03-0.63-0.27-0.82-0.88-0.76
		c-2.19,0.21-4.38,0.41-6.57,0.57c-0.75,0.06-0.9,0.39-0.82,1.09c0.19,1.79,0.32,3.58,0.44,5.38c0.07,0.93-0.21,1.72-1.29,1.8
		c-1.09,0.08-1.43-0.71-1.54-1.61c-0.23-1.9-0.45-3.81-0.62-5.72c-0.4-4.42-0.78-8.84-1.14-13.26c-0.07-0.86,0.15-1.58,1.24-1.68
		c1.09-0.11,1.42,0.49,1.52,1.39c0.24,2.18,0.5,4.37,0.69,6.56c0.07,0.76,0.31,1.03,1.1,0.94c2.18-0.26,4.37-0.46,6.56-0.64
		c0.56-0.05,0.77-0.21,0.7-0.79c-0.32-2.42-0.44-4.86-1.05-7.23c-0.41-1.59-1.16-2.96-2.54-3.94c-2.86-2.04-6.06-2.12-9.31-1.44
		c-4.52,0.95-7.3,4.01-7.1,8.06c0.3,6.1,0.75,12.21,1.82,18.24c0.38,2.14,1.2,4.16,3.23,5.22c4.07,2.14,8.19,1.88,12.11-0.36
		C114.59,32.33,115.42,29.29,115.1,25.81z M150.33,43.3c3.83,0.06,5.93-1.06,7.64-3.76c0.99-1.55,1.69-3.25,2.48-4.91
		c0.31-0.65,0.16-0.87-0.45-1.13c-1.95-0.82-3.89-1.65-5.79-2.56c-0.86-0.41-1.21-0.21-1.55,0.64c-0.7,1.73-1.36,3.5-2.38,5.08
		c-0.38,0.6-0.85,0.94-1.6,0.63c-0.76-0.31-1.02-0.86-0.85-1.62c0.09-0.39,0.19-0.78,0.35-1.14c1.71-3.95,3.42-7.9,5.15-11.84
		c0.77-1.75,1.43-3.56,2.41-5.21c0.37-0.62,0.8-1.08,1.65-0.8c1.04,0.35,1.25,1.04,0.86,1.97c-0.87,2.1-1.75,4.19-2.66,6.28
		c-0.24,0.55-0.29,0.9,0.39,1.18c2.06,0.85,4.1,1.75,6.14,2.68c0.57,0.26,0.84,0.15,1.07-0.42c0.76-1.84,1.57-3.66,2.25-5.54
		c1.26-3.49,0.51-6.45-2.25-8.88c-1.96-1.72-4.26-2.81-6.86-3.17c-3.98-0.55-6.91,0.85-8.68,4.45c-2.51,5.12-4.84,10.32-6.83,15.67
		c-1.14,3.07-1.16,6.06,1.39,8.55C144.65,41.83,147.58,43.14,150.33,43.3z M24.77,121.86c-1.5-0.06-3.25,0.41-5.04,0.58
		c-0.61,0.06-0.68,0.36-0.59,0.89c0.38,2.24,0.74,4.49,1.08,6.74c0.09,0.59,0.35,0.66,0.9,0.57c1.85-0.3,3.71-0.54,5.57-0.79
		c0.88-0.12,1.63,0.04,1.83,1.06c0.2,1.03-0.45,1.41-1.3,1.66c-1.77,0.52-3.6,0.7-5.41,1.01c-4.37,0.74-8.74,1.47-13.11,2.16
		c-1.44,0.23-2.07-0.15-2.23-1.15c-0.21-1.32,0.75-1.51,1.67-1.68c2.12-0.39,4.24-0.78,6.37-1.12c0.58-0.09,0.74-0.3,0.64-0.86
		c-0.4-2.24-0.8-4.48-1.15-6.73c-0.09-0.57-0.3-0.74-0.85-0.64c-2.44,0.43-4.89,0.76-7.24,1.58c-2.25,0.78-3.7,2.3-4.45,4.51
		c-0.96,2.85-0.7,5.71,0.31,8.46c1.46,3.97,4.58,6.23,9.01,5.67c3.37-0.43,6.7-1.06,10.04-1.62c2.99-0.5,6-0.9,8.85-2.03
		c2.02-0.8,3.35-2.25,3.97-4.34c0.84-2.83,0.53-5.61-0.44-8.34C31.86,123.72,29.02,121.75,24.77,121.86z M197.5,191.36
		c0.02-1.12-0.31-2.14-0.91-3.06c-0.99-1.51-2.2-2.84-3.58-4.01c-1.85-1.57-3.95-2.37-6.42-1.95c-2.2,0.37-4.44,0.59-6.61,1.09
		c-2.75,0.63-4.26-0.99-5.7-2.82c-0.53-0.67-0.63-1.47,0.11-2.16c0.8-0.74,1.49-0.31,2.1,0.27c1.01,0.96,2,1.95,2.96,2.97
		c0.41,0.43,0.68,0.54,1.15,0.07c1.49-1.5,3.01-2.98,4.54-4.44c0.4-0.38,0.31-0.63-0.04-0.96c-1.2-1.17-2.38-2.36-3.69-3.41
		c-2.2-1.76-4.58-1.89-7.09-0.82c-2.74,1.17-4.81,3.11-6.31,5.65c-1.92,3.25-1.7,5.63,0.74,8.55c0.69,0.83,1.48,1.57,2.23,2.34
		c2.49,2.58,5.52,3.37,8.98,2.7c1.92-0.37,3.83-0.79,5.76-1.14c1.86-0.34,4.03,0.98,4.67,2.75c0.25,0.69-0.01,1.16-0.5,1.58
		c-0.48,0.42-0.96,0.31-1.39-0.09c-0.73-0.68-1.5-1.32-2.16-2.07c-0.47-0.53-0.74-0.52-1.23-0.03c-1.4,1.43-2.83,2.82-4.28,4.19
		c-0.48,0.45-0.59,0.76-0.06,1.26c1.04,0.99,2.07,1.98,3.22,2.86c1.4,1.07,2.97,1.3,4.54,0.8c4.1-1.31,7.02-3.99,8.62-8.02
		C197.4,192.8,197.53,192.09,197.5,191.36z M166.71,217.48c0.18-0.09,0.39-0.19,0.6-0.31c3.45-2.07,6.89-4.17,10.37-6.21
		c0.8-0.47,0.49-0.9,0.17-1.43c-2.73-4.51-5.46-9.01-8.18-13.52c-2.42-4-4.82-7.99-7.25-11.98c-0.21-0.35-0.31-1.02-1.03-0.59
		c-3.75,2.28-7.5,4.57-11.26,6.83c-0.47,0.29-0.48,0.55-0.22,0.96c0.88,1.42,1.78,2.84,2.62,4.29c0.33,0.56,0.64,0.43,1.06,0.17
		c1.29-0.79,2.61-1.55,3.88-2.37c0.42-0.27,0.66-0.31,0.94,0.16c0.94,1.58,1.89,3.15,2.86,4.7c0.35,0.56,0.27,0.9-0.32,1.23
		c-1.01,0.56-1.98,1.2-2.99,1.76c-0.53,0.3-0.67,0.58-0.32,1.12c0.81,1.28,1.6,2.58,2.36,3.89c0.31,0.54,0.61,0.55,1.11,0.23
		c1.04-0.67,2.12-1.28,3.17-1.94c0.4-0.25,0.65-0.31,0.93,0.2c0.76,1.36,1.56,2.7,2.39,4.01c0.35,0.55,0.11,0.76-0.32,1.01
		c-1.13,0.66-2.24,1.38-3.39,2.02c-0.55,0.31-0.62,0.56-0.27,1.1c0.87,1.34,1.66,2.73,2.49,4.09
		C166.24,217.14,166.32,217.44,166.71,217.48z M179.85,67.51c0.16-0.1,0.3-0.17,0.42-0.27c1.32-1.16,2.63-2.33,3.95-3.49
		c0.45-0.39,0.16-0.68-0.12-0.99c-1.02-1.12-2.02-2.26-3.05-3.38c-0.37-0.4-0.41-0.68,0.04-1.07c1.39-1.2,2.77-2.42,4.1-3.68
		c0.51-0.48,0.76-0.32,1.13,0.13c0.74,0.89,1.57,1.7,2.31,2.59c0.43,0.52,0.79,0.53,1.27,0.08c1.08-1.01,2.15-2.02,3.27-2.98
		c0.47-0.4,0.51-0.69,0.09-1.14c-0.82-0.87-1.59-1.79-2.42-2.66c-0.42-0.43-0.46-0.71,0.03-1.13c1.15-0.99,2.29-1.99,3.37-3.05
		c0.47-0.46,0.7-0.27,1.03,0.11c0.84,0.96,1.72,1.89,2.54,2.87c0.45,0.53,0.77,0.67,1.34,0.11c1.11-1.09,2.27-2.13,3.46-3.13
		c0.54-0.46,0.49-0.73,0.04-1.22c-2.72-2.98-5.42-5.97-8.08-9c-0.53-0.6-0.8-0.5-1.31-0.04c-1.88,1.73-3.79,3.43-5.69,5.14
		c-5.52,4.96-11.05,9.92-16.56,14.89c-0.39,0.35-0.92,0.6-0.28,1.3c2.89,3.14,5.73,6.34,8.59,9.51
		C179.47,67.19,179.66,67.33,179.85,67.51z M85.3,12.49c-0.55-1.58-1.15-3.19-1.66-4.82c-0.23-0.75-0.56-0.78-1.22-0.55
		c-3.8,1.35-7.6,2.66-11.41,3.97c-0.57,0.19-0.74,0.42-0.5,1.03c0.54,1.41,0.99,2.86,1.49,4.29c2.79,8.02,5.58,16.05,8.35,24.08
		c0.22,0.63,0.35,1.05,1.2,0.75c3.94-1.42,7.9-2.78,11.86-4.14c0.56-0.19,0.92-0.36,0.65-1.06c-0.57-1.53-1.11-3.08-1.61-4.64
		c-0.19-0.59-0.47-0.59-0.97-0.41c-1.42,0.52-2.87,0.97-4.3,1.49c-0.5,0.18-0.79,0.2-0.98-0.39c-0.58-1.78-1.19-3.56-1.81-5.33
		c-0.17-0.48-0.1-0.7,0.43-0.86c1.18-0.36,2.34-0.8,3.51-1.2c0.46-0.16,0.73-0.31,0.5-0.92c-0.55-1.45-1.03-2.93-1.52-4.41
		c-0.2-0.61-0.51-0.65-1.07-0.42c-1.07,0.43-2.18,0.76-3.27,1.17c-0.62,0.23-0.94,0.08-1.14-0.56c-0.44-1.41-0.9-2.81-1.42-4.19
		c-0.21-0.57-0.04-0.77,0.46-0.94c1.29-0.42,2.57-0.87,3.84-1.33C84.98,13.01,85.46,13.05,85.3,12.49z M194.61,134.37
		c-0.46-0.14-0.61,0.06-0.74,0.5c-1.25,4.08-2.51,8.16-3.81,12.22c-0.24,0.74,0.05,0.99,0.68,1.17c1.5,0.43,2.99,0.86,4.46,1.36
		c0.63,0.21,0.84,0.03,1.01-0.55c0.41-1.46,0.87-2.9,1.3-4.36c0.14-0.49,0.33-0.7,0.91-0.5c1.74,0.59,3.48,1.16,5.25,1.64
		c0.7,0.19,0.66,0.52,0.49,1.04c-0.35,1.06-0.65,2.14-1.02,3.19c-0.22,0.63-0.22,1,0.57,1.2c1.39,0.36,2.75,0.82,4.11,1.29
		c0.7,0.24,0.99,0.03,1.17-0.65c0.29-1.12,0.67-2.22,1-3.32c0.14-0.46,0.32-0.74,0.92-0.54c1.39,0.48,2.8,0.92,4.23,1.31
		c0.74,0.2,0.8,0.56,0.56,1.21c-0.41,1.12-0.71,2.28-1.1,3.42c-0.22,0.64-0.15,1.02,0.59,1.22c1.5,0.41,3,0.84,4.47,1.36
		c0.71,0.25,0.91-0.03,1.09-0.62c1.15-3.78,2.28-7.56,3.5-11.32c0.31-0.95,0.03-1.18-0.82-1.44c-7.41-2.25-14.8-4.54-22.19-6.82
		C199.04,135.71,196.83,135.04,194.61,134.37z M52.95,212.77c0.34-0.03,0.46-0.32,0.61-0.54c5.9-8.2,11.79-16.4,17.7-24.59
		c0.36-0.5,0.37-0.76-0.16-1.13c-3.49-2.47-6.96-4.96-10.42-7.47c-0.48-0.35-0.77-0.39-1.13,0.14c-0.91,1.32-1.83,2.62-2.81,3.88
		c-0.48,0.63-0.26,0.92,0.3,1.29c1.19,0.8,2.32,1.69,3.51,2.49c0.51,0.35,0.58,0.62,0.2,1.13c-1.09,1.47-2.17,2.96-3.2,4.48
		c-0.36,0.53-0.61,0.42-1.03,0.11c-0.99-0.75-2.01-1.44-3.01-2.18c-0.37-0.27-0.63-0.41-0.96,0.08c-0.9,1.32-1.81,2.63-2.78,3.89
		c-0.41,0.53-0.17,0.73,0.23,1.01c0.98,0.69,1.92,1.43,2.92,2.1c0.5,0.33,0.65,0.57,0.24,1.1c-0.92,1.2-1.82,2.43-2.67,3.69
		c-0.33,0.49-0.57,0.52-1.03,0.18c-1.08-0.81-2.24-1.54-3.29-2.39c-0.49-0.39-0.69-0.33-1.01,0.13c-0.92,1.31-1.84,2.61-2.81,3.88
		c-0.46,0.61-0.29,0.92,0.27,1.32c3.26,2.31,6.49,4.66,9.73,6.99C52.57,212.51,52.76,212.64,52.95,212.77z M130.02,15.4
		c-0.08,0-0.16,0-0.24,0c0-3.47,0.01-6.94-0.02-10.4c0-0.41,0.25-1.02-0.52-1.13c-2.13-0.33-4.26-0.66-6.39-1.01
		c-0.59-0.1-0.66,0.13-0.59,0.65c0.65,5.27,1.32,10.54,1.9,15.82c0.21,1.89,0.71,3.76,0.37,5.7c-0.54,3.11-0.98,6.23-1.51,9.34
		c-0.1,0.6-0.09,0.85,0.6,0.95c2.06,0.28,4.1,0.63,6.15,0.98c0.55,0.09,0.76,0,0.85-0.6c0.26-1.9,0.54-3.79,0.92-5.67
		c0.44-2.22,0.44-4.52,1.51-6.61c1.36-2.66,2.62-5.38,3.91-8.08c1.5-3.13,2.98-6.26,4.53-9.5c-2.21-0.35-4.31-0.61-6.37-1.04
		c-1.05-0.22-1.37,0.22-1.67,1.07C132.33,9.04,131.17,12.22,130.02,15.4z M177.33,22.04c-0.33,0.11-0.5,0.38-0.68,0.63
		c-1.7,2.27-3.4,4.53-5.09,6.8c-4.33,5.78-8.66,11.56-13,17.33c-0.33,0.43-0.48,0.74,0.07,1.14c3.18,2.34,6.35,4.71,9.5,7.09
		c0.5,0.38,0.76,0.32,1.11-0.19c0.78-1.11,1.63-2.17,2.44-3.25c0.91-1.23,0.91-1.23-0.38-2.18c-0.58-0.43-1.11-0.94-1.73-1.28
		c-1-0.55-0.81-1.07-0.23-1.84c4.66-6.18,9.28-12.39,13.94-18.57c0.45-0.6,0.47-0.91-0.18-1.37c-1.73-1.22-3.39-2.53-5.08-3.8
		C177.81,22.39,177.59,22.23,177.33,22.04z"/>
	<path class="st1" d="M227.98,119.04c-0.61,0.41-0.38,1.06-0.41,1.59c-0.11,2.32-0.28,4.63-0.77,6.9c-0.63,2.93-2.45,4.56-5.44,4.87
		c-2.07,0.21-4.14,0.09-6.2-0.33c-1.83-0.37-2.9-1.46-3.33-3.23c-0.76,0.1-0.74,0.85-1.11,1.23c-0.94,0.96-2.05,1.69-3.47,1.62
		c-3.87-0.19-7.74-0.43-11.61-0.63c-0.51-0.03-0.68-0.17-0.64-0.71c0.15-2.07,0.28-4.15,0.35-6.22c0.03-0.74,0.36-0.82,0.97-0.78
		c3.27,0.22,6.54,0.42,9.81,0.61c0.72,0.04,1.44,0.03,2.15,0.02c0.9-0.02,1.32-0.52,1.54-1.37c0.19-0.72-0.01-0.91-0.7-0.94
		c-2.31-0.12-4.62-0.29-6.94-0.43c-1.87-0.11-3.75-0.25-5.62-0.31c-0.72-0.02-0.98-0.23-0.92-0.98c0.16-2.15,0.3-4.31,0.36-6.46
		c0.02-0.86,0.4-0.96,1.11-0.91c5.66,0.38,11.32,0.74,16.98,1.09c4.62,0.29,9.25,0.55,13.88,0.83
		C227.98,116,227.98,117.52,227.98,119.04z M216.92,122.15c-0.24-0.01-0.48-0.02-0.72-0.04c-1.27-0.08-1.66,0.49-1.13,1.67
		c0.23,0.52,0.71,0.62,1.17,0.72c1.33,0.3,2.69,0.3,4.05,0.27c0.9-0.02,1.33-0.55,1.55-1.38c0.18-0.7,0.07-1.01-0.74-1.02
		C219.71,122.36,218.32,122.23,216.92,122.15z"/>
	<path class="st1" d="M0.02,111.36c0.52-0.21,0.3-0.7,0.33-1.04c0.22-2.67,0.44-5.34,0.57-8.01c0.04-0.9,0.34-1.05,1.15-0.96
		c1.51,0.18,3.03,0.29,4.54,0.36c0.67,0.03,0.77,0.28,0.71,0.88c-0.13,1.31-0.15,2.63-0.26,3.95c-0.05,0.54,0.07,0.8,0.67,0.83
		c1.56,0.06,3.12,0.15,4.67,0.29c0.65,0.06,0.6-0.32,0.63-0.73c0.08-1.2,0.18-2.39,0.26-3.59c0.03-0.5,0.16-0.81,0.79-0.75
		c1.51,0.15,3.03,0.25,4.55,0.32c0.63,0.03,0.83,0.23,0.76,0.87c-0.12,1.19-0.12,2.4-0.24,3.59c-0.06,0.65,0.16,0.83,0.78,0.86
		c1.76,0.08,3.51,0.19,5.26,0.35c0.72,0.07,0.89-0.23,0.92-0.86c0.07-1.44,0.22-2.87,0.29-4.31c0.03-0.59,0.17-0.83,0.84-0.76
		c1.59,0.17,3.19,0.26,4.79,0.32c0.71,0.03,0.82,0.29,0.77,0.96c-0.32,4.06-0.63,8.13-0.83,12.2c-0.05,1.14-0.45,1.25-1.44,1.18
		c-9.81-0.73-19.62-1.41-29.43-2.1c-0.36-0.03-0.72-0.01-1.08-0.01C0.02,113.92,0.02,112.64,0.02,111.36z"/>
	<path class="st2" d="M47.46,141.36c1.16,0.08,2.05,0.47,2.91,0.83c2.93,1.21,6.02,1.56,9.13,1.8c10.49,0.8,21,0.88,31.51,1.07
		c5.39,0.1,10.79,0.22,16.16,0.84c2.09,0.24,2.14,0.24,2.3,2.36c0.73,9.26,0.54,18.53,0.17,27.8c-0.01,0.32-0.07,0.63-0.11,0.95
		c-0.35,2.95-0.35,2.96-3.36,2.97c-7.88,0.03-15.75,0.1-23.62-0.25c-2.99-0.13-5.98-0.29-8.93-0.89c-1.89-0.38-3.37-1.35-4.58-2.83
		c-3.53-4.3-6.37-9.08-9.26-13.81c-4.08-6.67-8.11-13.37-11.96-20.18C47.72,141.86,47.63,141.68,47.46,141.36z"/>
	<path class="st2" d="M169.55,160.41c-0.53-1.01-0.58-1.94-0.72-2.84c-0.63-4.18-2.53-7.88-4.38-11.59
		c-5.14-10.32-10.94-20.29-16.41-30.43c-1.67-3.09-3.24-6.23-4.63-9.46c-0.51-1.18-0.33-1.86,0.72-2.59
		c5.48-3.81,11.26-7.12,17.07-10.37c3.2-1.79,6.4-3.58,9.78-5.05c0.85-0.37,1.3-0.14,1.73,0.6c4.92,8.4,9.86,16.78,14.19,25.51
		c0.62,1.25,1.1,2.57,1.68,3.83c1.39,3.02,0.56,5.84-0.7,8.64c-3.17,7.03-6.98,13.71-10.72,20.43c-2.23,4.01-4.51,7.99-6.77,11.98
		C170.15,159.5,169.88,159.89,169.55,160.41z"/>
	<path class="st2" d="M124.82,46.82c-0.15,0.63-0.54,0.87-0.87,1.12c-3.72,2.77-6.33,6.49-8.85,10.29
		c-6.35,9.59-12.08,19.56-18.11,29.34c-1.97,3.2-3.99,6.36-6.28,9.34c-0.61,0.79-1.18,0.97-2.12,0.54
		c-5.07-2.27-9.86-5.08-14.66-7.86c-4.04-2.34-8.07-4.71-11.87-7.42c-1.43-1.02-1.45-1.05-0.61-2.54
		c5.02-8.86,10.07-17.68,15.74-26.15c2.53-3.77,5.83-5.48,10.27-5.74c4.87-0.28,9.74-0.61,14.61-0.66
		c7.36-0.08,14.71-0.38,22.07-0.27C124.32,46.82,124.51,46.82,124.82,46.82z"/>
	<path class="st2" d="M36.6,96.3c1.79,0,3.25-0.03,4.71,0c9.03,0.19,18.06,0.39,27.09,0.58c0.61,0.01,1.1,0.02,1.5,0.68
		c5.47,9.05,10.98,18.08,16.48,27.11c0.04,0.07,0.06,0.15,0.19,0.46c-1.82-0.9-3.46-1.71-5.11-2.52c-0.82-0.4-1.68-0.75-2.46-1.23
		c-0.79-0.49-1.11-0.22-1.54,0.5c-4.04,6.74-8.13,13.45-12.17,20.2c-0.42,0.71-0.87,0.96-1.69,0.94c-4.12-0.1-8.25-0.12-12.09-1.92
		c-6.53-3.07-10.67-8.15-12.22-15.17c-0.81-3.69,0.46-7.2,1.82-10.6c1.57-3.93,3.53-7.68,5.38-11.48c0.38-0.78,0.22-1.08-0.43-1.49
		C42.98,100.43,39.93,98.45,36.6,96.3z"/>
	<path class="st2" d="M135.67,192.09c-1.7-3.06-3.4-6.12-5.09-9.19c-3.3-5.97-6.57-11.96-9.9-17.91c-0.54-0.97-0.6-1.69-0.04-2.7
		c4.84-8.72,9.6-17.48,14.4-26.23c0.21-0.38,0.44-0.75,0.85-1.43c0.14,1.93,0.27,3.53,0.38,5.13c0.08,1.08,0.18,2.15,0.18,3.23
		c0.01,0.9,0.32,1.2,1.26,1.21c7.56,0.11,15.11,0.33,22.66,0.39c1.53,0.01,2.31,0.48,3,1.84c1.44,2.85,3.04,5.61,3.65,8.81
		c1.01,5.28-0.04,10.15-2.57,14.85c-2.9,5.38-7.55,7.87-13.38,8.71c-4.4,0.63-8.83,0.88-13.25,1.17c-1.01,0.07-1.35,0.35-1.38,1.39
		c-0.07,3.04-0.26,6.07-0.41,9.1c-0.03,0.53-0.08,1.07-0.13,1.6C135.83,192.07,135.75,192.08,135.67,192.09z"/>
	<path class="st2" d="M119.34,88.91c2.37-1.58,4.48-3,6.59-4.4c1.37-0.91,1.38-0.9,0.6-2.33c-3.67-6.68-7.33-13.36-11.03-20.02
		c-0.48-0.87-0.49-1.48,0.04-2.36c1.85-3.04,3.61-6.13,6.43-8.42c5.82-4.73,12.46-5.91,19.61-4.16c3.51,0.86,5.95,3.46,8.19,6.17
		c2.92,3.55,5.39,7.42,7.98,11.21c0.61,0.9,1.08,0.85,1.9,0.42c3.13-1.65,6.28-3.24,9.61-4.67c-1.05,1.75-2.1,3.51-3.16,5.26
		c-4.33,7.17-8.68,14.33-12.98,21.51c-0.48,0.8-1.01,1.13-1.97,1.14c-10.07,0.18-20.14,0.42-30.21,0.64
		C120.5,88.91,120.07,88.91,119.34,88.91z"/>
	<path class="st1" d="M44.81,164.81c1.57,0.02,2.86,0.7,3.96,1.74c2.51,2.36,4.57,5.12,6.84,7.7c0.8,0.91,2.27,1.8,2.11,2.84
		c-0.14,0.92-1.6,1.64-2.51,2.42c-6.86,5.92-13.73,11.83-20.59,17.75c-0.42,0.36-0.7,0.72-1.23,0.08c-2.56-3.07-5.32-5.97-7.6-9.26
		c-1.27-1.83-2.04-3.79-1.33-6.08c0.32-1.03,0.88-1.88,1.65-2.6c4.96-4.57,10.05-9,15.32-13.21
		C42.42,165.41,43.51,164.82,44.81,164.81z M31.63,186.21c0,0.66,0.37,1.2,0.83,1.52c0.52,0.37,0.81-0.31,1.12-0.58
		c4.68-3.99,9.33-8.01,13.99-12.02c0.94-0.81,0.88-1.25-0.25-1.81c-0.62-0.31-1.15-0.1-1.68,0.25c-1.37,0.91-2.57,2.03-3.81,3.09
		c-3.12,2.67-6.23,5.37-9.34,8.06C32.05,185.12,31.58,185.52,31.63,186.21z"/>
	<path class="st1" d="M41.58,154.9c0.02,4.17-1.25,6.43-3.99,7.82c-7.22,3.67-14.62,6.94-21.91,10.44c-0.51,0.24-0.76,0.2-1.01-0.33
		c-0.96-2.1-1.94-4.2-2.96-6.27c-0.35-0.71,0.1-0.78,0.55-0.99c5.77-2.71,11.54-5.42,17.31-8.14c1.66-0.78,3.32-1.56,4.96-2.38
		c0.68-0.34,1.44-0.77,0.95-1.74c-0.46-0.9-1.24-0.56-1.88-0.27c-3.99,1.82-7.97,3.67-11.94,5.52c-3.47,1.61-6.93,3.23-10.38,4.89
		c-0.65,0.31-0.94,0.25-1.25-0.45c-0.88-2.01-1.85-3.97-2.79-5.95c-0.25-0.51-0.23-0.81,0.38-1.09c7.32-3.37,14.51-7,21.93-10.15
		c3.77-1.6,7.22-0.5,9.55,2.85C40.64,150.87,41.57,153.31,41.58,154.9z"/>
	<path class="st1" d="M191.37,152.84c1.42-0.06,2.67,0.45,3.87,1.12c6.18,3.42,12.17,7.18,18.25,10.76
		c0.98,0.58,2.55,0.93,2.73,1.89c0.15,0.84-0.94,1.92-1.51,2.88c-0.64,1.1-1.36,2.17-1.94,3.3c-0.4,0.78-0.77,0.75-1.46,0.34
		c-6.78-4.06-13.57-8.09-20.36-12.13c-0.41-0.24-0.83-0.48-1.28-0.65c-0.53-0.2-1.03-0.14-1.36,0.41c-0.32,0.55-0.15,0.99,0.3,1.37
		c0.95,0.81,2.04,1.4,3.1,2.04c6.11,3.63,12.21,7.27,18.34,10.87c0.77,0.45,0.97,0.78,0.44,1.61c-1.13,1.74-2.16,3.55-3.18,5.35
		c-0.35,0.63-0.67,0.74-1.29,0.36c-6.8-4.1-13.6-8.19-20.43-12.24c-3.72-2.21-4.64-6.53-2.93-10.23c1.29-2.79,3.07-5.13,5.94-6.47
		C189.47,153,190.4,152.78,191.37,152.84z"/>
	<path class="st1" d="M71.55,205.41c-0.31-0.34-0.62-0.64-0.89-0.98c-0.95-1.2-1.32-2.55-0.82-4.04c1.25-3.71,2.9-7.26,4.32-10.9
		c0.26-0.68,0.63-0.55,1.1-0.35c1.81,0.75,3.6,1.53,5.43,2.21c0.77,0.29,0.82,0.6,0.53,1.3c-1.44,3.51-2.83,7.03-4.22,10.55
		c-0.36,0.92-0.43,1.77,0.61,2.39c0.65,0.39,0.91,0.29,1.2-0.43c1.52-3.81,3.14-7.59,4.64-11.41c0.35-0.89,0.69-1.01,1.52-0.65
		c1.9,0.83,3.82,1.6,5.75,2.36c0.64,0.25,0.84,0.49,0.54,1.22c-3.82,9.29-7.61,18.6-11.38,27.91c-0.25,0.6-0.49,0.76-1.11,0.49
		c-3.15-1.36-6.35-2.61-9.47-4.04c-4.65-2.13-5.64-4.53-4.11-9.44c0.42-1.34,1.01-2.6,1.69-3.82c0.85-1.53,2.04-2.44,3.9-2.15
		c0.19,0.03,0.4,0,0.59-0.02C71.41,205.62,71.43,205.56,71.55,205.41z M72.15,215.13c0.04,0.3,0.03,0.47,0.08,0.62
		c0.23,0.66,0.73,1.09,1.37,1.22c0.68,0.13,0.62-0.59,0.78-0.96c0.62-1.38,1.19-2.79,1.71-4.21c0.14-0.39,0.83-0.91,0.07-1.29
		c-0.63-0.31-1.43-0.63-1.98,0.09C73.13,211.96,72.62,213.61,72.15,215.13z"/>
	<path class="st1" d="M65.32,30.8c3.06-0.88,5,0.4,6.51,2.86c1.71,2.79,3.52,5.51,5.34,8.24c0.42,0.63,0.3,0.91-0.3,1.28
		c-1.7,1.05-3.38,2.12-5.03,3.25c-0.6,0.41-0.85,0.23-1.18-0.3c-1.77-2.8-3.56-5.58-5.37-8.36c-0.43-0.66-0.94-1.29-1.46-1.89
		c-0.68-0.79-1.47-0.47-2.17-0.04c-0.61,0.38-0.05,0.76,0.15,1.09c2.19,3.43,4.36,6.87,6.6,10.27c0.51,0.77,0.49,1.14-0.35,1.64
		c-1.82,1.08-3.58,2.25-5.34,3.42c-0.57,0.38-0.86,0.27-1.21-0.29c-5.39-8.43-10.81-16.85-16.2-25.28
		c-0.22-0.34-0.76-0.74-0.06-1.17c3.43-2.11,6.69-4.52,10.33-6.26c3.07-1.48,5.32-1.02,7.64,1.48c1.42,1.53,2.51,3.29,3.37,5.2
		C67.47,27.85,66.86,29.39,65.32,30.8z M60.04,30.12c-0.47-1.51-1.41-2.79-2.34-4.08c-0.62-0.87-1.43-0.88-2.33-0.46
		c-0.48,0.23-0.63,0.44-0.27,0.97c0.98,1.44,1.88,2.95,2.85,4.4c0.21,0.31,0.28,1,0.86,0.73C59.43,31.4,59.94,30.92,60.04,30.12z"/>
	<path class="st1" d="M115.1,25.81c0.32,3.48-0.51,6.52-3.72,8.35c-3.93,2.24-8.05,2.5-12.11,0.36c-2.03-1.07-2.85-3.09-3.23-5.22
		c-1.06-6.03-1.52-12.13-1.82-18.24c-0.2-4.05,2.58-7.12,7.1-8.06c3.24-0.68,6.44-0.6,9.31,1.44c1.38,0.98,2.12,2.35,2.54,3.94
		c0.62,2.37,0.74,4.81,1.05,7.23c0.08,0.58-0.13,0.74-0.7,0.79c-2.19,0.18-4.38,0.38-6.56,0.64c-0.8,0.09-1.03-0.18-1.1-0.94
		c-0.19-2.19-0.45-4.37-0.69-6.56c-0.1-0.9-0.43-1.5-1.52-1.39c-1.1,0.11-1.31,0.82-1.24,1.68c0.36,4.42,0.74,8.84,1.14,13.26
		c0.17,1.91,0.4,3.81,0.62,5.72c0.11,0.9,0.44,1.69,1.54,1.61c1.08-0.08,1.35-0.87,1.29-1.8c-0.13-1.79-0.25-3.59-0.44-5.38
		c-0.07-0.7,0.07-1.03,0.82-1.09c2.19-0.16,4.38-0.36,6.57-0.57c0.61-0.06,0.85,0.12,0.88,0.76C114.87,23.5,115,24.65,115.1,25.81z"
		/>
	<path class="st1" d="M150.33,43.3c-2.76-0.16-5.69-1.48-8.12-3.85c-2.55-2.49-2.53-5.47-1.39-8.55c1.99-5.35,4.31-10.55,6.83-15.67
		c1.77-3.6,4.69-5.01,8.68-4.45c2.6,0.36,4.9,1.45,6.86,3.17c2.76,2.43,3.51,5.39,2.25,8.88c-0.68,1.88-1.48,3.7-2.25,5.54
		c-0.24,0.57-0.5,0.68-1.07,0.42c-2.03-0.92-4.07-1.83-6.14-2.68c-0.68-0.28-0.63-0.63-0.39-1.18c0.91-2.08,1.79-4.18,2.66-6.28
		c0.38-0.93,0.18-1.62-0.86-1.97c-0.85-0.29-1.28,0.18-1.65,0.8c-0.99,1.65-1.64,3.45-2.41,5.21c-1.72,3.95-3.44,7.89-5.15,11.84
		c-0.16,0.36-0.26,0.75-0.35,1.14c-0.17,0.77,0.09,1.32,0.85,1.62c0.75,0.3,1.22-0.04,1.6-0.63c1.02-1.59,1.68-3.35,2.38-5.08
		c0.34-0.85,0.69-1.05,1.55-0.64c1.9,0.91,3.85,1.75,5.79,2.56c0.61,0.26,0.76,0.48,0.45,1.13c-0.79,1.65-1.49,3.35-2.48,4.91
		C156.26,42.24,154.16,43.37,150.33,43.3z"/>
	<path class="st1" d="M24.77,121.86c4.24-0.11,7.09,1.85,8.43,5.59c0.98,2.74,1.28,5.51,0.44,8.34c-0.62,2.09-1.95,3.54-3.97,4.34
		c-2.84,1.13-5.86,1.52-8.85,2.03c-3.35,0.56-6.68,1.19-10.04,1.62c-4.43,0.57-7.55-1.7-9.01-5.67c-1.01-2.74-1.27-5.61-0.31-8.46
		c0.75-2.21,2.2-3.73,4.45-4.51c2.36-0.81,4.81-1.15,7.24-1.58c0.56-0.1,0.76,0.06,0.85,0.64c0.35,2.25,0.75,4.49,1.15,6.73
		c0.1,0.55-0.06,0.77-0.64,0.86c-2.13,0.34-4.25,0.72-6.37,1.12c-0.93,0.17-1.88,0.37-1.67,1.68c0.16,1,0.79,1.38,2.23,1.15
		c4.38-0.69,8.75-1.42,13.11-2.16c1.81-0.31,3.64-0.49,5.41-1.01c0.85-0.25,1.5-0.63,1.3-1.66c-0.2-1.02-0.95-1.18-1.83-1.06
		c-1.86,0.25-3.72,0.49-5.57,0.79c-0.55,0.09-0.81,0.02-0.9-0.57c-0.34-2.25-0.7-4.5-1.08-6.74c-0.09-0.53-0.02-0.83,0.59-0.89
		C21.52,122.27,23.28,121.8,24.77,121.86z"/>
	<path class="st1" d="M197.5,191.36c0.03,0.73-0.1,1.45-0.37,2.11c-1.6,4.03-4.51,6.71-8.62,8.02c-1.57,0.5-3.14,0.27-4.54-0.8
		c-1.15-0.88-2.18-1.87-3.22-2.86c-0.52-0.49-0.41-0.81,0.06-1.26c1.45-1.37,2.89-2.76,4.28-4.19c0.49-0.5,0.76-0.5,1.23,0.03
		c0.66,0.74,1.43,1.39,2.16,2.07c0.43,0.4,0.91,0.51,1.39,0.09c0.48-0.42,0.75-0.9,0.5-1.58c-0.65-1.76-2.81-3.08-4.67-2.75
		c-1.93,0.35-3.84,0.76-5.76,1.14c-3.46,0.67-6.49-0.12-8.98-2.7c-0.75-0.77-1.54-1.52-2.23-2.34c-2.43-2.92-2.66-5.3-0.74-8.55
		c1.5-2.53,3.57-4.48,6.31-5.65c2.51-1.07,4.89-0.94,7.09,0.82c1.32,1.05,2.49,2.24,3.69,3.41c0.35,0.34,0.44,0.58,0.04,0.96
		c-1.53,1.46-3.05,2.93-4.54,4.44c-0.47,0.47-0.75,0.36-1.15-0.07c-0.96-1.02-1.94-2.01-2.96-2.97c-0.61-0.58-1.3-1-2.1-0.27
		c-0.74,0.68-0.64,1.48-0.11,2.16c1.43,1.83,2.95,3.45,5.7,2.82c2.17-0.5,4.41-0.72,6.61-1.09c2.47-0.42,4.57,0.38,6.42,1.95
		c1.38,1.16,2.59,2.49,3.58,4.01C197.19,189.22,197.52,190.24,197.5,191.36z"/>
	<path class="st1" d="M166.71,217.48c-0.39-0.04-0.47-0.34-0.61-0.57c-0.83-1.36-1.63-2.75-2.49-4.09c-0.35-0.54-0.28-0.79,0.27-1.1
		c1.15-0.64,2.25-1.36,3.39-2.02c0.44-0.26,0.67-0.47,0.32-1.01c-0.84-1.31-1.63-2.65-2.39-4.01c-0.28-0.5-0.54-0.44-0.93-0.2
		c-1.05,0.65-2.13,1.26-3.17,1.94c-0.5,0.32-0.8,0.31-1.11-0.23c-0.76-1.31-1.54-2.61-2.36-3.89c-0.35-0.55-0.21-0.83,0.32-1.12
		c1.01-0.56,1.97-1.21,2.99-1.76c0.6-0.33,0.67-0.67,0.32-1.23c-0.97-1.56-1.93-3.13-2.86-4.7c-0.28-0.47-0.52-0.43-0.94-0.16
		c-1.28,0.82-2.59,1.57-3.88,2.37c-0.42,0.26-0.73,0.39-1.06-0.17c-0.84-1.45-1.74-2.87-2.62-4.29c-0.25-0.41-0.25-0.68,0.22-0.96
		c3.76-2.26,7.51-4.55,11.26-6.83c0.72-0.44,0.82,0.24,1.03,0.59c2.43,3.99,4.84,7.99,7.25,11.98c2.73,4.51,5.45,9.02,8.18,13.52
		c0.32,0.53,0.63,0.96-0.17,1.43c-3.47,2.04-6.91,4.14-10.37,6.21C167.1,217.28,166.88,217.38,166.71,217.48z"/>
	<path class="st1" d="M179.85,67.51c-0.19-0.18-0.38-0.33-0.54-0.5c-2.86-3.17-5.7-6.37-8.59-9.51c-0.64-0.7-0.11-0.95,0.28-1.3
		c5.52-4.97,11.04-9.93,16.56-14.89c1.9-1.71,3.81-3.4,5.69-5.14c0.5-0.47,0.78-0.56,1.31,0.04c2.66,3.03,5.36,6.02,8.08,9
		c0.45,0.49,0.5,0.77-0.04,1.22c-1.19,1-2.35,2.04-3.46,3.13c-0.57,0.56-0.89,0.42-1.34-0.11c-0.82-0.98-1.7-1.9-2.54-2.87
		c-0.33-0.38-0.56-0.57-1.03-0.11c-1.08,1.06-2.22,2.07-3.37,3.05c-0.49,0.42-0.45,0.7-0.03,1.13c0.83,0.86,1.6,1.79,2.42,2.66
		c0.43,0.45,0.38,0.74-0.09,1.14c-1.12,0.96-2.2,1.97-3.27,2.98c-0.47,0.44-0.83,0.44-1.27-0.08c-0.74-0.89-1.56-1.71-2.31-2.59
		c-0.37-0.44-0.62-0.61-1.13-0.13c-1.33,1.26-2.71,2.48-4.1,3.68c-0.45,0.39-0.41,0.67-0.04,1.07c1.03,1.11,2.03,2.26,3.05,3.38
		c0.28,0.31,0.56,0.59,0.12,0.99c-1.32,1.16-2.63,2.33-3.95,3.49C180.15,67.34,180,67.41,179.85,67.51z"/>
	<path class="st1" d="M85.3,12.49c0.16,0.57-0.31,0.52-0.56,0.61c-1.27,0.47-2.56,0.91-3.84,1.33c-0.51,0.17-0.68,0.37-0.46,0.94
		c0.52,1.38,0.98,2.78,1.42,4.19c0.2,0.63,0.52,0.79,1.14,0.56c1.08-0.41,2.2-0.73,3.27-1.17c0.56-0.23,0.87-0.19,1.07,0.42
		c0.48,1.48,0.96,2.96,1.52,4.41c0.23,0.61-0.04,0.77-0.5,0.92c-1.17,0.4-2.33,0.84-3.51,1.2c-0.53,0.16-0.6,0.37-0.43,0.86
		c0.62,1.77,1.23,3.54,1.81,5.33c0.19,0.59,0.49,0.57,0.98,0.39c1.42-0.52,2.87-0.97,4.3-1.49c0.5-0.18,0.78-0.18,0.97,0.41
		c0.5,1.56,1.04,3.1,1.61,4.64c0.26,0.7-0.09,0.87-0.65,1.06c-3.96,1.36-7.92,2.73-11.86,4.14c-0.85,0.3-0.98-0.12-1.2-0.75
		c-2.77-8.03-5.57-16.05-8.35-24.08c-0.5-1.43-0.95-2.88-1.49-4.29c-0.23-0.61-0.07-0.84,0.5-1.03c3.81-1.3,7.62-2.62,11.41-3.97
		c0.66-0.23,0.99-0.21,1.22,0.55C84.14,9.3,84.75,10.91,85.3,12.49z"/>
	<path class="st1" d="M194.61,134.37c2.21,0.67,4.43,1.34,6.64,2.02c7.4,2.28,14.79,4.57,22.19,6.82c0.85,0.26,1.13,0.49,0.82,1.44
		c-1.22,3.75-2.35,7.54-3.5,11.32c-0.18,0.59-0.37,0.87-1.09,0.62c-1.47-0.52-2.96-0.95-4.47-1.36c-0.74-0.2-0.81-0.58-0.59-1.22
		c0.39-1.13,0.69-2.29,1.1-3.42c0.24-0.65,0.18-1.01-0.56-1.21c-1.42-0.39-2.83-0.83-4.23-1.31c-0.6-0.21-0.78,0.07-0.92,0.54
		c-0.34,1.11-0.71,2.21-1,3.32c-0.18,0.68-0.47,0.9-1.17,0.65c-1.36-0.47-2.72-0.93-4.11-1.29c-0.79-0.2-0.79-0.57-0.57-1.2
		c0.37-1.05,0.67-2.13,1.02-3.19c0.17-0.52,0.21-0.84-0.49-1.04c-1.77-0.48-3.51-1.05-5.25-1.64c-0.58-0.2-0.77,0.01-0.91,0.5
		c-0.43,1.45-0.89,2.9-1.3,4.36c-0.16,0.58-0.38,0.76-1.01,0.55c-1.47-0.5-2.97-0.93-4.46-1.36c-0.63-0.18-0.92-0.42-0.68-1.17
		c1.3-4.06,2.56-8.14,3.81-12.22C194.01,134.43,194.15,134.22,194.61,134.37z"/>
	<path class="st1" d="M52.95,212.77c-0.19-0.13-0.39-0.26-0.58-0.4c-3.24-2.33-6.47-4.68-9.73-6.99c-0.56-0.4-0.74-0.72-0.27-1.32
		c0.97-1.27,1.89-2.57,2.81-3.88c0.32-0.46,0.53-0.52,1.01-0.13c1.05,0.85,2.21,1.58,3.29,2.39c0.46,0.34,0.7,0.31,1.03-0.18
		c0.85-1.25,1.74-2.49,2.67-3.69c0.41-0.53,0.26-0.77-0.24-1.1c-1-0.66-1.94-1.41-2.92-2.1c-0.4-0.28-0.64-0.48-0.23-1.01
		c0.97-1.26,1.89-2.57,2.78-3.89c0.33-0.49,0.59-0.35,0.96-0.08c1,0.74,2.02,1.43,3.01,2.18c0.42,0.32,0.67,0.43,1.03-0.11
		c1.03-1.52,2.11-3.01,3.2-4.48c0.38-0.51,0.31-0.79-0.2-1.13c-1.19-0.81-2.32-1.7-3.51-2.49c-0.57-0.38-0.78-0.67-0.3-1.29
		c0.97-1.27,1.9-2.57,2.81-3.88c0.37-0.53,0.65-0.49,1.13-0.14c3.46,2.51,6.93,5,10.42,7.47c0.53,0.37,0.52,0.63,0.16,1.13
		c-5.91,8.19-11.8,16.4-17.7,24.59C53.41,212.45,53.3,212.74,52.95,212.77z"/>
	<path class="st1" d="M130.02,15.4c1.15-3.18,2.32-6.35,3.44-9.54c0.3-0.84,0.62-1.29,1.67-1.07c2.06,0.43,4.16,0.69,6.37,1.04
		c-1.55,3.25-3.03,6.38-4.53,9.5c-1.29,2.7-2.55,5.42-3.91,8.08c-1.07,2.09-1.07,4.4-1.51,6.61c-0.37,1.88-0.66,3.78-0.92,5.67
		c-0.08,0.61-0.3,0.7-0.85,0.6c-2.05-0.35-4.09-0.7-6.15-0.98c-0.69-0.09-0.7-0.35-0.6-0.95c0.53-3.11,0.97-6.23,1.51-9.34
		c0.34-1.94-0.16-3.81-0.37-5.7c-0.58-5.28-1.25-10.55-1.9-15.82c-0.06-0.52,0-0.75,0.59-0.65c2.13,0.35,4.26,0.68,6.39,1.01
		c0.76,0.12,0.51,0.73,0.52,1.13c0.03,3.47,0.02,6.94,0.02,10.4C129.86,15.4,129.94,15.4,130.02,15.4z"/>
	<path class="st1" d="M177.33,22.04c0.26,0.19,0.48,0.35,0.71,0.51c1.69,1.27,3.36,2.58,5.08,3.8c0.65,0.46,0.64,0.77,0.18,1.37
		c-4.66,6.18-9.28,12.39-13.94,18.57c-0.58,0.77-0.78,1.29,0.23,1.84c0.62,0.34,1.15,0.85,1.73,1.28c1.28,0.95,1.29,0.95,0.38,2.18
		c-0.81,1.09-1.67,2.14-2.44,3.25c-0.36,0.51-0.61,0.57-1.11,0.19c-3.15-2.38-6.32-4.75-9.5-7.09c-0.55-0.41-0.4-0.71-0.07-1.14
		c4.34-5.77,8.67-11.55,13-17.33c1.7-2.27,3.4-4.53,5.09-6.8C176.83,22.42,177,22.15,177.33,22.04z"/>
	<path class="st0" d="M216.92,122.15c1.39,0.08,2.78,0.21,4.18,0.23c0.81,0.01,0.92,0.32,0.74,1.02c-0.22,0.83-0.66,1.36-1.55,1.38
		c-1.36,0.03-2.72,0.03-4.05-0.27c-0.45-0.1-0.94-0.21-1.17-0.72c-0.53-1.18-0.14-1.75,1.13-1.67
		C216.45,122.13,216.69,122.14,216.92,122.15z"/>
	<path class="st0" d="M31.63,186.21c-0.05-0.69,0.42-1.1,0.87-1.49c3.11-2.7,6.21-5.39,9.34-8.06c1.24-1.06,2.44-2.18,3.81-3.09
		c0.53-0.35,1.06-0.56,1.68-0.25c1.14,0.57,1.2,1,0.25,1.81c-4.66,4.01-9.32,8.03-13.99,12.02c-0.32,0.27-0.6,0.95-1.12,0.58
		C31.99,187.41,31.63,186.87,31.63,186.21z"/>
	<path class="st0" d="M72.15,215.13c0.47-1.52,0.98-3.16,2.04-4.54c0.55-0.72,1.35-0.4,1.98-0.09c0.76,0.38,0.07,0.9-0.07,1.29
		c-0.52,1.42-1.09,2.83-1.71,4.21c-0.16,0.37-0.11,1.09-0.78,0.96c-0.64-0.12-1.14-0.56-1.37-1.22
		C72.17,215.59,72.18,215.43,72.15,215.13z"/>
	<path class="st0" d="M60.04,30.12c-0.11,0.81-0.62,1.28-1.22,1.56c-0.59,0.27-0.66-0.43-0.86-0.73c-0.97-1.45-1.86-2.96-2.85-4.4
		c-0.36-0.53-0.21-0.74,0.27-0.97c0.9-0.42,1.71-0.4,2.33,0.46C58.63,27.32,59.58,28.61,60.04,30.12z"/>
</g>
</svg>
