<svg id="Layer_1" data-name="Layer 1" xmlns="http://www.w3.org/2000/svg" xmlns:xlink="http://www.w3.org/1999/xlink" viewBox="0 0 770.38 470.59"><defs><style>.cls-1{fill:url(#linear-gradient);}.cls-2{fill:#fbb03b;}.cls-3{fill:red;}.cls-4{fill:blue;}.cls-5{fill:#ff0;}.cls-6{fill:aqua;}.cls-7{fill:#f0f;}.cls-8{fill:lime;}.cls-9{fill:#f15a24;}.cls-10{fill:#d4145a;}.cls-11{fill:#c69c6d;}.cls-12{fill:#ff55df;}.cls-13,.cls-14,.cls-15{fill:#39b54a;}.cls-14,.cls-15{stroke:#000;stroke-width:0.47px;}.cls-14{stroke-linecap:round;stroke-linejoin:round;}.cls-16{fill:#4a4300;}.cls-17{fill:#ff995f;}</style><linearGradient id="linear-gradient" x1="385.49" y1="16.09" x2="384.89" y2="456.72" gradientUnits="userSpaceOnUse"><stop offset="0" stop-color="#a67c52" stop-opacity="0.16"/><stop offset="1" stop-color="#a67c52" stop-opacity="0.12"/></linearGradient></defs><title>frenimals</title><rect class="cls-1" width="770.38" height="470.59"/><path class="cls-2" d="M714.8,317.73c-.2-1-1.35-.6-1.85-1.19-.09-.11-.38,0-.49-.14-.85-.73-1.42-1-2.16.31-.47.84-1.68.46-2.55.24a2,2,0,0,0-1.31,0c-1.33.47-2.47-.36-3.6-.79-.76-.3-1.13-.4-1.65.25a1.47,1.47,0,0,1-2,.37,17.92,17.92,0,0,0-3.25-.88,11.63,11.63,0,0,1-5.21-2.33,1,1,0,0,0-1.62.07c-1.19,1.21-1.71,1.21-3.06.17a7.54,7.54,0,0,1-3.17-6.42,51.52,51.52,0,0,1,.14-5.27,3.52,3.52,0,0,0-.65-2.59,4.08,4.08,0,0,1-.85-1.67,1.05,1.05,0,0,0-.84-.86c-.45-.05-.72.36-.91.76a22.83,22.83,0,0,0-2.56,9.74,1.18,1.18,0,0,1-.43,1.13c-1.12.69-1.17,1.74-1,2.87a3.3,3.3,0,0,1,0,.83c-.1.7-.75,1-1.2.56a1.53,1.53,0,0,0-1.69-.48.27.27,0,0,1-.2,0c-1.38-1-3.24-1.19-4.41-2.55a4.17,4.17,0,0,0-2.1-1.27,14.54,14.54,0,0,1-2.92-1.63c-.21-.12-.44-.4-.65-.23-1.35,1.08-3.39,1.38-4,3.35a5.64,5.64,0,0,1-1.08,1.89,6.63,6.63,0,0,1-2.46,1.93,3.63,3.63,0,0,0-2.2,2.32c-.09.3-.18.77-.63.75s-.61-.44-.8-.76a1.79,1.79,0,0,1-.25-.8,1.6,1.6,0,0,0-1-1.49.89.89,0,0,1-.57-1c.08-.45.49-.46.84-.46a1.15,1.15,0,0,0,1.17-.89c.18-.65.57-1.22.73-1.85a4.82,4.82,0,0,1,1.75-2.55c.23-.19.41-.39.33-.71s-.42-.42-.74-.46c-.95-.12-1.49.54-2,1.13a4.18,4.18,0,0,0-1,1.59,1.71,1.71,0,0,1-1,1.13c-1.91.73-2.21,2.46-2.72,4.08-.14.45,0,1.19-.63,1.16s-1-.66-1-1.29c-.17-1.84-.19-3.65,1.13-5.18s2.13-3.29,3.6-4.62a19.71,19.71,0,0,1,2.14-1.85c1.09-.73,2.46-.43,3.82.7a4.2,4.2,0,0,0,2.2,1.15c.25,0,.52.06.66-.2s0-.45-.24-.61a5.38,5.38,0,0,0-2-1.17c-1.14-.27-1.7-1.41-2.69-1.95-.41-.23-.75-.5-1.25-.35a11.36,11.36,0,0,1-2.39.39c-.86.08-1.45.48-1.45,1.46a3.78,3.78,0,0,1-2,3.22,6.78,6.78,0,0,0-1.47,1c-.16.17-.38.27-.38.58,0,.87-.35,1.07-1.13.67-.63-.32-1.22-.71-1.84-1a1.17,1.17,0,0,1-.6-.93,3.86,3.86,0,0,0-.51-1.37c-.26-.36-.4-.38-.8-.06a3.37,3.37,0,0,0-1.25,3.65c.09.43.26,1-.27,1.22s-.84-.33-1.08-.66c-1.19-1.63-2-3.33-.64-5.28a.18.18,0,0,0,0-.1c.31-2.06,1.58-3.83,1.84-5.91.13-1.08,1-1.51,1.87-1.76a11.66,11.66,0,0,0,1.88-.66c1.18-.56,2.07.2,3,.8.41.26.75.64,1.16.9a3.29,3.29,0,0,0,3.83-.18,50,50,0,0,0,8-6.1,15.65,15.65,0,0,1,2.67-2.05c.45-.28.68-.49.1-.88-3.31-2.25-5.36-5.54-7.57-8.75a11,11,0,0,0-4.54-3.61,11.27,11.27,0,0,0-6.43-.49c-3,.42-6,1-8.46,3a2.86,2.86,0,0,0-1.21,2.31,4.54,4.54,0,0,1,0,.74c-.14.94-.51,1.14-1.23.56a9.79,9.79,0,0,1-3.48-4.63c-.6-2,.73-3.47,2-4.75.74-.71,1.41-1.34,1.23-2.47-.09-.55.39-.88.61-1.31a18.1,18.1,0,0,1,4.87-6.08,27.73,27.73,0,0,1,4.12-2.28c-1.53-.8-3-1.49-4.33-2.28-2.26-1.32-4.68-2.43-6.34-4.58-.28-.36-.51-.7-.29-1.14s.71-.42,1.12-.4a7,7,0,0,1,2.57,1.07c.07-.5-.27-.78-.53-1a26.3,26.3,0,0,1-5.66-8.86,5.27,5.27,0,0,1,0-3.31,1.27,1.27,0,0,1,1.19-.91c.71-.05,1,.49,1.23,1a43.69,43.69,0,0,0,2.11,4.22,18.1,18.1,0,0,0,2.27,3.72,1,1,0,0,0,0-1.2,12.42,12.42,0,0,1-1-7.78,1.47,1.47,0,0,1,1.23-1.39c.85-.11,1.26.48,1.53,1.18a25.68,25.68,0,0,1,1.28,5.48c0,.27,0,.56.24.78.43-.23.33-.62.33-.95a11.37,11.37,0,0,1,1.26-4.6,3.72,3.72,0,0,1,.88-1.16c.32-.29.72-.62,1.23-.39a1.25,1.25,0,0,1,.72,1.08,22.62,22.62,0,0,1,.15,3.68V243c1-.66,1-1.71,1.6-2.47s1-1.48,1.65-2.16a1.25,1.25,0,0,1,1.42-.44,1,1,0,0,1,.56,1.14c-.23,1.73.18,3.52-.57,5.19a.75.75,0,0,0,.09.83,13.41,13.41,0,0,1,2.82-2.67c.43-.31.85-.7,1.42-.42a1.57,1.57,0,0,1,.74,1.43c.14,1.47-.58,2.71-1,4-.1.32-.41.68,0,.95s.58-.09.85-.24a3.53,3.53,0,0,1,2.25-.4,1.33,1.33,0,0,1,1,2.16c-.33.53-.91,1.13-.64,1.65s1.05.11,1.6.14c.91,0,1.84,0,2.74.08,1.49.18,1.87.93,1.22,2.26-.24.48-.09.79.4.82a10.19,10.19,0,0,1,4.55,1.41c.29.17.75.07,1.14.1a4.47,4.47,0,0,1,1.66.13c1.4.74,2.43.08,3.42-.74a70.43,70.43,0,0,0,7.29-6.64,23.77,23.77,0,0,0,3.7-6.29c1.87-4,3.61-8.08,6.76-11.28a14,14,0,0,1,6-3.92,1.56,1.56,0,0,1,1.65.63.93.93,0,0,1-.07,1.41.66.66,0,0,0-.21.76c.1.2.33.15.46,0,2.12-1.73,5-2.13,7.08-3.82s4-3.21,6.07-4.7a42.28,42.28,0,0,1,8.53-4.47c1.45-.61,3-1,4.4-1.7a4.14,4.14,0,0,1,2.28-.28,1.38,1.38,0,0,1,1.26,1c.17.54-.28.91-.7,1.18-2.3,1.53-4.61,3.06-6.94,4.55-3,2-5.83,4.25-8.72,6.41l-.55.39a.86.86,0,0,0,1.16.19,43.35,43.35,0,0,1,9-3,14.33,14.33,0,0,1,5.58-.82,5.14,5.14,0,0,0,2-.24c1.65-.44,3.21.19,4.79.43a1.32,1.32,0,0,1,1.07,1.28,1.39,1.39,0,0,1-.81,1.45,30.29,30.29,0,0,1-5.62,2c-1.93.6-4,.89-5.83,1.67a16.76,16.76,0,0,1-2.52.69c-1.13.28-2.1,1-3.26,1.13a4.65,4.65,0,0,0,2.5.19,26.24,26.24,0,0,1,9.71.77,18.51,18.51,0,0,1,5,2.26c.4.26,1,.58.79,1.23a1.68,1.68,0,0,1-1.44,1.07,3.25,3.25,0,0,1-1.46,0,15.54,15.54,0,0,0-4.17-.53,27.22,27.22,0,0,0-3.73-.52,9.89,9.89,0,0,0-1.93.17,28.75,28.75,0,0,1,7.55,2.95,12.65,12.65,0,0,1,4.15,3.48c.25.39.55.78.08,1.31a1.35,1.35,0,0,1-1.59.46,22,22,0,0,1-3.45-1.5.84.84,0,0,0-.9-.11,42.71,42.71,0,0,1,3.59,3,23.11,23.11,0,0,1,1.76,1.95c.48.63.37,1.09-.37,1.4a3.12,3.12,0,0,1-2.55.18,1.18,1.18,0,0,0-.52-.1c-2.64.11-4.74-1.28-6.89-2.52-.54-.31-1-.46-1.12.4A2.8,2.8,0,0,1,717,252c-.28,0-.56,0-.84-.07-.54-.07-.7.17-.6.67.37,1.93-.26,2.88-2.18,3.31-1.2.26-1.2.26-.65,1.32.72,1.42-.36,3.06-2.24,3.19-1,.06-1.21.19-1,1.24.36,1.81-.23,2.53-2,2.8-.75.12-.63.51-.42,1,.74,1.63.77,1.67-.75,2.61-1.17.71-1.91,1.93-3.18,2.54-.38.18-.49.88-.76,1.33-.75,1.22-1.33,1.4-2.64.87-.24-.1-.51-.42-.74-.11s0,.52.21.75c.68,1,.58,1.31-.57,1.71a3.19,3.19,0,0,0-1.19.84,10.53,10.53,0,0,1-10,2.93,13.84,13.84,0,0,1-2.87-1.24c-.21-.09-.45-.35-.65-.05s.09.37.19.55c2.2,4,4.8,7.8,7.21,11.69a15.2,15.2,0,0,0,6.37,5.64,45.74,45.74,0,0,1,4.45,2.77c2.59,1.63,4.87,3.68,7.67,5.06s5.31,2.64,7.89,4.1a14.34,14.34,0,0,1,2.15,1.84,1.09,1.09,0,0,1,0,1.81c-.59.51-.31.63.1,1a16.24,16.24,0,0,1,1.71,1.71,1.65,1.65,0,0,1,.36,1.77,1.6,1.6,0,0,1-1.61,1,3.29,3.29,0,0,1-1.76-.2c-.81-.49-1.14-.25-1.18.64a4.86,4.86,0,0,1-.16.83Zm-71.06-15.37a6.15,6.15,0,0,1,1.27-.58c.89-.47,1.29-1.66.64-2a4.64,4.64,0,0,0-2.82-1c-.41,0-.61.2-.29.6A4.11,4.11,0,0,1,643.74,302.36Z" transform="translate(-0.29)"/><path class="cls-3" d="M128.31,217.62a16.89,16.89,0,0,1-.21-1.88,3.34,3.34,0,0,1,1.29-2.85,2.48,2.48,0,0,0,1-2.65,53.76,53.76,0,0,0-1.55-6.81,11,11,0,0,0-4.32-6.38c-3.11-2.13-6.43-4-8.89-6.9a.91.91,0,0,0-.35,1,12.74,12.74,0,0,1-1.15,5c-.6,1.6-1,3.27-1.48,4.91-.38,1.25-.75,2.52-1.14,3.77-.3,1-.45,2-.72,2.93-.44,1.61-1,3.19-1.47,4.79a4.38,4.38,0,0,1-4.42,3.17c-1.56,0-3.16.29-4.63-.61a2,2,0,0,1-1.06-2c.06-.9.6-1.27,1.37-1.52a17.81,17.81,0,0,0,1.66-.65,1.47,1.47,0,0,0,.9-1,45.56,45.56,0,0,0,1.44-6.29,31,31,0,0,0,.55-4.23,27,27,0,0,0-1.71-7.81,46.85,46.85,0,0,1-2.26-7.25c-.25-1.57-.89-1.87-2.34-1.26-1.06.44-2.23.52-3.32.91-1.3.46-2.66.74-4,1.12-1.06.3-2.17.47-3.22.84-.13.05-.28,0-.42.08a5.4,5.4,0,0,0-2.06.7c-.68.63.26,1.25.49,1.84a10.72,10.72,0,0,1,.67,4.11q0,5.64,0,11.28a15.75,15.75,0,0,0,.31,3.54,12.09,12.09,0,0,1-.55,5.59c-.34,1.36-1.69,1.93-2.87,2.43a8.08,8.08,0,0,1-3.87.79,2.68,2.68,0,0,1-2.32-1.19,2.78,2.78,0,0,1,.2-2.82A4.16,4.16,0,0,1,79.36,211c1.73-1,2.19-2.07,1.61-3.7a30.43,30.43,0,0,1-1-4.49c-.15-.76-.45-1.47-.67-2.2-.73-2.37-1.15-4.85-2.37-7.07-.26-.47-.4-.6-.91-.22a8.74,8.74,0,0,1-3.46,1.41,77.62,77.62,0,0,0-9.83,2.35,26.6,26.6,0,0,1-4.09.9c-.55.11-.72.16-.37.77a10.27,10.27,0,0,1,1.65,5.53c-.08,1.72-1,2.47-2.74,2.12a6,6,0,0,1-5-4.68,11.45,11.45,0,0,1-.49-3.26,7.45,7.45,0,0,1,3.31-5.9c3.1-2.36,6.7-3.89,10-5.86a6.78,6.78,0,0,0,2.91-2.92,2,2,0,0,0-.37-2.51,20,20,0,0,1-4.46-7,31.12,31.12,0,0,1-.94-3.19c-.45-1.5-.37-3.09-1-4.55a23.63,23.63,0,0,1-.71-2.9c-.49-1.64-1.08-3.24-1.65-4.82-.77-2.16-1.56-4.32-2.4-6.45A7.93,7.93,0,0,0,51,147.1c-2.44-.69-5-1.13-7.18-2.53a5.5,5.5,0,0,1-2.71-4,7,7,0,0,0-.75-2.17c-.9-1.7-.53-3.51-.44-5.26,0-.93,1-1.19,1.85-1.25a23.1,23.1,0,0,1,4.63.06A3.52,3.52,0,0,0,50,130.35a12.87,12.87,0,0,1,7.7-5.06c1.1-.27,1.31-.64,1.26-1.78a65.21,65.21,0,0,1,.07-9c.12-1.18.59-1.32,1.57-.58a10.73,10.73,0,0,1,2,2.11c.18.23.38.7.81.52s.22-.55.24-.86c0-.53,0-1,0-1.58a1.38,1.38,0,0,1,.86-1.23c.58-.24,1,.11,1.37.52a18.91,18.91,0,0,1,2.33,4A22.91,22.91,0,0,1,70.45,124a7.87,7.87,0,0,0,2,3.64,14.68,14.68,0,0,1,2.46,4.92c.58,1.6,1.05,3.24,1.68,4.83.56,1.42,1,2.89,1.66,4.27a31.63,31.63,0,0,0,2.9,4.84,10.07,10.07,0,0,0,4.52,3.77,33.19,33.19,0,0,0,5.93,1.57,26.2,26.2,0,0,0,7.43.39c2.85-.31,5.69-.64,8.53-1,2.39-.32,4.75-1.1,7.2-.79a43.64,43.64,0,0,1,6.5,1.08,4.63,4.63,0,0,0,4.14-.38c1.94-1.35,4.13-2.3,5.91-4,2.05-1.9,2.46-4.2,2.25-6.8a6.42,6.42,0,0,0-4.32-5.11,9.08,9.08,0,0,0-7.15.85c-1.66.83-2.35,2.45-2.78,4.13-.26,1,.63,1.88.78,2.89.12.86-.13,1.37-1,1.37a3.66,3.66,0,0,1-2.57-1.28,7.37,7.37,0,0,1-2.14-5.07c-.34-4.9,2.18-8.14,6.05-10.47a11.72,11.72,0,0,1,5.07-1.85,26.3,26.3,0,0,1,4-.3,17.79,17.79,0,0,1,8,2.56,11.71,11.71,0,0,1,5.3,7.53,12.65,12.65,0,0,1-.18,6.65,15.31,15.31,0,0,1-2.33,5.11,22.37,22.37,0,0,1-5.27,5.23c-1.4.92-2.86,1.76-4.27,2.68a3.76,3.76,0,0,0-1.3,3.81c.28,1.62.8,3.18,1.23,4.73a18.75,18.75,0,0,1,.24,8.12,39.14,39.14,0,0,0-.3,8.71,15.18,15.18,0,0,0,2.87,8.1,8.1,8.1,0,0,1,1.09,2.69c.55,2,.34,4.19,1.06,6.19a2.59,2.59,0,0,1,.15.83,38.49,38.49,0,0,0,.51,4.68c.34,3.93,1.1,7.83.84,11.82-.08,1.15-.84,1.8-1.32,2.66Z" transform="translate(-0.29)"/><path class="cls-4" d="M449.82,317.73a.86.86,0,0,0-.92-.58,4.45,4.45,0,0,1-2.16-.72,1,1,0,0,1-.64-.78c-.05-1-.67-1.12-1.51-1.1a44.88,44.88,0,0,1-4.64,0,7.75,7.75,0,0,1-4-1.35c-.59-.43-.58-.84-.1-1.39a27.52,27.52,0,0,0,3.3-4.06,9.23,9.23,0,0,0,1.61-4.36c0-1.58.74-3.05.94-4.62s.66-2.92,1-4.39a6.13,6.13,0,0,1,.62-2.09,1.26,1.26,0,0,0-.36-1.68,35.32,35.32,0,0,1-3.14-3.1,37.24,37.24,0,0,1-4.36-7,20.27,20.27,0,0,1-1.73-4.65,17.78,17.78,0,0,1-.78-4.2c.05-3.2-.92-6.31-.77-9.51.06-1.37-.16-2.74-.08-4.11.23-3.59-2.55-6.49-5.61-7.44a8,8,0,0,1-5.05-3.68c-.47-.87-1.64-1.18-1.93-2.19-.76-2.64-1.64-5.27,0-8,.76-1.28,2-1.54,3.19-2,2.46-.9,5.1-1.1,7.6-1.9a8.62,8.62,0,0,1,5.4.18,7.51,7.51,0,0,0,1.76.34A6.56,6.56,0,0,1,443,238a10.3,10.3,0,0,0,1.12,3.34,5.27,5.27,0,0,1,.34,4.38,8,8,0,0,0-.23,1.45,113.36,113.36,0,0,0-.57,14.27c0,.16,0,.35.23.49a6.3,6.3,0,0,1,.83-1.53,1.39,1.39,0,0,1,1.55-.62,1.53,1.53,0,0,1,1.2,1.19,5.27,5.27,0,0,0,.18.71c.54,1.29.59,1.31,1.59.36a10.23,10.23,0,0,1,3-1.57c1.8-.85,3.74-1.39,5.56-2.14s3.47-1,5.17-1.63a1.64,1.64,0,0,1,.93,0,.93.93,0,0,0,.82-.08c1.39-1.14,3.11-1.17,4.73-1.62,2.47-.69,4.94-.46,7.4-.66a42,42,0,0,1,5.37.18,5.84,5.84,0,0,1,2.2.91,1.62,1.62,0,0,0,.87.31c2.58-.33,4.59,1.11,6.65,2.25a37.34,37.34,0,0,1,6.85,4.64A6.93,6.93,0,0,1,501,265.3a1.28,1.28,0,0,0,.54.63c2.68,1.57,4.07,4.26,5.76,6.67A34.59,34.59,0,0,1,510.7,279a8.89,8.89,0,0,1,.92,3c.6-.37.53-.9.82-1.26.84-1.06,1.55-1.39,2.38-.94a2.46,2.46,0,0,1,1.17,2.87,26.39,26.39,0,0,1-2.29,5.87,1.39,1.39,0,0,0,.31,1.65,24.76,24.76,0,0,0,5.43,4.45c.55.36,1.45.61,1.22,1.49s-1.12.73-1.8.74c-2,0-4,.06-6,0a11.46,11.46,0,0,0-3.91.64c-.37.12-.53.24-.41.67a11.32,11.32,0,0,0,2.88,4.78,20.37,20.37,0,0,1,4.42,6.07c1,2.43.73,4-2.43,4.95s-6.64.34-9.93.82c-.46.07-.9.1-1.19.55a4,4,0,0,1-3.57,1.83c-.64,0-1.36-.08-1.81.6h-9.29c-.28-.55-.85-.45-1.31-.51a11.07,11.07,0,0,1-3.59-.67c-.95-.46-1.2-1-.66-1.9.25-.42.56-.8.8-1.23a6.46,6.46,0,0,0,1-2.15,29.2,29.2,0,0,1,.92-5.24c.38-1,.14-1.31-1-1.35s-2.4.45-3.65.44c-3.45-.05-6.87-.65-10.32-.49a3.4,3.4,0,0,1-.82-.16c-1.74-.37-3.47-.78-5.22-1.09-1.07-.19-1.35.27-.95,1.32a17.34,17.34,0,0,1,1.37,8c-.18,2-1.25,3-2.83,3.92-.82.47-1.94.18-2.5,1.13Z" transform="translate(-0.29)"/><path class="cls-5" d="M272.17,104.59a2.14,2.14,0,0,1-.18-2.79,2.57,2.57,0,0,0,.18-1,.92.92,0,0,1,.4-.81c2.06-1.3,2.47-3.5,3-5.62a16.75,16.75,0,0,0,.56-2.45A6.11,6.11,0,0,0,275,87.53a26.94,26.94,0,0,0-1.89-2.76c-.39-.42-.61-.57-.93.13-1,2.2-1.73,4.5-2.54,6.77a3.9,3.9,0,0,1-.37,1,5.33,5.33,0,0,0-.89,3.7,1.94,1.94,0,0,1-.82,2,3.27,3.27,0,0,0-1.16,2,2,2,0,0,1-2.31,1.78c-.92,0-1.83,0-2.75,0s-1.3-.54-1.09-1.54a17.21,17.21,0,0,1,1.45-3.34c.81-1.87,1.85-3.63,2.58-5.55a21.47,21.47,0,0,0,.94-6,8.5,8.5,0,0,0-2.17-6.18,1.06,1.06,0,0,0-1.34-.23,17.6,17.6,0,0,1-8.58,1.69,55.53,55.53,0,0,1-8-1.09c-1.26-.3-2.54-.5-3.8-.81a32,32,0,0,1-3.47-1.15c-1-.36-2-.46-3-.81-.54-.19-.9.22-.84.77a16.19,16.19,0,0,1-.8,5.68c-.69,2.91-.4,5.79-.51,8.68a6.74,6.74,0,0,0,.44,2.58,2.92,2.92,0,0,1-1.06,3.64,2.23,2.23,0,0,0-.84,1.38,2.37,2.37,0,0,1-2.69,2c-.83-.08-1.67-.22-2.5-.36s-.93-.65-.58-1.31a23.31,23.31,0,0,0,2.66-7.31,11.31,11.31,0,0,0-.77-6c-.2-.54-.19-1.15-.38-1.75-.67,2-1.57,3.93-1.71,6.11-.11,1.74,0,3.46,0,5.19a4.17,4.17,0,0,1-1.66,3.66,2.2,2.2,0,0,0-.89,1.91c0,1.11-.42,1.53-1.53,1.57a14.83,14.83,0,0,1-3.26-.11c-1.15-.21-1.36-.7-.69-1.65A13.5,13.5,0,0,0,219,98.9c1.23-3.2,2.2-6.42,1.83-10a40.17,40.17,0,0,0-1.52-8.11,16.26,16.26,0,0,0-3.59-6.69,11.06,11.06,0,0,1-2.33-4.51A32.06,32.06,0,0,1,212,59.38a12.05,12.05,0,0,0-.85-3.44c-.5-1.84-1.12-3.65-1.79-5.44a20.91,20.91,0,0,0-2.09-4,.88.88,0,0,0-.9-.42,2.65,2.65,0,0,0-2.19,2.34,8.52,8.52,0,0,1-2.54,6.45,4.17,4.17,0,0,0-1.32,2.67.67.67,0,0,1-.39.69c-.38.13-.56-.22-.76-.44a2.24,2.24,0,0,1-.44-1.69,7.62,7.62,0,0,1,.55-3.28A1.81,1.81,0,0,0,197.76,50c-1.33-.14-3-1.73-3.58-2.91-.87-1.73-.62-3.5-.55-5.25a8.28,8.28,0,0,1,1.52-3.74,28.94,28.94,0,0,0,3.14-7.51A12.37,12.37,0,0,1,201,25.82a4.64,4.64,0,0,0,1-2,12.13,12.13,0,0,1,6.13-8,14.11,14.11,0,0,1,8.72-2.14c1.18.12,1.61.78,1.07,1.84-.1.21-.29.34-.17.65.33.88,0,1.28-1,1.53a21.57,21.57,0,0,0-5.19,1.8c-.2.11-.54.13-.48.46s.33.22.52.28.33.08.37.18c.66,1.57,1.43.27,2.13.06a6.11,6.11,0,0,0,.83-.45c1.55-.75,2.34-.25,2.2,1.5a10.82,10.82,0,0,1-1.69,5.34,3.19,3.19,0,0,1-1.15,1.21c-1,.4-.84.79-.2,1.43,1.7,1.72,3.28,3.56,5,5.23a26.47,26.47,0,0,0,6.48,4.58,15.86,15.86,0,0,0,5.85,1.39,19.68,19.68,0,0,1,6.22,2.12,10.3,10.3,0,0,0,3.08,1,60.55,60.55,0,0,0,13.05-.12c2.28-.23,4.64-.52,7-.92a20.34,20.34,0,0,1,8.36.17c1.39.35,2.87.2,4.2.88A16.63,16.63,0,0,1,275.68,45c.95.67,1.7.4,2.38-.52a7.86,7.86,0,0,0,1.67-4.88c-.08-2.47,0-5.1-2.11-7a4.55,4.55,0,0,0-2-1.07c-.37-.09-.67-.25-.64-.69s.42-.6.82-.62a6.59,6.59,0,0,1,5.77,2.4c.34.42.61,1.07,1.42.5.29-.21.74.21,1,.48a13.17,13.17,0,0,1,2.92,5.34,16.64,16.64,0,0,1,.54,6.42,13.62,13.62,0,0,1-1.55,4.42,39.1,39.1,0,0,1-2.12,3.49,2.85,2.85,0,0,0-.07,2.45,14.88,14.88,0,0,1,.06,7.89c-.34,1.33-.44,2.69-.68,4-.35,2-1.07,3.93-1,6a22.52,22.52,0,0,1-.42,2.36c-.12,1.45.47,2.75.58,4.15a27.07,27.07,0,0,0,.4,3.32,4.14,4.14,0,0,1-.61,2.5,9,9,0,0,0-1,3.8c-.13,3-1.07,5.84-1.23,8.8a2.71,2.71,0,0,1-.87,2,2.23,2.23,0,0,0-.78,1.88c0,.94-.69,1.5-1.08,2.22Z" transform="translate(-0.29)"/><path class="cls-6" d="M415.79,264.7c.51,2.64-.28,5.19-.73,7.71a67.74,67.74,0,0,1-1.84,8,8.09,8.09,0,0,1-1.61,2.82c-.86,1-2.2,1-3.62.08s-2.79-2-4.24-2.91-3-2.3-4.78-3c-.62-.24-.77-.12-.92.47a51.1,51.1,0,0,1-2.5,7.2c-.35.83.45,2,1.65,2.22,1.37.29,2.74.56,4.13.75,2.44.35,4.79,1.73,4,5.37a10.41,10.41,0,0,1-.73,2.38,2.34,2.34,0,0,1-3.39,1.22,8.8,8.8,0,0,1-3.47-3c-.61-.9-1.28-1.75-1.91-2.64a1.29,1.29,0,0,0-1.44-.64c-1.07.29-2.27.47-3,1.45-1.56,2.23-3.41,4.24-4.8,6.61-1.18,2-1.2,4.13-1.15,6.3,0,.83.44,1.91-.31,2.37s-1.41-.48-2-.95a12.77,12.77,0,0,0-4-2.3,3,3,0,0,0-2-.16,31.91,31.91,0,0,0-4.19,1.64,7.42,7.42,0,0,0-3.35,4c-.25.62-.44,1.26-.66,1.89a1,1,0,0,1-.69.72c-.43.08-.63-.2-.83-.51-.53-.83-1-1.67-1.61-2.46-1.38-1.87-3.42-2.17-5.54-2.21-1.19,0-2.4.08-3.58,0-2.21-.21-3.37,1.06-4.27,2.78-.06.12-.07.28-.14.39-.28.47-.45,1.1-1.21.92s-.77-.71-.82-1.3a4.65,4.65,0,0,0-2.8-4.27,22.66,22.66,0,0,0-2.67-.9,18.61,18.61,0,0,0-3.65-.93,6.18,6.18,0,0,0-5.14,1.6c-.49.45-.95,1.26-1.71.9s-.55-1.24-.51-1.92c.18-2.79-.56-5.19-2.91-6.89-1.14-.83-2.15-1.8-3.21-2.72a8.74,8.74,0,0,0-1.12-.75c-1.47-.88-2.76-.12-4.08.33-.56.2-1.1.44-1.56-.06s.08-.89.3-1.3c.38-.7.81-1.39,1.15-2.12.65-1.37.07-2.67-.55-3.81a35.07,35.07,0,0,0-4.26-6.35,15.39,15.39,0,0,0-2.6-2.11,8.88,8.88,0,0,1-3.41-4.11,3.88,3.88,0,0,1,.8-4.11,32.84,32.84,0,0,0,2.23-3.29c.6-.79,1.14-1.67,1.72-2.5a8.63,8.63,0,0,0,1.66-5.1c0-.81,0-1.62,0-2.42a4.5,4.5,0,0,0-1.86-3.72c-.59-.49-1.18-1-1.79-1.45a.86.86,0,0,1-.32-1c.11-.44.48-.46.84-.46.7,0,1.41-.05,2.11,0,1.9.18,2.9-1,3.68-2.44a22.27,22.27,0,0,0,1.74-3.66,7.54,7.54,0,0,0,0-4.65,5.26,5.26,0,0,0-1.28-2.27.82.82,0,0,1-.19-1.14.87.87,0,0,1,1.22-.27c.82.55,1.83.46,2.66,1a1.7,1.7,0,0,0,1.73,0c3-1.67,5.65-3.82,7.08-7,.46-1,.15-2.4.23-3.61,0-.57-.32-1.33.37-1.62s1.15.41,1.56.85c1.24,1.31,2.64,2.14,4.48,1.52,1.06-.36,2-1,3.08-1.33,2.92-.87,3.77-3.19,4.29-5.78.09-.43.07-1,.65-1.1s.72.37,1,.73a16.76,16.76,0,0,0,2,2.56,6.09,6.09,0,0,0,4.6,1.32c2.11-.07,4.23-.09,6.33,0,1.8.06,3-1,4-2.14a9,9,0,0,0,1.5-2.27c.15-.32.45-.71.88-.63s.44.45.47.76c.28,3.41,2.45,5.13,5.46,6.17a12.78,12.78,0,0,0,3.66.87,6.65,6.65,0,0,0,5-1.9,11.66,11.66,0,0,1,1.2-1c.77-.53,1.16-.36,1.19.58s-.12,1.75-.15,2.63a3.23,3.23,0,0,0,.63,2.47c.43.49.2,1.24.59,1.86,1.22,1.94,2.87,3.53,4.15,5.41a6.46,6.46,0,0,1,.57.75c1,2,2.66,2.53,4.73,2.26a1.46,1.46,0,0,0,1.15-.65,14.91,14.91,0,0,1,2.75-3c1.93-1.79,3.41-1,4.6.94.94,1.5.73,3.17.63,4.79-.07,1.25-1.67,2.53-3,2.6a34.51,34.51,0,0,0-4.31.17c-1.8.31-2.31,1.08-1.66,2.77a39,39,0,0,1,1.91,6.52c.14.74.56,1,1.31.6a32.94,32.94,0,0,0,5.41-3.39,16.78,16.78,0,0,1,3.86-2.49,2.82,2.82,0,0,1,3.51,1c1.4,1.9,1.71,4.17,2.3,6.35.41,1.55.74,3.11,1.12,4.67A22.67,22.67,0,0,1,415.79,264.7Z" transform="translate(-0.29)"/><path class="cls-7" d="M551.26,222.38c.36.11.53-.13.73-.24,1-.57,1.55-.29,1.84.85a4.84,4.84,0,0,1-.94,3.76,6.77,6.77,0,0,1-1.43,2.17c-.44.34-.26.76.15,1.05,2.3,1.64,3.77,4,5.4,6.22a78.13,78.13,0,0,1,3.91,6.91c1.22,2.07,2.54,4.09,3.68,6.21a24.57,24.57,0,0,0,2.55,4.18,11.26,11.26,0,0,0,6.38,3.53,13.57,13.57,0,0,1,2.14.51,2.38,2.38,0,0,0,2.48-1.15,15.25,15.25,0,0,1,3.21-4.72,41.39,41.39,0,0,1,4.66-3.87c1.47-.91,3-1.84,4.45-2.7a14.79,14.79,0,0,0,2.84-2.6,3,3,0,0,1,2.15-1.18c1.71.08,2.92-1.06,4.37-1.61,1.68-.64,3.26-1.55,5.11-1.66.93-.06,1.71-.86,2.73-.61,1.83.47,3.74.53,5.58,1.07a21.35,21.35,0,0,1,3.9,1.41,14.61,14.61,0,0,1,6,5c1.06,1.67,2,3.38,2.84,5.11a2.88,2.88,0,0,1,.34,1.41c0,.42,0,.89-.46,1.07s-.85-.12-1.1-.55a23.78,23.78,0,0,0-3.12-3.95,19.2,19.2,0,0,0-6.86-4.8,9.13,9.13,0,0,0-3.59-.47c-.19,0-.46,0-.44.3a.33.33,0,0,0,.41.26c1-.2,1.79.51,2.69.73a1.7,1.7,0,0,1,1.23,2.41,4.82,4.82,0,0,1-1.51,2.11c-.16.12-.43.17-.35.44s.33.26.53.24A2.69,2.69,0,0,1,616,250.4a1.54,1.54,0,0,1,.17,2,6.52,6.52,0,0,1-2.94,2.77c-.57.23-.45.52-.12.87a1.45,1.45,0,0,0,1.07.34,1.61,1.61,0,0,1,1.53,1.09,1.68,1.68,0,0,1-.5,1.91,10.1,10.1,0,0,1-2.53,1.67c-.25.11-.58.17-.56.53a.66.66,0,0,0,.55.58c.8.17,1.58.41,1.59,1.38s-.93,1.56-1.71,2.08a5,5,0,0,1-.66.31,2,2,0,0,0-1.38,2.45c.24,1.36-1,1.53-1.8,1.79a4.74,4.74,0,0,0-3.37,3.35,11.18,11.18,0,0,1-2.47,3.87,23,23,0,0,1-5.63,4.84,14.37,14.37,0,0,0-4,4.09c-1.11,1.65-2.4,3.18-3.65,4.73a3.86,3.86,0,0,1-1.53,1.09,8.26,8.26,0,0,0-2.18,1.23,4,4,0,0,1-3.1.72c-1-.05-1.8.11-2.13,1.35a4,4,0,0,1-1.33,2c-1.73,1.36-2.33,3.34-3.11,5.22-.84,2-1.59,4.1-2.4,6.14a2.1,2.1,0,0,0,1.24,3,18.58,18.58,0,0,1,3.9,2,2.07,2.07,0,0,1,.77,1.21c.16.57-.16.9-.66.73a2.74,2.74,0,0,0-1.63,0,1.52,1.52,0,0,1-1.45-.47,2.73,2.73,0,0,0-3.21-.44,4.28,4.28,0,0,1-1.53.36c-2.4,0-4.55.9-6.75,1.69-1.51.55-3.13.26-4.7.15-.69,0-.44-.7-.19-1.07.34-.53.24-.73-.36-.82s-1-.38-1.54-.26a.89.89,0,0,1-1.06-.51c-.2-.48.26-.75.54-1a1.71,1.71,0,0,1,.57-.23c.33-.12,1,.12.92-.35s-.82-.37-1.19-.19a14.18,14.18,0,0,1-6.42,1.22c-1,0-1.72.73-2.6,1.05a4.67,4.67,0,0,1-2.68.25,4.17,4.17,0,0,0-1.65-.16.71.71,0,0,1-1-.71c0-.94-.63-1.07-1.36-1.08-.38,0-.77,0-1.16,0s-.68,0-.73-.43a.76.76,0,0,1,.49-.85,10,10,0,0,1,1.09-.38,15.26,15.26,0,0,1,7.67-.7,7.38,7.38,0,0,0,7-2.53c1.84-2.11,3.48-4.38,5.16-6.61a1.09,1.09,0,0,0-.26-1.79,14.11,14.11,0,0,1-4.45-5.07c-.71-1.25-1-2.68-1.71-3.93a6.34,6.34,0,0,0-1.83-2,41.67,41.67,0,0,1-9.61-9,31.6,31.6,0,0,1-3.33-5.32,29.16,29.16,0,0,1-1.74-5c-.49-1.84-.48-3.74-1-5.55a4.29,4.29,0,0,1-.11-1.25c0-3.65,0-7.3,0-11,0-.83-.16-1.28-1.15-1.32-1.27,0-2.12-1.17-3.29-1.55a3,3,0,0,1-1.63-.93,5.51,5.51,0,0,1-1.13-4.93,9,9,0,0,0,.44-2.36c0-1,.81-1.69,1-2.61.09-.36.48-.72.19-1.06s-.85-.2-1.28-.06a5.94,5.94,0,0,0-.57.27c-.52.19-.78-.21-1.07-.49s-.15-.57.05-.85a7.64,7.64,0,0,1,1.65-1.89c.74-.55.68-.86-.21-1.17a3.84,3.84,0,0,1-1.16-.72A1.32,1.32,0,0,1,529,230c.65-.63,1-1.16.37-2.07a1.65,1.65,0,0,1,1-2.41,1.24,1.24,0,0,0,.83-1.57,7,7,0,0,1-.06-1.58,1.38,1.38,0,0,1,1.66-1.43c.66.07.94-.12,1.09-.78a4.82,4.82,0,0,1,1.48-2.61,1.07,1.07,0,0,1,1.83.24,5.17,5.17,0,0,0,.7.77c.41.39.86.3,1.06-.12a5.21,5.21,0,0,1,1.34-1.46c.88-.86,1.68-.71,2.23.41a7.51,7.51,0,0,1,.68,1.53c.18.73.64.76,1.18.33.27-.22.51-.49.8-.69a1.25,1.25,0,0,1,2.05.67,5.76,5.76,0,0,1,.49,1.26c.13,1,.45.95,1.06.33s.9-1.16,1.76-.78.74,1.18.73,1.91Zm13.49,90a6.42,6.42,0,0,0,2-.18A4.12,4.12,0,0,0,570,309.7a24,24,0,0,0,1.46-6.05,12,12,0,0,1,.35-2.06c.23-.89-.16-1.27-.94-1.56-1.12-.4-1.82.43-2.71.74a7.9,7.9,0,0,0-3.86,2.91c-.13.17-.29.3-.43.46-1.24,1.42-2.4,2.91-3.74,4.25-.73.74-.71,1.68,0,1.94a10.84,10.84,0,0,1,1.48,1C562.58,311.9,563.51,312.65,564.75,312.42Z" transform="translate(-0.29)"/><path class="cls-8" d="M293.08,288.26a28.34,28.34,0,0,1-1.08-6.92c-.06-8.59-.52-17.19.6-25.75a11.62,11.62,0,0,1,.33-1.64,23.11,23.11,0,0,0,.36-5.12c0-.82-.57-1-1.19-.4-.39.38-.64.92-1,1.34a34.32,34.32,0,0,1-13.34,9.61,4.31,4.31,0,0,1-2.38.33.65.65,0,0,1-.55-.56c-.05-.34.18-.43.45-.45,1.3-.09,1-1,.75-1.68a41.83,41.83,0,0,0-3.47-7c-3.9-5.8-9.23-10-15.24-13.4a54.48,54.48,0,0,0-6.29-3.06c-2-.81-4-1.65-6.08-2.28-1.64-.49-3.25-1-4.91-1.47a21.16,21.16,0,0,0-3.51-.93,17.57,17.57,0,0,1-3.85-1c-2.39-.77-2.84-.65-4.46,1.21a58.51,58.51,0,0,0-6.7,10,3.39,3.39,0,0,1-2,1.85,9.73,9.73,0,0,0-1.75.67c-1.88.95-3.71,2-5.5,3.09a35.78,35.78,0,0,0-6.71,5.54,31,31,0,0,0-4.59,6.1,29.62,29.62,0,0,0-2.28,4.58c-.56,1.55-.87,3.16-1.48,4.68a2.37,2.37,0,0,0,1.41,3.43c2.94,1.18,6,2.07,8.86,3.44a17.36,17.36,0,0,1,4.55,2.73,1.05,1.05,0,0,1-1.14,0c-.8-.35-1.63-.64-2.42-1a42.36,42.36,0,0,0-4.64-1.6c-.94-.32-1.92-.63-2.71,0a2.68,2.68,0,0,0-.92,2.86,13.33,13.33,0,0,0,1.63,4.18c2.61,3.93,5.57,7.54,9.65,10.09a48.75,48.75,0,0,0,9.49,4.63,27.61,27.61,0,0,0,6.67,1.66c3.34.31,6.66,1.08,10.05.76.39,0,.78,0,1.17,0a10,10,0,0,0,4-.43,1.29,1.29,0,0,1,1.28.24,29.72,29.72,0,0,0,2.67,1.67,31.47,31.47,0,0,0,6.67,2.69,39.31,39.31,0,0,1,4.4,1,7.51,7.51,0,0,0,2.61.27c1,0,1.29-.53.88-1.46-.75-1.69-1.45-3.39-2.06-5.14-1.12-3.21-1-3.79,1.27-5.12.36-.2.74-.39,1.12-.56a.5.5,0,0,1,.39-.06c1.58.78,3.36.91,5,1.49a9.5,9.5,0,0,0,4.18.31c.62-.07.9-.33.62-1.08-.6-1.67-1.38-3.26-1.87-5a1.46,1.46,0,0,1,.55-1.83c1.24-.81,2.28-1.86,3.43-2.77.24-.19.46-.46.84-.32a32.1,32.1,0,0,1,3.62,1.37,62.3,62.3,0,0,1,7.34,4.66c2.06,1.45,4.08,3,6.1,4.47a1,1,0,0,0,1.06.22c.38-.19.35-.59.34-.93A9,9,0,0,0,293.08,288.26Zm-78.26-31.47a2.18,2.18,0,1,1,2.17-2.17A2.18,2.18,0,0,1,214.82,256.79Z" transform="translate(-0.29)"/><path class="cls-4" d="M270.79,208.05c-.07-.63-.19-1.26-.2-1.88a3.35,3.35,0,0,1,1.29-2.86,2.49,2.49,0,0,0,.95-2.64,55.13,55.13,0,0,0-1.55-6.81,11,11,0,0,0-4.33-6.39c-3.1-2.12-6.42-4-8.88-6.89a.9.9,0,0,0-.35,1,12.75,12.75,0,0,1-1.15,5c-.6,1.59-1,3.26-1.48,4.9-.38,1.26-.75,2.52-1.14,3.77-.3,1-.45,2-.72,2.93-.44,1.62-1,3.2-1.47,4.79a4.38,4.38,0,0,1-4.42,3.17c-1.56,0-3.17.3-4.63-.61a2,2,0,0,1-1.07-2,1.64,1.64,0,0,1,1.37-1.51c.57-.18,1.12-.42,1.67-.65a1.47,1.47,0,0,0,.9-1,45.76,45.76,0,0,0,1.44-6.28,31.37,31.37,0,0,0,.55-4.23,26.91,26.91,0,0,0-1.71-7.81,47,47,0,0,1-2.26-7.26c-.25-1.56-.89-1.87-2.34-1.26-1.06.45-2.23.52-3.32.91-1.3.47-2.66.75-4,1.13-1.06.3-2.16.47-3.21.84-.13,0-.28,0-.42.07a5.57,5.57,0,0,0-2.06.7c-.68.64.26,1.26.49,1.84a10.94,10.94,0,0,1,.67,4.12c0,3.76,0,7.52,0,11.28a16.39,16.39,0,0,0,.3,3.54c.44,1.87-.09,3.77-.54,5.59-.34,1.35-1.69,1.93-2.88,2.42a7.9,7.9,0,0,1-3.86.79,2.65,2.65,0,0,1-2.32-1.18,2.74,2.74,0,0,1,.2-2.82,4.19,4.19,0,0,1,1.52-1.4c1.73-1,2.19-2.06,1.61-3.7a32,32,0,0,1-1-4.48,18.05,18.05,0,0,0-.67-2.2c-.73-2.38-1.15-4.86-2.36-7.07-.26-.47-.4-.6-.91-.22a8.78,8.78,0,0,1-3.46,1.4,77.66,77.66,0,0,0-9.83,2.36,26.47,26.47,0,0,1-4.1.9c-.55.1-.71.15-.37.76a10.2,10.2,0,0,1,1.66,5.54c-.08,1.71-1,2.47-2.74,2.12a6,6,0,0,1-5-4.68,11.84,11.84,0,0,1-.5-3.27,7.45,7.45,0,0,1,3.32-5.89c3.09-2.36,6.7-3.89,10-5.87a6.73,6.73,0,0,0,2.92-2.91,2,2,0,0,0-.37-2.52,19.87,19.87,0,0,1-4.46-7,28.62,28.62,0,0,1-.94-3.18c-.46-1.5-.38-3.09-1-4.55a26.3,26.3,0,0,1-.7-2.91c-.49-1.63-1.08-3.23-1.65-4.82-.77-2.15-1.56-4.31-2.4-6.45a8,8,0,0,0-5.41-5.24c-2.44-.69-5-1.13-7.18-2.53a5.5,5.5,0,0,1-2.71-4,7,7,0,0,0-.75-2.16c-.91-1.71-.53-3.51-.44-5.27,0-.92,1-1.19,1.85-1.24a22.39,22.39,0,0,1,4.63.06,3.51,3.51,0,0,0,3.62-1.6,12.84,12.84,0,0,1,7.7-5.06c1.1-.27,1.31-.63,1.26-1.78a65,65,0,0,1,.07-8.94c.12-1.19.58-1.32,1.57-.59a11.33,11.33,0,0,1,2,2.11c.18.23.38.7.8.52s.23-.55.25-.85c0-.53,0-1.06,0-1.58a1.39,1.39,0,0,1,.86-1.24c.58-.24,1,.11,1.37.52a18.51,18.51,0,0,1,2.32,4,22.56,22.56,0,0,1,2.19,6.58,7.78,7.78,0,0,0,2,3.64,14.73,14.73,0,0,1,2.46,4.93c.58,1.6,1,3.24,1.68,4.83.56,1.41,1,2.88,1.66,4.26a31.9,31.9,0,0,0,2.89,4.84,10.17,10.17,0,0,0,4.53,3.78,32.13,32.13,0,0,0,5.93,1.56,26.2,26.2,0,0,0,7.43.39c2.84-.31,5.69-.64,8.53-1,2.39-.32,4.75-1.1,7.2-.8a46.39,46.39,0,0,1,6.5,1.08,4.63,4.63,0,0,0,4.14-.38c1.94-1.34,4.13-2.3,5.9-3.95,2.05-1.9,2.47-4.2,2.26-6.79a6.41,6.41,0,0,0-4.32-5.11,9,9,0,0,0-7.15.85c-1.66.82-2.35,2.44-2.78,4.13-.26,1,.63,1.88.77,2.89.13.86-.13,1.36-1,1.37a3.71,3.71,0,0,1-2.57-1.29,7.37,7.37,0,0,1-2.14-5.07c-.34-4.9,2.18-8.14,6.05-10.46a11.72,11.72,0,0,1,5.07-1.85,25,25,0,0,1,4-.3,17.63,17.63,0,0,1,8,2.56,11.67,11.67,0,0,1,5.31,7.52,12.65,12.65,0,0,1-.18,6.65,15.36,15.36,0,0,1-2.33,5.12,22.51,22.51,0,0,1-5.27,5.22c-1.4.93-2.86,1.77-4.27,2.69a3.74,3.74,0,0,0-1.3,3.8c.28,1.63.8,3.19,1.22,4.74a18.56,18.56,0,0,1,.25,8.11,38.57,38.57,0,0,0-.3,8.71,15.15,15.15,0,0,0,2.87,8.1,8.15,8.15,0,0,1,1.09,2.7c.55,2,.34,4.19,1.06,6.19a2.32,2.32,0,0,1,.14.82,40.35,40.35,0,0,0,.52,4.68c.33,3.93,1.1,7.84.84,11.82-.08,1.16-.84,1.8-1.33,2.67Z" transform="translate(-0.29)"/><path class="cls-9" d="M668.41,179.9a27.81,27.81,0,0,1-1.09-6.92c-.06-8.58-.52-17.18.6-25.74a11.47,11.47,0,0,1,.33-1.65,23.69,23.69,0,0,0,.37-5.11c0-.83-.57-1-1.19-.41-.4.39-.64.92-1,1.34A34.24,34.24,0,0,1,653.08,151a4.27,4.27,0,0,1-2.37.32.65.65,0,0,1-.56-.56c0-.33.19-.43.45-.44,1.3-.1,1-1,.75-1.68a41.18,41.18,0,0,0-3.47-7c-3.9-5.79-9.23-10-15.24-13.4a52.1,52.1,0,0,0-6.29-3,64.26,64.26,0,0,0-6.08-2.28c-1.63-.49-3.25-1-4.9-1.47a22.63,22.63,0,0,0-3.52-.94,16.94,16.94,0,0,1-3.84-1c-2.4-.76-2.85-.64-4.47,1.22a58.71,58.71,0,0,0-6.7,10,3.37,3.37,0,0,1-2,1.85,9.83,9.83,0,0,0-1.76.67c-1.88.95-3.71,2-5.5,3.09a35,35,0,0,0-6.7,5.54,30.71,30.71,0,0,0-4.6,6.1,29.62,29.62,0,0,0-2.28,4.58c-.55,1.54-.86,3.16-1.48,4.68a2.37,2.37,0,0,0,1.41,3.42c2.94,1.19,6,2.07,8.87,3.45a16.79,16.79,0,0,1,4.54,2.73,1.07,1.07,0,0,1-1.14,0c-.8-.36-1.63-.65-2.42-1a42.25,42.25,0,0,0-4.63-1.61c-1-.32-1.93-.62-2.71,0a2.65,2.65,0,0,0-.93,2.85,13.58,13.58,0,0,0,1.63,4.18c2.61,3.94,5.57,7.55,9.65,10.1a50.21,50.21,0,0,0,9.49,4.63,28.06,28.06,0,0,0,6.67,1.65c3.34.32,6.67,1.09,10.06.77.38,0,.77,0,1.16,0a9.63,9.63,0,0,0,4-.43,1.31,1.31,0,0,1,1.28.24,31.33,31.33,0,0,0,2.67,1.68,32.22,32.22,0,0,0,6.67,2.69,38.78,38.78,0,0,1,4.4,1,7.31,7.31,0,0,0,2.61.27c1,0,1.29-.52.88-1.45-.75-1.69-1.45-3.4-2.06-5.14-1.12-3.22-1-3.8,1.27-5.12.36-.21.74-.39,1.12-.57a.56.56,0,0,1,.39-.06c1.58.78,3.36.91,5,1.5a9.35,9.35,0,0,0,4.18.3c.62-.07.9-.33.63-1.07-.61-1.67-1.39-3.27-1.88-5a1.46,1.46,0,0,1,.55-1.83c1.24-.82,2.28-1.86,3.43-2.78.25-.19.47-.45.84-.31a30.43,30.43,0,0,1,3.63,1.37,62.57,62.57,0,0,1,7.34,4.65c2.05,1.46,4.07,3,6.1,4.47.34.25.66.42,1.05.22s.35-.58.34-.92A9.13,9.13,0,0,0,668.41,179.9Zm-78.27-31.46a2.18,2.18,0,1,1,2.18-2.18A2.17,2.17,0,0,1,590.14,148.44Z" transform="translate(-0.29)"/><path class="cls-10" d="M461.94,68.45c-.51,2.64.28,5.19.74,7.71a67.41,67.41,0,0,0,1.83,8A8,8,0,0,0,466.12,87c.86,1,2.21,1,3.62.09s2.79-2,4.24-2.91,3-2.3,4.79-3c.61-.24.76-.12.91.48a51,51,0,0,0,2.5,7.19c.35.83-.45,2-1.65,2.23-1.36.29-2.73.55-4.12.75-2.45.35-4.8,1.73-4.05,5.37a10.93,10.93,0,0,0,.73,2.38,2.36,2.36,0,0,0,3.4,1.22,8.79,8.79,0,0,0,3.46-3c.61-.89,1.29-1.75,1.91-2.64a1.29,1.29,0,0,1,1.44-.63c1.08.28,2.27.47,3,1.44,1.57,2.23,3.41,4.25,4.8,6.62,1.18,2,1.2,4.12,1.15,6.29,0,.84-.44,1.91.31,2.37s1.41-.47,2-.94a13,13,0,0,1,4-2.31,3.09,3.09,0,0,1,1.95-.16,32,32,0,0,1,4.19,1.65,7.48,7.48,0,0,1,3.36,4c.24.62.44,1.25.65,1.88.13.35.3.65.7.72s.63-.19.82-.51c.53-.82,1-1.67,1.62-2.45,1.37-1.88,3.41-2.17,5.53-2.22,1.2,0,2.4.08,3.59,0,2.2-.2,3.36,1.06,4.26,2.78.07.13.07.28.14.4.28.47.45,1.1,1.21.92s.77-.72.82-1.31a4.64,4.64,0,0,1,2.8-4.26,22.8,22.8,0,0,1,2.68-.9,18.33,18.33,0,0,1,3.64-.93,6.18,6.18,0,0,1,5.14,1.59c.49.46,1,1.27,1.72.91s.54-1.24.5-1.92c-.17-2.79.56-5.19,2.92-6.89,1.14-.83,2.14-1.81,3.2-2.72a7.91,7.91,0,0,1,1.13-.75c1.46-.88,2.75-.12,4.07.33.56.19,1.11.43,1.56-.06s-.08-.89-.3-1.3c-.38-.71-.81-1.4-1.15-2.12-.64-1.38-.07-2.67.55-3.81a35.07,35.07,0,0,1,4.26-6.35,14.48,14.48,0,0,1,2.6-2.11,8.88,8.88,0,0,0,3.41-4.11,3.9,3.9,0,0,0-.8-4.12,35.1,35.1,0,0,1-2.23-3.28c-.6-.79-1.14-1.68-1.71-2.5a8.71,8.71,0,0,1-1.67-5.1c0-.81,0-1.62,0-2.43a4.48,4.48,0,0,1,1.85-3.71c.59-.49,1.18-1,1.8-1.45a.89.89,0,0,0,.32-1c-.12-.43-.49-.45-.85-.46-.7,0-1.41,0-2.11,0-1.9.17-2.9-1-3.67-2.44a22.71,22.71,0,0,1-1.75-3.66,7.65,7.65,0,0,1,0-4.66,5.34,5.34,0,0,1,1.29-2.27.84.84,0,0,0,.19-1.14.88.88,0,0,0-1.23-.26c-.82.55-1.83.46-2.66,1a1.75,1.75,0,0,1-1.73,0c-3-1.68-5.64-3.82-7.07-7-.47-1-.16-2.4-.23-3.62,0-.56.31-1.33-.38-1.61s-1.14.41-1.56.85c-1.23,1.31-2.64,2.14-4.48,1.52-1.06-.36-2-1-3.08-1.34-2.91-.87-3.77-3.18-4.29-5.78-.09-.43-.07-.95-.65-1.09s-.71.37-1,.73a16.62,16.62,0,0,1-2,2.56,6.09,6.09,0,0,1-4.6,1.32q-3.17-.12-6.33,0c-1.79.06-3-1-4-2.14a9.1,9.1,0,0,1-1.5-2.28c-.15-.32-.44-.7-.88-.63s-.44.45-.46.76c-.29,3.42-2.46,5.14-5.46,6.18a13.48,13.48,0,0,1-3.66.87,6.64,6.64,0,0,1-5-1.91,12.93,12.93,0,0,0-1.2-1c-.76-.53-1.16-.36-1.19.58s.12,1.75.15,2.62a3.25,3.25,0,0,1-.63,2.48c-.43.49-.19,1.24-.58,1.86-1.23,1.93-2.87,3.53-4.16,5.41a5.71,5.71,0,0,0-.57.75c-1,2-2.66,2.53-4.73,2.26a1.48,1.48,0,0,1-1.15-.66,14.55,14.55,0,0,0-2.75-3c-1.93-1.79-3.4-1-4.6.93-.94,1.51-.73,3.17-.63,4.8.07,1.25,1.68,2.53,3,2.6a32.84,32.84,0,0,1,4.32.16c1.8.32,2.3,1.09,1.66,2.78a37.79,37.79,0,0,0-1.91,6.52c-.14.74-.57,1-1.32.6a32.75,32.75,0,0,1-5.41-3.4A16.78,16.78,0,0,0,469,51.89a2.84,2.84,0,0,0-3.51,1c-1.4,1.9-1.71,4.17-2.3,6.35-.41,1.54-.74,3.11-1.12,4.67A22.59,22.59,0,0,0,461.94,68.45Z" transform="translate(-0.29)"/><path class="cls-11" d="M371.36,81.4c.36.11.53-.13.73-.24,1-.57,1.55-.29,1.84.85a4.84,4.84,0,0,1-.94,3.76,6.77,6.77,0,0,1-1.43,2.17c-.44.34-.25.76.15,1,2.3,1.64,3.77,4,5.4,6.22a78.13,78.13,0,0,1,3.91,6.91c1.22,2.07,2.54,4.09,3.68,6.21a24.57,24.57,0,0,0,2.55,4.18,11.26,11.26,0,0,0,6.38,3.53,13.31,13.31,0,0,1,2.14.51,2.38,2.38,0,0,0,2.48-1.15,15.25,15.25,0,0,1,3.21-4.72,41.39,41.39,0,0,1,4.66-3.87c1.47-.91,2.95-1.84,4.45-2.7a14.79,14.79,0,0,0,2.84-2.6,3,3,0,0,1,2.15-1.18c1.71.08,2.92-1.06,4.37-1.61,1.68-.64,3.26-1.55,5.11-1.66.93-.06,1.71-.86,2.73-.61,1.83.47,3.74.53,5.58,1.07a21.35,21.35,0,0,1,3.9,1.41,14.61,14.61,0,0,1,6,5c1.06,1.67,1.95,3.38,2.84,5.12a2.81,2.81,0,0,1,.34,1.4c0,.42.05.89-.46,1.07s-.85-.12-1.1-.55a24.26,24.26,0,0,0-3.11-3.95,19.32,19.32,0,0,0-6.87-4.8,9.13,9.13,0,0,0-3.59-.47c-.19,0-.46,0-.44.3a.33.33,0,0,0,.41.26c1-.2,1.79.51,2.69.73a1.7,1.7,0,0,1,1.23,2.41,4.82,4.82,0,0,1-1.51,2.11c-.16.12-.43.17-.35.44s.33.26.53.24a2.69,2.69,0,0,1,2.23,1.19,1.54,1.54,0,0,1,.17,2,6.52,6.52,0,0,1-2.94,2.77c-.57.23-.45.52-.12.87a1.46,1.46,0,0,0,1.08.34,1.61,1.61,0,0,1,1.52,1.09,1.68,1.68,0,0,1-.5,1.91,10.1,10.1,0,0,1-2.53,1.67c-.25.11-.58.17-.56.53a.66.66,0,0,0,.55.58c.8.17,1.58.41,1.59,1.38s-.93,1.56-1.71,2.08a5,5,0,0,1-.66.31,2,2,0,0,0-1.38,2.45c.24,1.36-1.05,1.53-1.8,1.79a4.74,4.74,0,0,0-3.37,3.35,11.18,11.18,0,0,1-2.47,3.87,23,23,0,0,1-5.63,4.84,14.37,14.37,0,0,0-4,4.09c-1.11,1.65-2.4,3.18-3.65,4.73a3.86,3.86,0,0,1-1.53,1.09,8.26,8.26,0,0,0-2.18,1.23,4,4,0,0,1-3.1.72c-1,0-1.8.11-2.13,1.35a4,4,0,0,1-1.33,2c-1.73,1.36-2.33,3.34-3.11,5.22-.84,2-1.59,4.1-2.4,6.14a2.1,2.1,0,0,0,1.24,3,18.58,18.58,0,0,1,3.9,2,2.07,2.07,0,0,1,.77,1.21c.16.57-.16.9-.66.73a2.74,2.74,0,0,0-1.63,0,1.52,1.52,0,0,1-1.45-.47,2.73,2.73,0,0,0-3.21-.44,4.28,4.28,0,0,1-1.53.36c-2.4,0-4.55.9-6.75,1.69a11.1,11.1,0,0,1-4.7.15c-.69-.05-.43-.7-.19-1.07.34-.53.24-.73-.36-.82s-1-.38-1.54-.26a.89.89,0,0,1-1.06-.51c-.2-.48.26-.75.54-1a1.71,1.71,0,0,1,.57-.23c.33-.12,1,.12.92-.35s-.82-.37-1.19-.19a14.18,14.18,0,0,1-6.42,1.22c-1,0-1.72.73-2.6,1a4.67,4.67,0,0,1-2.68.25,4.17,4.17,0,0,0-1.65-.16.71.71,0,0,1-.95-.71c0-.94-.63-1.07-1.36-1.08-.38,0-.77,0-1.16,0s-.68,0-.73-.43a.76.76,0,0,1,.49-.85,10,10,0,0,1,1.09-.38,15.26,15.26,0,0,1,7.67-.7,7.38,7.38,0,0,0,7-2.53c1.84-2.11,3.48-4.38,5.16-6.61a1.09,1.09,0,0,0-.26-1.79,14.11,14.11,0,0,1-4.45-5.07c-.71-1.25-1-2.68-1.71-3.93a6.34,6.34,0,0,0-1.83-2,41.67,41.67,0,0,1-9.61-9,31.6,31.6,0,0,1-3.33-5.32,30,30,0,0,1-1.74-5c-.49-1.84-.48-3.74-1.05-5.55a4.66,4.66,0,0,1-.11-1.25c0-3.65,0-7.3,0-11,0-.83-.16-1.28-1.15-1.32-1.27,0-2.12-1.17-3.29-1.55a3,3,0,0,1-1.63-.93,5.54,5.54,0,0,1-1.13-4.93,9,9,0,0,0,.44-2.36c0-1,.81-1.69,1.05-2.61.09-.36.48-.72.19-1.06s-.84-.2-1.28-.06a5.94,5.94,0,0,0-.57.27c-.51.19-.78-.21-1.07-.49s-.15-.57,0-.85A7.64,7.64,0,0,1,350.61,93c.74-.55.68-.86-.21-1.17a4,4,0,0,1-1.16-.72,1.32,1.32,0,0,1-.11-2.15c.65-.63,1-1.16.37-2.07a1.65,1.65,0,0,1,.95-2.41,1.24,1.24,0,0,0,.83-1.57,7,7,0,0,1-.06-1.58,1.38,1.38,0,0,1,1.66-1.43c.66.07.94-.12,1.09-.78a4.82,4.82,0,0,1,1.48-2.61,1.07,1.07,0,0,1,1.83.24,5.17,5.17,0,0,0,.7.77c.41.39.86.3,1.06-.12A5.21,5.21,0,0,1,360.38,76c.88-.86,1.68-.71,2.23.41a7.51,7.51,0,0,1,.68,1.53c.18.73.64.76,1.18.33.27-.22.51-.49.8-.69a1.25,1.25,0,0,1,2.05.67,6.36,6.36,0,0,1,.5,1.26c.12,1,.44,1,1.05.33s.9-1.16,1.76-.77.74,1.17.73,1.9Zm13.49,90a6.39,6.39,0,0,0,2-.18,4.12,4.12,0,0,0,3.26-2.54,24,24,0,0,0,1.46-6.05,12,12,0,0,1,.35-2.06c.23-.89-.16-1.27-.94-1.56-1.12-.4-1.82.43-2.71.74a7.9,7.9,0,0,0-3.86,2.91c-.13.17-.29.3-.43.46-1.24,1.42-2.4,2.91-3.74,4.25-.73.74-.71,1.68,0,2a9.93,9.93,0,0,1,1.48,1C382.68,170.92,383.61,171.67,384.85,171.44Z" transform="translate(-0.29)"/><path class="cls-2" d="M85.38,322.08a5.77,5.77,0,0,1-.15-.83c0-.89-.38-1.13-1.19-.64a3.27,3.27,0,0,1-1.76.2,1.61,1.61,0,0,1-1.61-1,1.63,1.63,0,0,1,.36-1.76,14.53,14.53,0,0,1,1.71-1.71c.41-.35.7-.46.11-1a1.11,1.11,0,0,1,0-1.82A14.86,14.86,0,0,1,85,311.73c2.58-1.45,5.24-2.78,7.89-4.09s5.08-3.44,7.67-5.07a45.89,45.89,0,0,1,4.46-2.77,15.26,15.26,0,0,0,6.37-5.64c2.4-3.89,5-7.66,7.2-11.68.1-.19.33-.35.19-.55s-.44-.05-.64,0a14.52,14.52,0,0,1-2.88,1.25,10.56,10.56,0,0,1-10-2.94,3.06,3.06,0,0,0-1.18-.83c-1.15-.41-1.25-.72-.58-1.72.16-.23.41-.49.22-.75s-.51,0-.74.11c-1.32.53-1.9.35-2.64-.87-.27-.44-.39-1.15-.76-1.33-1.28-.61-2-1.82-3.19-2.54-1.52-.93-1.49-1-.75-2.61.21-.47.34-.86-.41-1-1.78-.27-2.37-1-2-2.79.21-1.06,0-1.19-1-1.25-1.87-.12-3-1.77-2.23-3.18.54-1.07.54-1.07-.65-1.33-1.92-.43-2.56-1.38-2.19-3.3.1-.51-.05-.75-.59-.68a7.93,7.93,0,0,1-.84.07,2.8,2.8,0,0,1-3.16-2.67c-.13-.86-.58-.7-1.12-.39-2.15,1.23-4.24,2.63-6.89,2.51a1.11,1.11,0,0,0-.51.1,3.11,3.11,0,0,1-2.55-.18c-.75-.31-.86-.77-.38-1.39a20.38,20.38,0,0,1,1.76-1.95,38.06,38.06,0,0,1,3.6-3,.84.84,0,0,0-.91.11,22.87,22.87,0,0,1-3.45,1.49,1.33,1.33,0,0,1-1.58-.46c-.48-.53-.18-.92.08-1.31a12.52,12.52,0,0,1,4.15-3.47,28.29,28.29,0,0,1,7.55-3,10,10,0,0,0-1.93-.17,27.6,27.6,0,0,0-3.74.53,15.46,15.46,0,0,0-4.16.52,3.12,3.12,0,0,1-1.46,0,1.66,1.66,0,0,1-1.44-1.07c-.23-.64.38-1,.79-1.23a18.62,18.62,0,0,1,4.95-2.26,26.26,26.26,0,0,1,9.71-.77,4.78,4.78,0,0,0,2.51-.18A34.18,34.18,0,0,1,84.3,237a18.78,18.78,0,0,1-2.52-.68c-1.88-.78-3.89-1.07-5.82-1.68a30.38,30.38,0,0,1-5.63-2,1.42,1.42,0,0,1-.81-1.45,1.34,1.34,0,0,1,1.08-1.28c1.58-.24,3.14-.87,4.78-.42a5.36,5.36,0,0,0,2,.23,14.52,14.52,0,0,1,5.58.82,44.34,44.34,0,0,1,9,3,.87.87,0,0,0,1.17-.19l-.56-.39c-2.89-2.16-5.68-4.45-8.71-6.4-2.33-1.5-4.64-3-7-4.55-.41-.28-.87-.65-.7-1.19a1.39,1.39,0,0,1,1.26-1,4.21,4.21,0,0,1,2.28.28c1.41.73,3,1.09,4.4,1.71a42.58,42.58,0,0,1,8.54,4.46c2.08,1.49,4.06,3.12,6.06,4.71s5,2.09,7.08,3.81c.14.11.36.16.46,0a.64.64,0,0,0-.21-.76.94.94,0,0,1-.07-1.41,1.58,1.58,0,0,1,1.66-.63,14.08,14.08,0,0,1,6,3.92c3.16,3.2,4.9,7.29,6.77,11.28a23.71,23.71,0,0,0,3.7,6.3,71.37,71.37,0,0,0,7.28,6.63c1,.82,2,1.48,3.42.75a4.52,4.52,0,0,1,1.67-.14c.38,0,.84.07,1.14-.1a10.13,10.13,0,0,1,4.54-1.4c.5,0,.64-.35.41-.83-.66-1.33-.28-2.07,1.21-2.25.91-.11,1.83-.05,2.74-.09.56,0,1.38.28,1.6-.14s-.3-1.12-.64-1.65a1.34,1.34,0,0,1,1-2.16,3.49,3.49,0,0,1,2.24.4c.27.16.57.46.86.25s0-.64-.06-1c-.4-1.33-1.12-2.57-1-4a1.57,1.57,0,0,1,.73-1.42c.57-.29,1,.1,1.43.41a13.41,13.41,0,0,1,2.82,2.67.74.74,0,0,0,.08-.83c-.74-1.66-.33-3.46-.56-5.19a1,1,0,0,1,.56-1.14,1.26,1.26,0,0,1,1.41.44c.6.69,1.12,1.43,1.65,2.16s.65,1.81,1.6,2.48v-1.93a23.81,23.81,0,0,1,.16-3.68,1.24,1.24,0,0,1,.71-1.08c.52-.23.91.11,1.23.39a3.68,3.68,0,0,1,.88,1.16,11.21,11.21,0,0,1,1.26,4.61c0,.32-.09.71.33.94.24-.22.21-.51.25-.78a25.21,25.21,0,0,1,1.27-5.48c.27-.69.69-1.29,1.53-1.18a1.48,1.48,0,0,1,1.23,1.4,12.27,12.27,0,0,1-1,7.77,1,1,0,0,0,0,1.2,18.73,18.73,0,0,0,2.27-3.72c.74-1.38,1.5-2.76,2.11-4.22.2-.48.52-1,1.23-1a1.28,1.28,0,0,1,1.19.91A5.38,5.38,0,0,1,175,246a26.67,26.67,0,0,1-5.66,8.85c-.27.27-.6.55-.53,1a6.93,6.93,0,0,1,2.56-1.07c.42,0,.89-.06,1.12.4s0,.79-.28,1.14c-1.66,2.16-4.08,3.27-6.34,4.58-1.38.8-2.81,1.48-4.34,2.29a27,27,0,0,1,4.13,2.27,18.42,18.42,0,0,1,4.87,6.08c.22.43.69.77.61,1.31-.18,1.13.48,1.76,1.22,2.48,1.33,1.27,2.66,2.76,2.06,4.74a9.83,9.83,0,0,1-3.49,4.63c-.72.58-1.08.38-1.23-.56a5.94,5.94,0,0,1,0-.73,2.8,2.8,0,0,0-1.21-2.31c-2.48-2-5.49-2.6-8.46-3a11.19,11.19,0,0,0-6.43.48,11,11,0,0,0-4.53,3.61c-2.22,3.21-4.27,6.51-7.57,8.75-.58.39-.36.6.1.88a17.06,17.06,0,0,1,2.67,2.05,49,49,0,0,0,8,6.1,3.31,3.31,0,0,0,3.84.19c.41-.27.74-.64,1.15-.91.9-.59,1.79-1.36,3-.8a11.33,11.33,0,0,0,1.88.66c.9.25,1.73.68,1.87,1.76.26,2.08,1.52,3.85,1.83,5.91a.31.31,0,0,0,.05.1c1.37,1.95.55,3.66-.64,5.29-.24.33-.54.88-1.08.65s-.36-.79-.28-1.22a3.38,3.38,0,0,0-1.24-3.65c-.41-.32-.55-.3-.8.06a3.5,3.5,0,0,0-.51,1.38,1.17,1.17,0,0,1-.6.92c-.63.32-1.22.71-1.84,1-.78.41-1.14.2-1.14-.67,0-.31-.22-.41-.38-.58a7.36,7.36,0,0,0-1.46-1,3.76,3.76,0,0,1-2-3.22c0-1-.59-1.38-1.46-1.46a11.34,11.34,0,0,1-2.39-.38c-.49-.16-.83.11-1.25.34-1,.55-1.55,1.68-2.68,1.95a5.22,5.22,0,0,0-2,1.17c-.2.16-.41.32-.25.61s.41.23.66.2a4.16,4.16,0,0,0,2.2-1.15c1.36-1.13,2.73-1.43,3.83-.7a18.76,18.76,0,0,1,2.14,1.86c1.47,1.32,2.31,3.14,3.59,4.61s1.3,3.35,1.13,5.19c0,.62-.42,1.25-1,1.28s-.49-.71-.63-1.15c-.52-1.62-.82-3.36-2.73-4.09a1.76,1.76,0,0,1-1-1.13,4,4,0,0,0-1-1.59c-.52-.59-1.07-1.24-2-1.13-.32,0-.64.08-.74.46s.1.52.34.71a4.86,4.86,0,0,1,1.74,2.55c.17.64.55,1.21.74,1.85a1.14,1.14,0,0,0,1.16.9c.35,0,.77,0,.85.45a.9.9,0,0,1-.57,1,1.59,1.59,0,0,0-1,1.48,2.08,2.08,0,0,1-.25.8c-.19.32-.37.74-.81.76s-.54-.45-.62-.74a3.68,3.68,0,0,0-2.21-2.33,6.5,6.5,0,0,1-2.45-1.92,5.71,5.71,0,0,1-1.09-1.9c-.58-2-2.61-2.27-4-3.35-.2-.16-.43.11-.64.24a15,15,0,0,1-2.92,1.62,4.27,4.27,0,0,0-2.11,1.27c-1.17,1.36-3,1.54-4.4,2.55a.26.26,0,0,1-.21,0,1.53,1.53,0,0,0-1.69.48c-.45.48-1.1.14-1.19-.55a3,3,0,0,1,0-.84c.14-1.13.1-2.18-1-2.87-.42-.25-.43-.7-.43-1.13a23,23,0,0,0-2.57-9.74c-.18-.4-.46-.81-.91-.76a1,1,0,0,0-.83.86,4,4,0,0,1-.86,1.67,3.63,3.63,0,0,0-.65,2.6,51.25,51.25,0,0,1,.14,5.26,7.52,7.52,0,0,1-3.16,6.42c-1.35,1-1.87,1-3.07-.16a1,1,0,0,0-1.62-.08,11.75,11.75,0,0,1-5.21,2.34,16.82,16.82,0,0,0-3.24.87,1.47,1.47,0,0,1-2-.36c-.52-.66-.9-.56-1.66-.26-1.12.44-2.26,1.27-3.6.79a2.06,2.06,0,0,0-1.3,0c-.87.22-2.08.6-2.56-.23-.73-1.27-1.3-1.05-2.15-.32-.12.11-.41,0-.5.14-.49.59-1.65.16-1.84,1.19Zm74.8-18.36c.31-.4.12-.57-.3-.6a4.73,4.73,0,0,0-2.82,1c-.65.4-.25,1.59.64,2.05a6.46,6.46,0,0,1,1.28.58A4,4,0,0,1,160.18,303.72Z" transform="translate(-0.29)"/><path class="cls-4" d="M471,211.53a.86.86,0,0,0-.92-.58,4.45,4.45,0,0,1-2.16-.72,1,1,0,0,1-.64-.78c-.05-1-.67-1.12-1.51-1.1a44.88,44.88,0,0,1-4.64,0,7.75,7.75,0,0,1-4-1.35c-.59-.43-.58-.84-.1-1.39a27.52,27.52,0,0,0,3.3-4.06,9.23,9.23,0,0,0,1.61-4.36c0-1.58.74-3,.94-4.62s.66-2.92,1-4.39a6.19,6.19,0,0,1,.62-2.09,1.26,1.26,0,0,0-.36-1.68,35.32,35.32,0,0,1-3.14-3.1,36.93,36.93,0,0,1-4.36-7,20.27,20.27,0,0,1-1.73-4.65,17.78,17.78,0,0,1-.78-4.2c0-3.2-.92-6.31-.77-9.51.06-1.37-.16-2.74-.08-4.1.23-3.6-2.55-6.5-5.61-7.45a8,8,0,0,1-5.05-3.68c-.47-.87-1.64-1.18-1.93-2.18-.76-2.65-1.64-5.28,0-8,.76-1.28,2-1.54,3.2-2,2.45-.9,5.09-1.1,7.59-1.9a8.69,8.69,0,0,1,5.4.18,7.51,7.51,0,0,0,1.76.34,6.56,6.56,0,0,1,5.6,4.63,10.22,10.22,0,0,0,1.12,3.34,5.27,5.27,0,0,1,.34,4.38,8,8,0,0,0-.23,1.45,113.36,113.36,0,0,0-.57,14.27c0,.16,0,.35.23.49a6.3,6.3,0,0,1,.83-1.53,1.39,1.39,0,0,1,1.55-.62,1.53,1.53,0,0,1,1.2,1.19,5.27,5.27,0,0,0,.18.71c.54,1.29.59,1.31,1.59.36a10.23,10.23,0,0,1,2.95-1.57c1.8-.85,3.74-1.39,5.56-2.14s3.47-1,5.17-1.63a1.64,1.64,0,0,1,.93,0,.93.93,0,0,0,.82-.08c1.39-1.14,3.11-1.17,4.73-1.62,2.47-.69,4.94-.46,7.4-.66a42,42,0,0,1,5.37.18,5.84,5.84,0,0,1,2.2.91,1.62,1.62,0,0,0,.87.31c2.58-.33,4.59,1.11,6.65,2.25a37.34,37.34,0,0,1,6.85,4.64,6.93,6.93,0,0,1,2.27,2.68,1.28,1.28,0,0,0,.54.63c2.68,1.57,4.07,4.26,5.76,6.67a34.59,34.59,0,0,1,3.36,6.37,8.89,8.89,0,0,1,.92,3c.6-.37.53-.9.82-1.26.84-1.06,1.55-1.39,2.38-.93a2.44,2.44,0,0,1,1.17,2.86,26.39,26.39,0,0,1-2.29,5.87,1.39,1.39,0,0,0,.31,1.65,24.76,24.76,0,0,0,5.43,4.45c.55.36,1.45.61,1.22,1.49s-1.12.73-1.8.74c-2,0-4,.06-6,0a11.46,11.46,0,0,0-3.91.64c-.37.12-.53.24-.41.67a11.32,11.32,0,0,0,2.88,4.78,20.37,20.37,0,0,1,4.42,6.07c1,2.43.73,4-2.43,4.95s-6.64.34-9.93.82c-.46.07-.9.1-1.19.55a4,4,0,0,1-3.57,1.83c-.64,0-1.36-.08-1.81.6h-9.29c-.28-.55-.85-.45-1.31-.51a11.07,11.07,0,0,1-3.59-.67c-.95-.46-1.2-1-.66-1.9.25-.42.56-.8.8-1.23a6.46,6.46,0,0,0,1-2.15,29.2,29.2,0,0,1,.92-5.24c.38-1.05.14-1.31-1-1.35s-2.4.45-3.65.44c-3.45,0-6.87-.65-10.32-.49a3.4,3.4,0,0,1-.82-.16c-1.74-.37-3.47-.77-5.22-1.09-1.07-.19-1.35.27-.95,1.32a17.37,17.37,0,0,1,1.37,8c-.18,2-1.25,3-2.83,3.92-.82.47-1.94.18-2.5,1.13Z" transform="translate(-0.29)"/><path class="cls-12" d="M87.64,290.38s-1.73,3.67-3.13,4.77l-.56.05a45.87,45.87,0,0,0-1.63,6.09,8.84,8.84,0,0,1-.79-1,20.87,20.87,0,0,1-.38-3.75l-.55,2.12a6.64,6.64,0,0,1-.59-2.75s0-.51,0-.51-3.34.5-1.67,1.16a7.46,7.46,0,0,0-3.87,5,13.32,13.32,0,0,0-.4,2.58,37.34,37.34,0,0,1-2.93,19.38c-.59,4.94-1.59,7.45-4.56,10.72a11.6,11.6,0,0,1-3.55,2.6c-.78,2.28-1.43,4.73-1.9,6.55a78.48,78.48,0,0,0-.82,17.17c0,.59,1.24,1.46,1.11,3H58.1c-.56,0-1.16-3.06-1.41-8.15-.27-5.5-.58-9.72-.67-11.26,0-.4-.05-.82-.1-1.25-1.07,3.69-1.8,12.94-1.5,17.69,0,.59,1.13,1.41,1,3H52.07c-.57,0-1-3.06-1.09-8.15-.14-4.72-.27-8.57-.14-11.7a37.41,37.41,0,0,0-.29-4.66c-4.17,0-8.79-.28-13.65-.63-2.43-.17-4.88-.49-7.32-.67a23.35,23.35,0,0,0-2.16,2.68A29.09,29.09,0,0,0,24.06,348c-.85,2.48-.45,7.26.78,12.6.13.59,1.42,1.44,1.25,3H22.42c-.77,0-1.18-3.06-2.16-8.15-.91-4.72-1.06-6.43-.91-8.15s.15-3.59.29-6.61c-.3.23-.59.48-.89.76a32.28,32.28,0,0,0-5.86,7.41c-1.42,2.4-1.66,6.43-1.29,11.77,0,.59,1,1.39,1,3H9c-.71,0-.89-3.06-1-8.15-.14-4.72-.16-6.45.4-8.15.72-2.19,2-4.37,2.82-8.33.4-1.82-.32-5.89-.65-10.16-.05-.34-.09-.68-.13-1a10.84,10.84,0,0,1,1-13l-3.18,2.1a4.43,4.43,0,0,1-3.75-3.28c2,.26,7.69-.86,10.31-1.42a10.73,10.73,0,0,1,3.93-1.07c8.29-2.87,20.87-.19,29.51-.38a12.14,12.14,0,0,0,3-.41,9.59,9.59,0,0,0,2.47-1c.89-.27,3.88-3.19,4.75-5,1.46-3.1,3.59-7.22,6.73-12.65a7.7,7.7,0,0,1,1-4.26,8.1,8.1,0,0,1-3-1.59s-1-1.07,2.46-2a6.26,6.26,0,0,1,4.26.27,9.12,9.12,0,0,1,1-.35,13.07,13.07,0,1,0-23.64-11.17,16,16,0,0,1,30.32,2,16.82,16.82,0,0,1-.3,10.22C79.67,285.91,84.92,288.32,87.64,290.38Z" transform="translate(-0.29)"/><path class="cls-12" d="M53.58,309.34a9.59,9.59,0,0,1-2.47,1A13.13,13.13,0,0,1,53.58,309.34Z" transform="translate(-0.29)"/><path class="cls-13" d="M608.84,60.43a52.08,52.08,0,0,1-.34-8.86,61,61,0,0,0-1.72,16A162.27,162.27,0,0,1,606,86c-.19,1.8-.41,3.19-.61,4.29,0,.27-.1.52-.15.77s-.06.32-.1.47a0,0,0,0,0,0,0,.34.34,0,0,1,0,.1,3.15,3.15,0,0,0-.09.42c0,.11,0,.22-.07.33a.8.8,0,0,0,0,.15c0,.22-.09.43-.12.61a5.36,5.36,0,0,0-.12,1,3.44,3.44,0,0,0,.07.7s0,0,0,0a1.27,1.27,0,0,0,.11.37s0,0,0,0a.4.4,0,0,0,.09-.13,6.88,6.88,0,0,0,.46-1.5c0-.2.08-.43.13-.68s.12-.67.17-1,.09-.49.13-.73.06-.37.08-.55a.57.57,0,0,0,0-.18c.29-1.81.55-3.68.82-5.63s.54-3.91.86-6a79.73,79.73,0,0,0,.52-9.29,49.34,49.34,0,0,1,.54-8.42c.06-.25.12-.51.17-.76A.9.9,0,0,1,608.84,60.43Z" transform="translate(-0.29)"/><path class="cls-13" d="M751.52,73.21s0,0,0,0c.14-.44,0-7.81-.07-8.1-.1-1.3-.33-4.28-.35-4.35-.21-.71-.3-4.89-.41-5.33-.61-2.4-2.43-6.6-2.73-11.7-.18-3.06-1.79-8.41-4.17-12.85-.52-3.27-1.29-6.28-3.32-8-3.41-2.95-6.94-9-6.94-9s-3.86-6.47-9.77-6-12.72,4-17.6,4.09S695.72,11,692,11.32s-3.87,1-9.43.46-30.67-1.7-44.76,5.12-26.35,16-29,31.35a27.93,27.93,0,0,0-.32,3.32,52.08,52.08,0,0,0,.34,8.86.9.9,0,0,0,0,.09,58,58,0,0,0,3.8,6.58c1.14,1.37,5.22,18.75,5.22,23s-1.82,18.63-2.61,22.38-2.73,7.5,3.86,8.29,12.84,0,12.72-2-3.06-4.89-3.29-9.31c-.21-4.09,1.41-13.88,1.67-15.38a.53.53,0,0,1,.19-.32c.56-.47,2.62-2.2,2.91-2.48,0,0,0,0,0,0a.53.53,0,0,1,.89.4c0,2.34-.09,8-.45,11.2-.45,4.1-.57,15.11.35,15.91s12.72,1.82,15.79.34.33-4-1.14-6.93-3.63-9.43-2.73-15.68A20.71,20.71,0,0,1,652,84c2.16-2.16,4.07-6.27,4.54-7.35a.55.55,0,0,1,.42-.3c.58-.09,2.24-.28,7-.76,6-.6,13-3.51,14.57-4.17a.5.5,0,0,1,.57.1,14.57,14.57,0,0,1,3.6,5.55c1.36,3.75,0,27.26-.45,31a20,20,0,0,1-.77,4.23.67.67,0,0,1-.06.12c-.36.46-3.6,5-1.44,6.79s9.17,3,11.45,1.94,5.34-.09,4.78-3.59c-1-6.19-3-7-1.39-12.57,1.1-3.87,2.89-9.67,3.88-12.83a.52.52,0,0,1,1,.09l2.5,18.06a.6.6,0,0,1,0,.29c-.48,1.06-3.46,8-.73,8.84,3,.9,14.53,1.81,15.33-1.14s-3.29-4.09-4.2-11.59.11-24.88-.23-26.81-1.76-19.52-1.81-20.2a.06.06,0,0,0,0,0l-.63-3.8a.53.53,0,0,1,.15-.46l5.5-5.29a.53.53,0,0,1,.79.05c.7.89,2.41,2.74,4.64,2.82,3,.11,8.07,2.84,8.87,4.88s2.68,2.26,3.22,1c.19.09.4.17.64.26,2.05.76,2.54-.15,6.18,4.64.82,1.08.89,2.54,1.17,3.84.2.94.43,1.86.58,2.81a188.81,188.81,0,0,1,1.84,19.44c.25,4.21.41,8.41.59,12.61.09,2.07.42,4.51-1.71,5.72-.71.4-1.28-.31-1.83.39-1.08,1.4,1.08,2.14,0,3.71-.92,1.27-.8.11-.85,1.65,0,.74.92,1,1.61,1.07,4.07.71,7.22-2.41,8.75-5.53C751.71,105.92,751.83,87.58,751.52,73.21ZM732,34.93A5.45,5.45,0,0,1,735,36c.09,2.1-2.1.91-3-.09S730.38,34.93,732,34.93Zm-15.8-16.45A11.67,11.67,0,0,0,713.45,17a6.48,6.48,0,0,0-4,.08,14.64,14.64,0,0,0-4.22,2.42,17.41,17.41,0,0,0-3.59,4.09A26.13,26.13,0,0,0,699,28.78c-.6,1.85-1.29,3.9-.66,5.82a8.66,8.66,0,0,0,3.56,4.62,3.88,3.88,0,0,1,1.1,1.11,6.68,6.68,0,0,1,.65,1.38,19,19,0,0,1,.67,2.86c.17,1,.33,1.87.53,2.77a1.93,1.93,0,0,0,.47,1.11c.27.16.73-.05,1.09-.24a18.12,18.12,0,0,0,3.81-3,9.87,9.87,0,0,0,2-3.56l1-3.07c.52-1.71.9-1.58.57.19-.17.89-.38,2-.62,3.19a10.16,10.16,0,0,1-1.93,4.16,17,17,0,0,1-1.8,1.9,16.68,16.68,0,0,1-2.22,1.73,4.76,4.76,0,0,1-.9.43,2.57,2.57,0,0,1-.78.13,2.67,2.67,0,0,1-.56-.06,3.14,3.14,0,0,1-.61-.25,2.7,2.7,0,0,1-1.06-1.35,7,7,0,0,1-.28-.86c-.27-.92-.46-1.92-.66-2.83a17.63,17.63,0,0,0-.69-2.52,4.24,4.24,0,0,0-.48-.89l-.15-.2-.14-.12,0,0-.29-.22A15.24,15.24,0,0,1,698,38.62a9,9,0,0,1-1.85-3.45,7.72,7.72,0,0,1-.19-.85,11.31,11.31,0,0,1-.12-1.14,12.34,12.34,0,0,1,.19-1.89,20,20,0,0,1,.93-3.26,25.49,25.49,0,0,1,3-5.58,20.15,20.15,0,0,1,1.93-2.37c.33-.36.76-.73,1.14-1.08s.66-.52,1.13-.89A14.91,14.91,0,0,1,709,15.74a7.25,7.25,0,0,1,4.74.3A11.73,11.73,0,0,1,716.57,18c1.4,1.21,1.61,2.1,1.26,1.77A14.67,14.67,0,0,0,716.22,18.48Z" transform="translate(-0.29)"/><path class="cls-14" d="M605.67,90.4s1.06.3,1.28,2.44.61,9,.61,9" transform="translate(-0.29)"/><path class="cls-14" d="M606.08,90.8s.23,2,.42,3.43.5,8.53.5,8.53" transform="translate(-0.29)"/><path class="cls-14" d="M605.82,90.33a10.85,10.85,0,0,0-.05,2.61c.09,2.13-.1,5.32,0,6.57s.06,3.25.06,3.25" transform="translate(-0.29)"/><path class="cls-14" d="M605.94,90.54s-1.07.39-1.15,2.87,0,4.8-.09,6.2a28,28,0,0,0-.07,3.26" transform="translate(-0.29)"/><path class="cls-14" d="M605.43,90.29s-1.23-.12-1.62,2.69a34.85,34.85,0,0,0-.44,5.36c0,1.22,0,2.94,0,2.94" transform="translate(-0.29)"/><path class="cls-14" d="M606.35,102.89s-.21-4.24-.22-6,.19-6,.19-6,.42,2.35.6,4.94c.17,2.38.41,6.33.41,6.33" transform="translate(-0.29)"/><path class="cls-14" d="M604.55,102.56s.05-4.25.26-6,.87-6.42.87-6.42.15,2.92,0,5.57c-.13,2.45-.37,7.07-.37,7.07" transform="translate(-0.29)"/><path class="cls-14" d="M605.05,102.86s0-5,.19-7.11.58-5.42.58-5.42a6,6,0,0,0-1.6,3.39A36.73,36.73,0,0,0,604,98c0,1.6-.23,4.42-.23,4.42" transform="translate(-0.29)"/><path class="cls-14" d="M605.57,90.5a15,15,0,0,0-1.33,5.89,16.44,16.44,0,0,1-.52,5" transform="translate(-0.29)"/><path class="cls-14" d="M606,90.75c.6,2.12.45,1.76.62,4.51.2,3,.14,7.21.14,7.21" transform="translate(-0.29)"/><path class="cls-14" d="M605.73,90.49s-.68,3.06-1,5.72-.59,6.08-.59,6.08" transform="translate(-0.29)"/><path class="cls-14" d="M605.62,90.21a25.42,25.42,0,0,0-1.27,5.44c-.48,2.8-.88,5.79-.88,5.79" transform="translate(-0.29)"/><path class="cls-15" d="M605.56,90.18s-.64.29-1.06,1.61a41.29,41.29,0,0,0-1.16,5.31c-.08.85-.13,4.34-.13,4.34" transform="translate(-0.29)"/><path class="cls-14" d="M605.81,90.25a47.82,47.82,0,0,1,0,6.77,25.27,25.27,0,0,0-.27,5.8" transform="translate(-0.29)"/><path class="cls-16" d="M337.65,152.13c-.89-.76-2.85-1.74-3.37-2.36-.73-.87-.3-1.91-1.47-2.11-.69-.12-1.17-.08-1.34.15a5.63,5.63,0,0,0-5.25,2c-3.31,4-3.08,11.82-3,17.12.33,13.92-4.22,10.22-10.68,17.22A13.49,13.49,0,0,1,301,188.6c-3.76-.26-5.22-1.31-.62,3.74,4.44,4.86,8.09,7.65,11.2,9a11.28,11.28,0,0,0,4.48,1c.14,4.54.09,7.27.93,7.27h11.06c.13-.32-.33-.79-1.14-1s-4.71-.34-4.75-.87a32,32,0,0,1,.19-7.31c-1,.46-1.94,1-2.95,1.34,0,.14,0,.28,0,.43.09,2.63.11,4.66.26,5.93-.51-.11-.86-.23-.87-.39a37,37,0,0,1,0-5.77c-.55.17,4.78-2.87,5.15-3.19.89-.77,3.61-3.46,4.09-3.95,11.95-12,1.76-15.8.2-28.11-.83-6.54-1.2-10,.41-11.67a1.73,1.73,0,0,1,.47-.32,6.42,6.42,0,0,1,.94-.42c1.39-.53,3.28-1,3.7-1.15,1.33-.43,2.23-.09,3.59-.06C337.8,153.12,338.45,152.82,337.65,152.13ZM327.59,180.3h0a7,7,0,0,1,1.11,2.36c.72,2.93-1.21,6.56-3.53,8.25a13.67,13.67,0,0,1-3.82,1.86c-3.05.94-6.42,1.21-9.37-.25-.05,0-.59-.31-.37-.5,1.33-1.12,2.93-1.87,4.21-3.05a22.94,22.94,0,0,0,3.46-4.5c.17-.26.6,0,.42.25a23.78,23.78,0,0,1-3.45,4.53c-1.2,1.13-2.68,1.86-4,2.86a9.26,9.26,0,0,0,4.87.76,13.56,13.56,0,0,0,8.45-4.07,8.32,8.32,0,0,0,2.12-3.85,7.06,7.06,0,0,0-.63-4.56c-.14-.28.29-.53.42-.25A1,1,0,0,1,327.59,180.3Z" transform="translate(-0.29)"/><path class="cls-17" d="M150,26.81a11.71,11.71,0,0,0-3.21-.75c-3.23-.46-5.56-.61-7-2.71a14.75,14.75,0,0,0-7.55-5.42c-.4-.13-.44-.27-.37-.59.65-3.05,0-5.92-.82-5.41a40.91,40.91,0,0,0-5.11,4.73,2,2,0,0,1-1.38.56,14.12,14.12,0,0,0-1.85.39,10.23,10.23,0,0,0-7.57,7.74,1.54,1.54,0,0,1-.38.75c-1,1.19-3.52,1.89-4.62,5-.17.5-.28.93-.34,1.15s-.56.47-1.11,1.12c-1.59,1.91-3.61,3.77-5.39,4.31-4.77,1.46-9,1.51-16.11,1.38-2.85,0-11.19-1.22-20-.6a6.73,6.73,0,0,0,1.58-3.92c1.33-8.9-7.54-12.66-13.31-10.17-8,3.48-7.7,14.18-3.58,18.61-4.38,3.09-7.32,7.41-7.62,15.3a102.68,102.68,0,0,1-1.34,15.9c-.88,4.85-4.88,10.48-5.59,14.2-.87,4.49.36,15.9.89,17.22h8.27c.72-1.42,1-3.18-.61-4.06s-2.63-1.31-2.86-2.81.5-7.53,2-9.58A32,32,0,0,1,49.28,85c-.37,1.31-.71,2.59-1,3.82-.62,2.45,2,15.6,2.42,16.77h8c.78-1.45.91-3.36-.85-4.2-1.2-.58-2.34-.82-2.59-2.44-.15-.9-1-6.15-.42-8.61S61,82.84,65.93,78.21a36.48,36.48,0,0,0,8.35-11.16c9.22,5.16,16.39,8.12,29.63,8.74.26,7.34.6,15,1,22.2.18,3.5,1.93,7.6,2.3,7.6h6.91c.77-1.42,1.11-3.56-.9-4.45-1.59-.7-1.73-1.16-1.84-2.2a118.08,118.08,0,0,1,.92-14c.21-.42.48-2.83,1.41-6.62.26,7.16.75,15.07,1.17,20.53.31,4.05,2.19,6.74,1.81,6.74h6.19c.68-1,1.13-3.87-1.1-4.72-1.65-.61-1.7-1.65-1.81-2.7,0-.42.92-12.31,2.17-22,.22-1.66.56-3.49.92-5.29,3.68-3.51,6.66-9.07,7.51-16.93a36,36,0,0,1,2.25-8.16A20.12,20.12,0,0,1,137.86,38c1.09-.92,2.64-1.55,6.38-1.78,3.34-.21,5.41-3.92,6.15-7.42C150.62,27.72,150.63,27.24,150,26.81ZM61.66,37.15c-.77,2.67-1.36,3.25-3.51,5.24-.73.69,1.1-3.1,1.78-5a2.09,2.09,0,0,1-1.88-.57,4.71,4.71,0,0,1-1-3.07,4.31,4.31,0,0,1,1-3.05,1.74,1.74,0,0,1,2.66-.2,5.57,5.57,0,0,1,1.29,3A8.43,8.43,0,0,1,61.66,37.15Z" transform="translate(-0.29)"/><path d="M103,431.23a4.56,4.56,0,0,1,.2-1.3q.51-2.34,1.91-6.69a50.45,50.45,0,0,1,2.51-6.57,7.74,7.74,0,0,0,.71-1.62q.25-.84.33-1.11c.21-.78.34-1.23.39-1.36l-.07-.65a1.11,1.11,0,0,1,.13-.52,2.58,2.58,0,0,1,.46-.59,9.37,9.37,0,0,0,2-3.05l2.47-7.09.78-2.21c0-.17.13-.47.26-.91a3.62,3.62,0,0,0,.19-.91c0-.17,0-.26-.13-.26a11.84,11.84,0,0,1-2.08.2c-.52.09-.91.14-1.17.16a2.7,2.7,0,0,0-.58.1h-.46c-.82,0-1.23-.3-1.23-.91a6.34,6.34,0,0,1,.81-2.21,2,2,0,0,1,1.53-1.11l2.53-.58a7.67,7.67,0,0,1,1.63-.13,9.59,9.59,0,0,1,1.88.19c.52-.34.8-.65.85-.91a2.87,2.87,0,0,1,1.17-1.75,3.2,3.2,0,0,1,1.88-.65,2,2,0,0,1,1.3.42,1.53,1.53,0,0,1,.52,1.27,2.09,2.09,0,0,1-.06.58v.23c0,.11.13.16.39.16a27.39,27.39,0,0,0,3.83-.71c.35,0,.94-.1,1.79-.16s1.55-.1,2.11-.1a7.07,7.07,0,0,1,1.89.19,5.26,5.26,0,0,1,1-.13,4.42,4.42,0,0,0,.78-.06,2.79,2.79,0,0,0,1.36-.2,13,13,0,0,0,1.33.23,5.06,5.06,0,0,1,1.08.23,2.7,2.7,0,0,1,.58.32.85.85,0,0,1,.2.46.38.38,0,0,1-.07.26l-.13-.07a.73.73,0,0,1,.23.1,2.08,2.08,0,0,1,.36.29c.34.18.52.61.52,1.3a5,5,0,0,1-.26,1.56.83.83,0,0,1-.3.56,2.31,2.31,0,0,1-1.07.19c-.56,0-1.3,0-2.21,0a32,32,0,0,0-4.09-.33,58,58,0,0,0-7,.65,12,12,0,0,0-2.18.33l-1.27.32c-.22,0-.54.33-1,1a10.35,10.35,0,0,0-1.17,2.47,59.52,59.52,0,0,0-2.41,5.65l-1.56,3.64a10.91,10.91,0,0,0,3,.26q2.93,0,8.52-.52a12.78,12.78,0,0,1,3.44-.39,1.41,1.41,0,0,1,1,.82,3.32,3.32,0,0,1,.42,1.65,2.58,2.58,0,0,1-.26,1.17,1.75,1.75,0,0,1-.71.78q-1.37.85-5.66,1.3c-1.91.18-4.53.26-7.86.26a20.4,20.4,0,0,1-3.19-.13,1.57,1.57,0,0,0-.36.39,1.35,1.35,0,0,0-.22.78,73.5,73.5,0,0,0-3.29,7.61c-1.4,3.64-2.11,5.85-2.11,6.63a14.06,14.06,0,0,0-.71,2.66c0,.18-.11.42-.2.72a1.43,1.43,0,0,1-.26.58,1.16,1.16,0,0,1-1.3,1,1.82,1.82,0,0,1-1.43-.59A3.33,3.33,0,0,1,103,431.23Z" transform="translate(-0.29)"/><path d="M133.9,429.61a2.21,2.21,0,0,1-.32-1.82,30.86,30.86,0,0,1,1-5.14l.33-1.3a39.51,39.51,0,0,1,2-6.92,36.26,36.26,0,0,1,3.09-7,3.07,3.07,0,0,1,2.21-.65,2.57,2.57,0,0,1,1.82.52,1.52,1.52,0,0,1,.52,1.3q0,1.5-1.88,5.27l-.65,1.36a15.36,15.36,0,0,0-.75,1.56c-.2.48-.19.7,0,.65a14.77,14.77,0,0,1,3.48-3.38,29.85,29.85,0,0,1,3.8-2.66,7.42,7.42,0,0,1,1.17-.52,9.65,9.65,0,0,0,1-.39,5.85,5.85,0,0,1,2.66-.59,4.83,4.83,0,0,1,1.79.3,1.71,1.71,0,0,1,1,.87,1.12,1.12,0,0,0,.35.72,2.35,2.35,0,0,0,.43.32.26.26,0,0,1,.26.17.73.73,0,0,1,.06.22c0,.35-.3.8-.91,1.34a3.12,3.12,0,0,1-1.88.87,7.25,7.25,0,0,0-1.5.33,11.47,11.47,0,0,0-1.56.65l-1.69,1a31,31,0,0,0-3.74,2.18,20,20,0,0,0-3.08,2.76l-.95.91a6.07,6.07,0,0,0-1.07,1.37,5.94,5.94,0,0,0-.94,2.37,14.1,14.1,0,0,0-.49,2.37l-.26.78a3,3,0,0,1-.58,1,7.37,7.37,0,0,1-1,1,1.28,1.28,0,0,1-.84.33,2.29,2.29,0,0,1-1.5-.85A8.61,8.61,0,0,1,133.9,429.61Z" transform="translate(-0.29)"/><path d="M159.51,430.65a7.61,7.61,0,0,1-2.27-5.92,31.21,31.21,0,0,1,.19-3.31,15.54,15.54,0,0,1,1.27-4.29,24.13,24.13,0,0,1,3.12-5.33,12.46,12.46,0,0,1,4.65-3.84,12.66,12.66,0,0,1,2.07-.81,7.7,7.7,0,0,1,2-.23,8.48,8.48,0,0,1,4.32,1,6.2,6.2,0,0,1,2.34,2.21,4.65,4.65,0,0,1,.68,2.14v.52a8.85,8.85,0,0,1-.91,2.86,11.7,11.7,0,0,1-2.89,3.9,8,8,0,0,1-5.1,2,15.88,15.88,0,0,1-3-.29,12.79,12.79,0,0,0-1.85-.3,1.15,1.15,0,0,0-1.23.72,7.53,7.53,0,0,0-.27,2.4,3.9,3.9,0,0,0,1,2.54,3.49,3.49,0,0,0,2.38.71,4.73,4.73,0,0,0,1.82-.45,16.34,16.34,0,0,0,2.47-1.63,10,10,0,0,1,1.23-.91,2.22,2.22,0,0,1,1.11-.26,2.13,2.13,0,0,1,1.36.78,2.59,2.59,0,0,1,.85,1.5,6.16,6.16,0,0,1-1.44,2.34,12.8,12.8,0,0,1-3.37,2.79,8.61,8.61,0,0,1-4.49,1.24A8.51,8.51,0,0,1,159.51,430.65Zm10-13.85a9.25,9.25,0,0,0,2-1.65c.89-.89,1.35-1.51,1.39-1.86a1.29,1.29,0,0,0-.55-1.07,3.21,3.21,0,0,0-1.53-.55H170a4.58,4.58,0,0,0-2.44,1.4,15.2,15.2,0,0,0-2.76,3.21c0,.22.37.41,1,.56a8.17,8.17,0,0,0,2,.22A3.7,3.7,0,0,0,169.46,416.8Z" transform="translate(-0.29)"/><path d="M202.48,422.85c-.09.39-.28,1.22-.56,2.5a20.84,20.84,0,0,0-.48,2.89,3.92,3.92,0,0,0,.29,1.47,5.09,5.09,0,0,1,.29.87,1.83,1.83,0,0,1-.58,1.27,2,2,0,0,1-1.5.62,3.54,3.54,0,0,1-2.79-1.4A5.52,5.52,0,0,1,196,427.4a34.09,34.09,0,0,1,1.43-7.28c.08-.48.16-.83.22-1.07a2.26,2.26,0,0,0,.1-.62c0-.22-.06-.33-.19-.33a2.63,2.63,0,0,0-1.31.62c-.56.41-1.17.88-1.81,1.4l-1.63,1.36a48.67,48.67,0,0,0-4.35,3.58c-.31.22-1,.81-2.18,1.79a8.15,8.15,0,0,1-2,1.46,3.71,3.71,0,0,1-1.13-.42,7.33,7.33,0,0,1-1.63-1.08,1.92,1.92,0,0,1-.74-1.49,20,20,0,0,1,1.17-4.49,58.1,58.1,0,0,1,2.79-6.89,13.55,13.55,0,0,0,.46-1.95,5.47,5.47,0,0,1,.84-2.92,1.23,1.23,0,0,1,1.11-.65,3.24,3.24,0,0,1,2.43,1.3,4.25,4.25,0,0,1,1.14,2.86,14.28,14.28,0,0,1-1.5,5,6.88,6.88,0,0,0,.82-.68,11.44,11.44,0,0,1,1.66-1.2,30.38,30.38,0,0,1,3.31-2.31,16.54,16.54,0,0,0,1.56-.94,3.63,3.63,0,0,1,.42-.29.54.54,0,0,1,.23-.1c.13,0,.38-.14.75-.29a2.33,2.33,0,0,1,.87-.23,3.87,3.87,0,0,1,2,.68c.72.46,1.08.92,1.08,1.4,0,.13.15.36.45.68a4.1,4.1,0,0,1,1.11,3.22A34,34,0,0,1,202.48,422.85Z" transform="translate(-0.29)"/><path d="M211,431a8.45,8.45,0,0,1-1.4-4q.25-2.4.39-3.51c.48-2.12,1.07-4.63,1.79-7.51s1.14-4.47,1.26-4.78a1.11,1.11,0,0,1,1-.58,3.07,3.07,0,0,1,1.6.55,4.57,4.57,0,0,1,1.46,1.53,2.68,2.68,0,0,1,.52,1.62,26.15,26.15,0,0,1-1.3,5.72q-.91,3.26-1.17,4.62a12.55,12.55,0,0,0-.19,2.92,35.79,35.79,0,0,1-.52,4c-.18.74-.44,1.09-.78,1A3.27,3.27,0,0,1,211,431Zm8.29-25.16a1.88,1.88,0,0,1-.85-.39,3.42,3.42,0,0,1-1.72-1.1c-.72-.69-1.08-1.15-1.08-1.37a11.47,11.47,0,0,1,.13-2.24,9.16,9.16,0,0,1,.75-2.63,1.85,1.85,0,0,1,1.46-1.24,11.15,11.15,0,0,1,1.24.3c.52.15,1.11.35,1.76.61a9.89,9.89,0,0,1,1.23,4.23,3.68,3.68,0,0,1-2.53,3.64A.57.57,0,0,1,219.25,405.88Z" transform="translate(-0.29)"/><path d="M254.54,428.7a1.75,1.75,0,0,1-.45,1.17c-.31.35-.57.52-.78.52a9.67,9.67,0,0,1-3.48-.75c-1.28-.5-1.92-1.22-1.92-2.18v-4c0-1.73-.15-2.73-.45-3-.65-.34-1.52.15-2.6,1.47a50.41,50.41,0,0,0-4,5.88,11.78,11.78,0,0,1-1.56,2,1.8,1.8,0,0,1-1.17.61,1.19,1.19,0,0,1-.78-.26c-1.34-.39-2-1.14-2-2.27a5.41,5.41,0,0,1,.13-.85c.39-1.34.81-2.83,1.26-4.48s.82-3.06,1.08-4.23a.68.68,0,0,0-.65-.39,2.59,2.59,0,0,0-1.5.65c-.17.13-.49.34-.94.62a7.42,7.42,0,0,0-1.37,1.11A9.75,9.75,0,0,0,232,422.2c-.18.3-.48.76-.91,1.36a48,48,0,0,1-4,5.59,4.49,4.49,0,0,1-.62,1.27.85.85,0,0,1-.68.36,1.57,1.57,0,0,1-.65-.2,5,5,0,0,1-2-1.65,4.38,4.38,0,0,1-.75-2.57,25.4,25.4,0,0,1,.59-3.9q.58-2.93,1.3-5.46a11.61,11.61,0,0,0,.81-2.18,7.94,7.94,0,0,0,.29-1.59,32.41,32.41,0,0,1,.78-3.35,7.07,7.07,0,0,1,.85-2.31,2,2,0,0,1,1.43-.39,3.7,3.7,0,0,1,1.36.26,1.7,1.7,0,0,1,.91.78,4,4,0,0,1,.85,2.67,9.61,9.61,0,0,1-.65,3.31c-.44,1-1,2.45-1.63,4.36l.13-.13a53.61,53.61,0,0,1,4-4.94,8.7,8.7,0,0,1,2.63-2,5.9,5.9,0,0,1,2.38-.71,4.26,4.26,0,0,1,2.63,1.53,6.41,6.41,0,0,1,1.33,3.47,16.64,16.64,0,0,1-.13,1.92c-.09.76-.15,1.25-.19,1.46.17-.21.61-.74,1.33-1.59a25,25,0,0,1,2.63-2.63,4.45,4.45,0,0,1,2.67-1.11,2.43,2.43,0,0,1,1.82.85,5.59,5.59,0,0,1,2.24,2.73,10.8,10.8,0,0,1,.81,4.29,10.64,10.64,0,0,1-.06,1.3,8.66,8.66,0,0,0-.07,1.3,7.31,7.31,0,0,0,.2,1.72c.13.54.26,1,.39,1.46A2.22,2.22,0,0,1,254.54,428.7Z" transform="translate(-0.29)"/><path d="M259.93,430.39a5.44,5.44,0,0,1-1.82-2.67,6.33,6.33,0,0,1-.13-1.1,15.58,15.58,0,0,1,1.63-6.14,27.48,27.48,0,0,1,4.39-6.8,17,17,0,0,1,6.07-4.61,2.5,2.5,0,0,1,3.51,0,10.57,10.57,0,0,1,2.08.71,4.22,4.22,0,0,1,1.43,1.24,14.11,14.11,0,0,1,1.24,4.16,8.26,8.26,0,0,1,.39,1.95,1.24,1.24,0,0,1-.39.91l-.23.26a.56.56,0,0,0-.16.29c0,.07,0,.1.13.1a1.19,1.19,0,0,1-.07.29,3.65,3.65,0,0,1-.26.62,13.79,13.79,0,0,0-.78,3.83,6.32,6.32,0,0,0,.13,1.11c.44,1.13,1,1.69,1.63,1.69a3.21,3.21,0,0,0,2.08-1.17,3.52,3.52,0,0,1,1.95-.65c.39,0,.58.11.58.32a2,2,0,0,0,.26.2.67.67,0,0,0,.39.13c.18,0,.26.19.26.58A5.52,5.52,0,0,1,284,427a5.16,5.16,0,0,1-.56,1.36c-.3.31-.54.57-.71.78a1,1,0,0,0-.26.52l-1,.91a5.67,5.67,0,0,1-2.92.72,4.86,4.86,0,0,1-2.8-.72,10.09,10.09,0,0,1-2-1.78,6.09,6.09,0,0,1-1.17-1.92l-.32-.65-1.89,1.23-1.62,1.69c-.35.44-.65.65-.91.65h-.65c0,.31-.61.68-1.82,1.11a9.27,9.27,0,0,1-2.86.65Q261.49,431.82,259.93,430.39Zm7-5.95a17,17,0,0,0,3-2.63c.18-.22.4-.53.69-.94a7.75,7.75,0,0,1,.74-.95,19.47,19.47,0,0,0,1.53-2,2.63,2.63,0,0,0,.49-1.46,3.43,3.43,0,0,0-.46-1.43q-.26-.78-.78-.78a7.21,7.21,0,0,0-1.49.45,11.18,11.18,0,0,0-2.89,2.93,37,37,0,0,0-2.9,4.48,8.35,8.35,0,0,0-1.23,3.32.67.67,0,0,0,.13.39,2.56,2.56,0,0,0,.19.26C264.44,426.1,265.43,425.55,266.92,424.44Z" transform="translate(-0.29)"/><path d="M288.21,433.51a2.65,2.65,0,0,1-2.28-1.56,7.85,7.85,0,0,1-.91-4,12.48,12.48,0,0,1,.26-2.53,8.94,8.94,0,0,0,.72-2.73,30.18,30.18,0,0,1,1.33-4.45c.76-2.15,1.25-3.44,1.46-3.87.18,0,.33-.14.46-.42a2.27,2.27,0,0,0,.19-1,3.49,3.49,0,0,1,.23-1.2,2.43,2.43,0,0,1,.49-.88,2.83,2.83,0,0,1,.16-.71,2.87,2.87,0,0,0,.16-.72,1.51,1.51,0,0,1,.17-.48,1.68,1.68,0,0,0,.16-.56q1-2,3.64-9.06c1.73-4.7,2.6-7.32,2.6-7.84a1.47,1.47,0,0,1,.39-1,1.18,1.18,0,0,1,.91-.46,1.65,1.65,0,0,1,.84-.29,8.42,8.42,0,0,1,1-.1l1,1a9.46,9.46,0,0,1,1.11,1.17,2,2,0,0,1,.39,1.24,6.64,6.64,0,0,1-.42,2.31q-.44,1.13-2.44,5.36c-.09.22-.43,1-1,2.34a7.61,7.61,0,0,0-.65,1.49,3.06,3.06,0,0,1-.26.82,11.15,11.15,0,0,0-.46,1.26c-.34.7-.9,1.92-1.65,3.68a20.82,20.82,0,0,0-1.14,2.89,1.41,1.41,0,0,1-.33,1c-.13,0-.21.1-.26.29a2.53,2.53,0,0,0-.06.42,15.5,15.5,0,0,1-1,3.45l-.59,1.88q-1.23,4.23-1.72,6.18a14.3,14.3,0,0,0-.49,3.31,5.24,5.24,0,0,1-.45,2.34,2.3,2.3,0,0,1-1,1.17A1.48,1.48,0,0,1,288.21,433.51Z" transform="translate(-0.29)"/><path d="M299.91,432.21a8.14,8.14,0,0,1-2.8-2.31,4.64,4.64,0,0,1-1-2.76c0-.74.31-1.11.91-1.11a3.87,3.87,0,0,1,1.37.72c.65.39,1.2.69,1.66.91a3.14,3.14,0,0,0,1.39.32,4.88,4.88,0,0,0,1.92-.35,1.44,1.44,0,0,0,.94-1.08,5,5,0,0,0-.26-1.13,8,8,0,0,0-.65-1.6,13,13,0,0,1-1.91-4.19,25.17,25.17,0,0,1-.62-4.78c0-1,.72-2.18,2.18-3.57a25.33,25.33,0,0,1,5.06-3.71,13.34,13.34,0,0,1,4.72-1.82c2.38,0,3.81.2,4.29.59a6.67,6.67,0,0,1,1.69,2.34,6.59,6.59,0,0,1,.78,2.73,2.36,2.36,0,0,1-.42,1.14l-.56.87-.58.91-.46,1c-.08.22-.22.54-.42,1a1.68,1.68,0,0,1-.52.78,1.08,1.08,0,0,1-.68.07,2.73,2.73,0,0,1-2-1A3.1,3.1,0,0,1,313,414a3,3,0,0,1,.59-1.69,3.81,3.81,0,0,0,.58-1c0-.17-.19-.26-.58-.26a7,7,0,0,0-2.6.85,11,11,0,0,0-3.12,2.24,4.34,4.34,0,0,0-1.37,3.09,7.45,7.45,0,0,0,.36,2.11,9.41,9.41,0,0,0,.81,2,11.49,11.49,0,0,1,1.53,3.09,12.05,12.05,0,0,1,1,4.06,3.92,3.92,0,0,1-1.72,3.45,8.45,8.45,0,0,1-4.78,1.17A8.13,8.13,0,0,1,299.91,432.21Z" transform="translate(-0.29)"/><path d="M353.43,431.23a8.94,8.94,0,0,1-2.11-1.49,11.73,11.73,0,0,1-1.43-5.72,26.18,26.18,0,0,1-4.22,5.26,10.15,10.15,0,0,1-3.58,2c-.35.13-.86,0-1.53-.46a3.2,3.2,0,0,1-1.26-1.23,6.59,6.59,0,0,1-.59-1.59,6.17,6.17,0,0,1-.19-2c-.26-2.68-.39-5.2-.39-7.54a15.15,15.15,0,0,1,.32-4,2.18,2.18,0,0,1-.06-.49v-.29a4.29,4.29,0,0,1-.2-1.63,16.94,16.94,0,0,1,.13-2.11,5.42,5.42,0,0,1,.26-1.33c0-.13.36-.33.94-.59s1.05-.45,1.4-.58c.65.13,1,.39,1,.78a1.3,1.3,0,0,1,.36.32.47.47,0,0,0,.49.2,3.69,3.69,0,0,1,.58,1.56,11.09,11.09,0,0,1,.33,2.6,3.94,3.94,0,0,0,0,.94c0,.37,0,.64,0,.81a1.37,1.37,0,0,1-.07.52c0,.87.07,2.06.2,3.58,0,.78,0,1.36-.07,1.75l-.06,1.82a8.83,8.83,0,0,1,.06,1.11V424c0,.17,0,.26.07.26s.1,0,.19-.13a3,3,0,0,0,1.07-1.14c.46-.67,1.16-1.83,2.12-3.48.34-.52.67-1,1-1.59s.52-.92.65-1.14c.48-.82.82-1.4,1-1.75.17-1.3.41-2.82.72-4.55a5.39,5.39,0,0,1,1.33-1,3,3,0,0,1,1.4-.39,1,1,0,0,1,1,.59,3.72,3.72,0,0,1,1.33,1.1,1.81,1.81,0,0,1,.49,1.43l-1,3.51a13.52,13.52,0,0,0-.52,2.67,28.38,28.38,0,0,0-.19,3.25,10.63,10.63,0,0,0,.26,2.4q.12.78.45.78a2.17,2.17,0,0,0,1.24-.71,22.35,22.35,0,0,0,2.69-3.51,8.08,8.08,0,0,0,1.34-2.6,2.83,2.83,0,0,1,.26-1.14,2.41,2.41,0,0,1,.65-.94,2.31,2.31,0,0,0,.39-.85,5.68,5.68,0,0,1,.26-.84l.16-.36.23-.55-.07-.2a1.12,1.12,0,0,1,.46-.74,2.16,2.16,0,0,0,.52-.62,1.5,1.5,0,0,1,.78-1.11,2.73,2.73,0,0,1,1.49-.45,1.84,1.84,0,0,1,1.33.52,2.24,2.24,0,0,1,.62,1.56,17.26,17.26,0,0,1-.68,4.13,13.58,13.58,0,0,1-2,4.38c-.09.18-.22.47-.39.88a11.42,11.42,0,0,1-.88,1.56c-.41.63-1,1.44-1.79,2.44a13.22,13.22,0,0,1-1.88,2.08,24.57,24.57,0,0,1-2.6,2.79,4.19,4.19,0,0,1-2.08,1.24A3.19,3.19,0,0,1,353.43,431.23Z" transform="translate(-0.29)"/><path d="M370,429a3.73,3.73,0,0,1-1-2.54q0-1.56,1.95-8a23.74,23.74,0,0,1,1.43-4.36c.26-.73.41-1.17.46-1.3q1.17-3.9,3.18-9.55l.59-1.56q2.26-6.18,2.73-7.54l1-2.86c0-.35.24-.68.74-1a2.52,2.52,0,0,1,1.27-.49,2.66,2.66,0,0,1,2,1.37,5.3,5.3,0,0,1,1,2.86,3.1,3.1,0,0,1-.33,1.43,98.29,98.29,0,0,0-3.7,10.07q-1,2.86-1.95,5.43a35.51,35.51,0,0,1-1.56,3.67l-.72,1.43-.91,3.45a.73.73,0,0,1-.06.32.47.47,0,0,0-.07.2c0,.13,0,.19.07.19l1.1-1.1a41.27,41.27,0,0,1,4.49-3.84,13.51,13.51,0,0,0,2.21-1.69,1.67,1.67,0,0,1,.52-.58l.65-.52a7.5,7.5,0,0,1,4.48-1.5,3,3,0,0,1,1.69.72,6,6,0,0,1,1.66,2,5.69,5.69,0,0,1,.68,2.7v1a19,19,0,0,1-.62,4.26c-.41,1.76-.64,2.76-.68,3a5.25,5.25,0,0,0,1-.13,3.54,3.54,0,0,1,1.39.2,2.46,2.46,0,0,1,.75.52,1.3,1.3,0,0,0,.59.39.57.57,0,0,1,.13.39,3.16,3.16,0,0,1-1.63,2.6,6.49,6.49,0,0,1-3.12,1.23,3.56,3.56,0,0,1-2.92-1.36,5.1,5.1,0,0,1-1.11-3.32c0-.52,0-1,.07-1.56s.08-1,.13-1.36a14.67,14.67,0,0,0,.19-2.08,2.67,2.67,0,0,0-.16-1.14.58.58,0,0,0-.55-.29q-1.31,0-4.52,2.37a42.06,42.06,0,0,0-6.53,6.14q-2.08,3.06-4,3.06A3.65,3.65,0,0,1,370,429Z" transform="translate(-0.29)"/><path d="M403.58,432a9.14,9.14,0,0,1-1.3-1,11,11,0,0,1-2-2.83,4.21,4.21,0,0,1-.52-2.57,1.93,1.93,0,0,0,.16-.91c0-.3,0-.49,0-.58-.18-.17-.26-.29-.26-.36a.25.25,0,0,1,.13-.19.69.69,0,0,0,.19-.23c.26,0,.35-.24.26-.72a5.41,5.41,0,0,1,.46-2.27,15.78,15.78,0,0,1,1.49-3.25,31.23,31.23,0,0,1,2.11-2.93,17.94,17.94,0,0,1,2.51-2.66,14.31,14.31,0,0,1,5.85-3.38,10.22,10.22,0,0,1,2.53-.33,4,4,0,0,1,2.93,1,4.19,4.19,0,0,1,2.08,1.69,7.43,7.43,0,0,1,.84,2.93,9.24,9.24,0,0,1,.07,1.3q0,4.81-3.64,10a18.87,18.87,0,0,1-3,3.44,25.81,25.81,0,0,1-3.64,2.6,6.83,6.83,0,0,1-2.47,1,24.74,24.74,0,0,1-3.51.39A2.43,2.43,0,0,1,403.58,432Zm9.65-9.91c.37-.76.9-2.09,1.6-4a4.7,4.7,0,0,0,.39-2.34c0-1-.16-1.62-.46-1.75a1.24,1.24,0,0,0-.78-.26,4,4,0,0,0-1.88.91,23.54,23.54,0,0,0-3.81,4.06,12.67,12.67,0,0,0-2.11,4.84,3.83,3.83,0,0,0-.06.78c0,1.48.52,2.21,1.56,2.21s2.25-.73,3.77-2.21A7.39,7.39,0,0,0,413.23,422.1Z" transform="translate(-0.29)"/><path d="M439.82,430a2.15,2.15,0,0,1-.68-1.4,15.49,15.49,0,0,1,.22-2.34,22.6,22.6,0,0,1,.56-2.6,24.78,24.78,0,0,1,.42-2.63,6.63,6.63,0,0,1,.81-2c.17-.65.48-1.62.91-2.92q1.43-4.54,1.95-7c.35-.95.65-1.8.91-2.54l.72-2q-.13.39,1.62-4.42c.35-1,.59-1.84.72-2.41a15.91,15.91,0,0,1,1.62-4.42,9.31,9.31,0,0,0,.68-1.1,5.24,5.24,0,0,1,.43-.72c0-.17.27-.32.68-.45a4.16,4.16,0,0,1,1.27-.2,1.39,1.39,0,0,1,1,.26q.33-.12,1.14,1.08a3.19,3.19,0,0,1,.75,1.72,2.9,2.9,0,0,1-.46,1.56,3.51,3.51,0,0,0-.58.94c-.22.46-.42.84-.59,1.14s-.23.81-.42,1.53-.38,1.31-.55,1.78l-.62,1.47c-.2.45-.36.85-.49,1.2-.17.56-.48,1.41-.91,2.53a28.17,28.17,0,0,0-1.23,3.45c-.09.26-.24.8-.46,1.62a23.31,23.31,0,0,1-1.75,4.75,6.1,6.1,0,0,0-.75,2.27c-.15,1-.25,1.54-.29,1.76a20.18,20.18,0,0,0-1,3.44q-.13.58-.45,2.28a16.46,16.46,0,0,1-.78,3,4.38,4.38,0,0,1-.75,1.88,1.72,1.72,0,0,1-1.4.91,1.58,1.58,0,0,1-.71-.19A5.49,5.49,0,0,1,439.82,430Z" transform="translate(-0.29)"/><path d="M456.55,432.27a2.72,2.72,0,0,1-1.36-.29,5.64,5.64,0,0,1-1.23-1,6.44,6.44,0,0,1-2.61-2.4,4.39,4.39,0,0,1-1-2.67,26.69,26.69,0,0,1,1.75-6.79,26.2,26.2,0,0,1,3.74-6.63,13.41,13.41,0,0,1,4.91-4.13,6,6,0,0,1,2.14-.45,2.68,2.68,0,0,1,2.67,1.3,3.54,3.54,0,0,1,.45,1.36,1,1,0,0,1-.91,1,.79.79,0,0,0-.45.2.53.53,0,0,0-.26.39,1.39,1.39,0,0,0,.58.06,14,14,0,0,0,2.73-.32,5.17,5.17,0,0,0,2.08-.72,1.53,1.53,0,0,1,.65-.19l.92.13c.73.22,1.1.48,1.1.78a2,2,0,0,0,.23.84c.15.35.29.52.42.52s.33.16.33.46a2,2,0,0,1-.43,1,5.23,5.23,0,0,1-1.2,1.2l-.94.58a1.79,1.79,0,0,0-.72.65,1.22,1.22,0,0,0,0,.72,3,3,0,0,1,.25,1.3,9.31,9.31,0,0,1-2.14,5.17,24.24,24.24,0,0,1-5.23,5.23,12.55,12.55,0,0,1-5.69,2.6A4.88,4.88,0,0,1,456.55,432.27Zm3-6.3a4.58,4.58,0,0,1,1.37-1q.19,0,.36-.36c.11-.24.3-.6.58-1.1a17.14,17.14,0,0,1,1.4-2,13.22,13.22,0,0,0,1.46-1.88,2.8,2.8,0,0,0,.42-1.43,5.13,5.13,0,0,0-.13-.91q-.06-.19-.42-.36l-.68-.29a1.42,1.42,0,0,0-.65.16,1.23,1.23,0,0,1-.46.16,1.14,1.14,0,0,1-.71-.32l-1-1.3-1.11,1.1a11.86,11.86,0,0,0-2.5,4,17,17,0,0,0-1.2,4.62,1.62,1.62,0,0,0,.29,1.27,1.72,1.72,0,0,0,1.07.42A6.84,6.84,0,0,0,459.54,426Z" transform="translate(-0.29)"/><path d="M479.53,431a9,9,0,0,1-2.18-1.5,10.3,10.3,0,0,1-1.17-4,38.77,38.77,0,0,1-.45-5.69,39.49,39.49,0,0,1,.55-5c.33-2,.6-3.48.81-4.52a6.13,6.13,0,0,1,1.66-1.23,4,4,0,0,1,1.79-.52,1,1,0,0,1,1,.45,1.69,1.69,0,0,1,.88,1,4.42,4.42,0,0,1,.29,1.66,5,5,0,0,1-.39,2,4.29,4.29,0,0,1-.16,1c-.11.43-.18.74-.22.91a4.07,4.07,0,0,0-.59,1.62,4,4,0,0,0,.1.91,5.1,5.1,0,0,1,.09,1,1.78,1.78,0,0,1-.32,1.17v-.07a8.78,8.78,0,0,0-.26,2.08,2.91,2.91,0,0,0,.39,1.63c.09.52.28.78.59.78a2.57,2.57,0,0,0,1.23-.65,21.9,21.9,0,0,0,3.06-3.77c1-1.52,1.4-2.45,1.23-2.8a.39.39,0,0,1-.06-.26c0-.26.18-.5.55-.74a5.05,5.05,0,0,0,.75-.56,3.39,3.39,0,0,0,.38-.84,7,7,0,0,1,.33-.85,2.2,2.2,0,0,0,.52-.91l-.07-.19a1.16,1.16,0,0,1,.46-.75,2,2,0,0,0,.52-.62,2.36,2.36,0,0,1,.88-1.49,2.41,2.41,0,0,1,1.52-.52,2.5,2.5,0,0,1,1.63.58,2,2,0,0,1,.71,1.63,12.52,12.52,0,0,1-1.13,3.87,26.45,26.45,0,0,1-2.57,4.84l-.85,1.49a30.6,30.6,0,0,1-2.4,3.38l-1,1a14,14,0,0,1-1.07,1q-3.51,4-5,4A3.46,3.46,0,0,1,479.53,431Z" transform="translate(-0.29)"/><path d="M497.47,429.51a9.43,9.43,0,0,1-1-4.65c0-.43.05-1.21.13-2.34a8.69,8.69,0,0,0,.07-1.23,4.13,4.13,0,0,0-.26-1.66,3.72,3.72,0,0,0-.91-1.14c-.13-.13-.43-.41-.91-.84s-.69-.76-.65-1v-.19a2.56,2.56,0,0,1,.23-1,1.57,1.57,0,0,1,.42-.68,5.27,5.27,0,0,0,.78-.39,1.14,1.14,0,0,1,.91-.2,1.91,1.91,0,0,1,.81.33c.37.22.55.41.55.58.26.52.94-.32,2-2.53a13.51,13.51,0,0,1,2.47-2.7,17.55,17.55,0,0,1,2.86-2.05,14.92,14.92,0,0,1,2-.55,12,12,0,0,1,2.5-.36,5,5,0,0,1,2.44.85,10.44,10.44,0,0,1,2.3,1.82c.91.65,1.37,1.88,1.37,3.7a6.8,6.8,0,0,1-.52,2.8c-.17.65-1,1.64-2.57,3a15.23,15.23,0,0,1-3.74,2.56,14.12,14.12,0,0,1-3.18.33,6,6,0,0,1-2.41-.33.49.49,0,0,0-.74.23A6.43,6.43,0,0,0,502,424l-.07.65a2.94,2.94,0,0,0,.33,1.36,4.27,4.27,0,0,0,.84,1.11,1.78,1.78,0,0,0,1.17.32l.59-.06a2.9,2.9,0,0,0,1.53-.72,22.11,22.11,0,0,0,1.91-1.75l1.37-1.3c.22-.43.8-.65,1.75-.65a7.44,7.44,0,0,1,1.5.19,1.61,1.61,0,0,1,.65,1.3,6.8,6.8,0,0,1-1,3,10.78,10.78,0,0,1-2,2.21,17.62,17.62,0,0,1-2.64,2.15,7.89,7.89,0,0,1-3.9,1,9.58,9.58,0,0,1-3.38-.65A6,6,0,0,1,497.47,429.51Zm10.4-12.93a8.42,8.42,0,0,0,2.05-2.18c.35-1,.41-1.67.19-1.89a1.24,1.24,0,0,0-.91-.39,2.73,2.73,0,0,0-1.56.72,5.54,5.54,0,0,0-1.78,1.2,17.44,17.44,0,0,0-1.92,1.95c-.52.63-.67,1-.46,1.14-.08.13.13.23.65.29a10,10,0,0,0,1.3.1A8.75,8.75,0,0,0,507.87,416.58Z" transform="translate(-0.29)"/><path d="M540.34,433.12a7.07,7.07,0,0,1-4.71-1.72,5.47,5.47,0,0,1-2-4.39l-.07-1a22.56,22.56,0,0,1,1.37-7.09,21.55,21.55,0,0,1,3.38-6.56q1.62-1.89,2.79-3.06a6.8,6.8,0,0,1,2.15-1.56,13.89,13.89,0,0,1,2.14-.58,4.72,4.72,0,0,1,4.39.65c.76.39,1.14.82,1.14,1.3l.32.32c.31,0,.66.48,1.08,1.43a6.67,6.67,0,0,1,.61,2.6,2.2,2.2,0,0,1-.19,1,7.33,7.33,0,0,1-1,2.4c-.5.78-.92,1.17-1.27,1.17s-.71.13-.71.39-.26.33-.78.33a3.71,3.71,0,0,1-1.37-.29,1.3,1.3,0,0,1-.84-.75,22.74,22.74,0,0,1,.52-2.6,8.5,8.5,0,0,0,.19-1.63q0-1.17-.78-1.17a4.81,4.81,0,0,0-1,.26,9,9,0,0,0-2.7,2.12,11.22,11.22,0,0,0-1.79,3.28c-.52,1.39-1.12,3.4-1.82,6a5.93,5.93,0,0,0-.19,1.43,3.47,3.47,0,0,0,.19,1.27c.13.33.26.51.39.55a3.5,3.5,0,0,0,1.17.13,5,5,0,0,0,2.6-.58,21.41,21.41,0,0,0,2.28-1.46l1.36-1a6,6,0,0,0,.52-.75,2,2,0,0,1,.85-.81,1.58,1.58,0,0,1,1-.72,5.82,5.82,0,0,1,1.17-.13h.78a3.67,3.67,0,0,1,1.63,1.17c.52.61.6,1,.26,1.17a.27.27,0,0,0-.26.13.47.47,0,0,0-.07.2c.09.22-.26.79-1,1.72a25.09,25.09,0,0,1-2.6,2.67q-1.43,1.26-2,1.26a1.52,1.52,0,0,0-.45.07.3.3,0,0,0-.2.32c0,.18-.66.58-2,1.21a15.47,15.47,0,0,1-3.22,1.2A7.55,7.55,0,0,1,540.34,433.12Z" transform="translate(-0.29)"/><path d="M575.76,432.34a3.69,3.69,0,0,1-3-1.5,6.92,6.92,0,0,1-1.17-4.35,19.79,19.79,0,0,1,1.1-6.18c.13-.3.31-.67.52-1.1s.26-.65.13-.65-.6.28-1.17.84a33.21,33.21,0,0,0-5.29,6q-2.12,3.09-2.12,4.78a1.25,1.25,0,0,1-.55,1.1,2.15,2.15,0,0,1-1.27.39,1.85,1.85,0,0,1-.84-.19,6.57,6.57,0,0,1-2.34-2.37,6.09,6.09,0,0,1-.72-3.74,58,58,0,0,1,1-7.9q.67-3.41,2.63-9.72c0-.13.45-1.23,1.23-3.31,1.35-3.81,2.1-5.89,2.28-6.24a10.21,10.21,0,0,0,1.33-2.83,13.15,13.15,0,0,0,.88-2.89,2,2,0,0,1,.29-1c.2-.32.31-.53.36-.62.47-1.08.89-1.62,1.23-1.62a4.41,4.41,0,0,1,1.86.75c.84.5,1.33,1,1.46,1.39a4.52,4.52,0,0,1,.52,1.95,6.69,6.69,0,0,1-.52,2.31,37.76,37.76,0,0,1-1.76,3.67,68.62,68.62,0,0,0-3.51,8.65q-.78,2.09-1.88,5.91a28.68,28.68,0,0,0-1.11,4.55.4.4,0,0,0,.46.46c.34,0,.71-.26,1.1-.78a3.68,3.68,0,0,1,.85-1,11.25,11.25,0,0,0,1-1,38.28,38.28,0,0,1,3.12-3.38c1.17-1.12,2.06-1.69,2.66-1.69q2.34,0,3.51,2.93a1.77,1.77,0,0,1,.39.52,2,2,0,0,0,.26.39,2.54,2.54,0,0,1,.33,1.62,17.42,17.42,0,0,1-1,5.33,19.74,19.74,0,0,0-.72,3.9c0,.57.15.85.46.85.13-.09.39-.24.78-.46s.84-.47,1.36-.78a5,5,0,0,1,2.28-.84,1.19,1.19,0,0,1,1.3,1.23A3.7,3.7,0,0,1,583,427a5.16,5.16,0,0,0-.43,1v.32c0,.18-.58.74-1.75,1.69a8.28,8.28,0,0,1-2.54,1.63A6.18,6.18,0,0,1,575.76,432.34Z" transform="translate(-0.29)"/><path d="M589.48,430.65a7.61,7.61,0,0,1-2.28-5.92,31.4,31.4,0,0,1,.2-3.31,15.19,15.19,0,0,1,1.27-4.29,23.37,23.37,0,0,1,3.12-5.33,12.51,12.51,0,0,1,4.64-3.84,13.07,13.07,0,0,1,2.08-.81,7.67,7.67,0,0,1,2-.23,8.49,8.49,0,0,1,4.33,1,6.09,6.09,0,0,1,2.33,2.21,4.56,4.56,0,0,1,.69,2.14v.52a9.12,9.12,0,0,1-.91,2.86,11.7,11.7,0,0,1-2.89,3.9,8,8,0,0,1-5.11,2,15.78,15.78,0,0,1-3-.29A12.79,12.79,0,0,0,594,421a1.17,1.17,0,0,0-1.24.72,7.91,7.91,0,0,0-.26,2.4,3.85,3.85,0,0,0,1,2.54,3.46,3.46,0,0,0,2.37.71,4.68,4.68,0,0,0,1.82-.45,15.4,15.4,0,0,0,2.47-1.63,10,10,0,0,1,1.24-.91,2.21,2.21,0,0,1,1.1-.26,2.15,2.15,0,0,1,1.37.78,2.51,2.51,0,0,1,.84,1.5,6,6,0,0,1-1.43,2.34,12.7,12.7,0,0,1-3.38,2.79,9.23,9.23,0,0,1-10.46-.84Zm9.94-13.85a9,9,0,0,0,2-1.65,4.75,4.75,0,0,0,1.39-1.86,1.29,1.29,0,0,0-.55-1.07,3.25,3.25,0,0,0-1.53-.55H600a4.54,4.54,0,0,0-2.44,1.4,15.2,15.2,0,0,0-2.76,3.21c0,.22.37.41,1,.56a8.15,8.15,0,0,0,2,.22A3.64,3.64,0,0,0,599.42,416.8Z" transform="translate(-0.29)"/><path d="M608.33,425.45a19,19,0,0,1,1.53-6.92,29.54,29.54,0,0,1,3.83-7,12.83,12.83,0,0,1,4.58-4.13,6.12,6.12,0,0,1,2.86-.65,10.06,10.06,0,0,1,5.11,1.27q2.18,1.28,2.17,4.78a9.07,9.07,0,0,1-1.36,4.42,14.19,14.19,0,0,1-3.41,4.06,6.41,6.41,0,0,1-4,1.66,7,7,0,0,1-4.94-1.89,9.47,9.47,0,0,0-1.11,4.23,6.34,6.34,0,0,0,.39,2.5c.26.59.87.88,1.82.88a5.31,5.31,0,0,0,2.21-.39,8.51,8.51,0,0,0,1.56-.91q.72-.52,1.11-.78l.26-.13h-.07c.78-.43,1.36-.77,1.73-1a4.28,4.28,0,0,1,.94-.49,3.16,3.16,0,0,1,1.82.59,1.71,1.71,0,0,1,.84,1.43,4.38,4.38,0,0,1-1.17,2.11,7,7,0,0,1-2.4,2.05l-.78.39h.06a1.57,1.57,0,0,1-1.17.78h-.52c-.17.35-.74.69-1.72,1a8.17,8.17,0,0,1-2.76.52Q608.33,433.9,608.33,425.45Zm13.81-8.78a5.11,5.11,0,0,0,1.2-3.12,2.53,2.53,0,0,0-.35-1.3,1.08,1.08,0,0,0-1-.58,4.28,4.28,0,0,0-2.47,1,9.74,9.74,0,0,0-2.4,2.73l-.85,1.36a1.22,1.22,0,0,1,.39-.13.85.85,0,0,1,.78.46,4,4,0,0,0,.59.78,1.39,1.39,0,0,0,1,.32A3.67,3.67,0,0,0,622.14,416.67Z" transform="translate(-0.29)"/><path d="M632.25,431a4.18,4.18,0,0,1-.46-2,3,3,0,0,1,.26-1.3.81.81,0,0,1,.72-.52,1,1,0,0,1,.65.33,4.55,4.55,0,0,0,2.4.52c.44,0,1.39,0,2.86-.13a2.78,2.78,0,0,0,1.53-.49,1.17,1.17,0,0,0,.55-.94.87.87,0,0,0-.39-.78h.07a15.16,15.16,0,0,1-5.07-2.24c-1.56-1.07-2.43-2.07-2.6-3a8.07,8.07,0,0,1-.2-1.69,8.87,8.87,0,0,1,.75-3.51,12.13,12.13,0,0,1,2-3.18c.22-.13.71-.47,1.47-1a6.1,6.1,0,0,1,1.65-.94v.06a10.86,10.86,0,0,1,2.64-2,22.74,22.74,0,0,1,3.8-1.6l1-.13,1.36-.13a1.19,1.19,0,0,0,.36.17,5.61,5.61,0,0,0,.62.16,1.72,1.72,0,0,0,.78.19,4.4,4.4,0,0,1,2.56,1.86,4.3,4.3,0,0,1,1.08,3,6.93,6.93,0,0,1-1.14,3,3.32,3.32,0,0,1-1.92,1.63c.09,0,0-.15-.35-.33l-.62-.32-.26.13a1,1,0,0,0,0-.23,1.51,1.51,0,0,0-.16-.42,4.13,4.13,0,0,1-.39-2.15l.13-.65a.31.31,0,0,0-.22-.29,1.74,1.74,0,0,0-.62-.1,2.48,2.48,0,0,0-.65-.06,5.78,5.78,0,0,0-2,.39,7.08,7.08,0,0,0-1.92,1,21.09,21.09,0,0,0-2.44,1.85,6.32,6.32,0,0,0-1.14,1.92,3.17,3.17,0,0,0-.65,1.49c0,.44.34.87,1,1.3a21.78,21.78,0,0,0,3.41,1.63,4.32,4.32,0,0,1,1.95,1.46,9.11,9.11,0,0,1,.91,1.69l.46,1.14c.08.26.17.61.26,1s.11.67.06.71l.13.26v-.06a1.74,1.74,0,0,1,.2.78A3.68,3.68,0,0,1,645,431.1a9,9,0,0,1-4,1.82H641a24.33,24.33,0,0,1-3.7.26A5.85,5.85,0,0,1,632.25,431Z" transform="translate(-0.29)"/><path d="M654.83,429.51a9.43,9.43,0,0,1-1-4.65c0-.43,0-1.21.13-2.34a10.74,10.74,0,0,0,.06-1.23,4,4,0,0,0-.26-1.66,3.58,3.58,0,0,0-.91-1.14c-.13-.13-.43-.41-.91-.84s-.69-.76-.65-1v-.19a2.75,2.75,0,0,1,.23-1,1.57,1.57,0,0,1,.42-.68,5.27,5.27,0,0,0,.78-.39,1.15,1.15,0,0,1,.91-.2,1.89,1.89,0,0,1,.82.33c.36.22.55.41.55.58q.39.78,2-2.53a13.51,13.51,0,0,1,2.47-2.7,18,18,0,0,1,2.86-2.05,15.86,15.86,0,0,1,2-.55,12.14,12.14,0,0,1,2.5-.36,4.93,4.93,0,0,1,2.44.85,10.75,10.75,0,0,1,2.31,1.82c.91.65,1.36,1.88,1.36,3.7a6.8,6.8,0,0,1-.52,2.8c-.17.65-1,1.64-2.56,3a15.41,15.41,0,0,1-3.74,2.56,14.28,14.28,0,0,1-3.19.33,5.91,5.91,0,0,1-2.4-.33.5.5,0,0,0-.75.23,6.69,6.69,0,0,0-.49,2.18l-.06.65a3.05,3.05,0,0,0,.32,1.36,4.5,4.5,0,0,0,.85,1.11,1.78,1.78,0,0,0,1.17.32l.58-.06a2.87,2.87,0,0,0,1.53-.72,23.6,23.6,0,0,0,1.92-1.75l1.36-1.3c.22-.43.8-.65,1.76-.65a7.27,7.27,0,0,1,1.49.19,1.59,1.59,0,0,1,.65,1.3,6.67,6.67,0,0,1-1,3,10.46,10.46,0,0,1-2,2.21,17.66,17.66,0,0,1-2.63,2.15,7.89,7.89,0,0,1-3.9,1,9.54,9.54,0,0,1-3.38-.65A6,6,0,0,1,654.83,429.51Zm10.41-12.93a8.59,8.59,0,0,0,2-2.18c.35-1,.41-1.67.2-1.89a1.26,1.26,0,0,0-.91-.39,2.68,2.68,0,0,0-1.56.72,5.56,5.56,0,0,0-1.79,1.2A17.44,17.44,0,0,0,661.3,416q-.78.94-.45,1.14c-.09.13.13.23.65.29a9.89,9.89,0,0,0,1.3.1A8.88,8.88,0,0,0,665.24,416.58Z" transform="translate(-0.29)"/><path class="cls-16" d="M388.32,16.11c1.36,0,2.25-.37,3.59.06.41.14,2.3.62,3.69,1.15a6.57,6.57,0,0,1,.95.42,2.12,2.12,0,0,1,.47.32c1.61,1.64,1.24,5.13.41,11.67-1.56,12.31-11.75,16.16.19,28.11.49.49,3.2,3.18,4.1,3.95.36.32,5.69,3.36,5.15,3.19a38.27,38.27,0,0,1,0,5.77c0,.16-.37.28-.88.39.16-1.27.18-3.3.26-5.93,0-.15,0-.29,0-.43-1-.38-2-.88-2.94-1.34a32.09,32.09,0,0,1,.18,7.31c0,.53-4,.7-4.74.87s-1.27.65-1.15,1h11.07c.83,0,.79-2.73.93-7.27a11.2,11.2,0,0,0,4.47-1c3.12-1.33,6.77-4.12,11.21-9,4.6-5.05,3.14-4-.62-3.74a13.5,13.5,0,0,1-11.58-4.45c-6.45-7-11-3.3-10.67-17.22.12-5.3.35-13.16-3-17.12a5.63,5.63,0,0,0-5.25-2c-.18-.23-.66-.27-1.35-.15-1.17.2-.74,1.24-1.47,2.11-.52.62-2.48,1.6-3.36,2.36S387.88,16.12,388.32,16.11Zm9.83,27c.14-.28.57,0,.43.25A7,7,0,0,0,398,48a8.15,8.15,0,0,0,2.12,3.85,13.53,13.53,0,0,0,8.44,4.07,9.29,9.29,0,0,0,4.88-.76,48.71,48.71,0,0,1-4-2.86A24.25,24.25,0,0,1,406,47.73c-.17-.27.26-.51.43-.25a22.89,22.89,0,0,0,3.45,4.5c1.28,1.18,2.89,1.93,4.22,3.05.21.19-.32.47-.37.5-2.95,1.46-6.32,1.19-9.37.25a14,14,0,0,1-3.83-1.86c-2.31-1.69-4.24-5.32-3.52-8.25a7,7,0,0,1,1.1-2.36h0A1,1,0,0,0,398.15,43.15Z" transform="translate(-0.29)"/></svg>