<?xml version="1.0" encoding="utf-8"?>
<!-- Generator: Adobe Illustrator 24.1.2, SVG Export Plug-In . SVG Version: 6.00 Build 0)  -->
<svg version="1.1" id="Layer_1" xmlns="http://www.w3.org/2000/svg" xmlns:xlink="http://www.w3.org/1999/xlink" x="0px" y="0px"
	 viewBox="0 0 121.21 122.86" style="enable-background:new 0 0 121.21 122.86;" xml:space="preserve">
<style type="text/css">
	.st0{fill:#89C7FE;}
	.st1{fill:#FEFEFE;}
	.st2{fill:#8FCAFE;}
</style>
<g>
	<path class="st0" d="M104.21,122.85c-0.64,0-1.28,0-1.92,0c-0.41-0.22-0.86-0.11-1.29-0.11c-26.99-0.01-53.99-0.01-80.98,0
		c-0.43,0-0.88-0.11-1.29,0.11c-0.56,0-1.12,0-1.68,0c-1.99-0.35-4.01-0.52-5.87-1.43c-3.98-1.95-7.1-4.78-9.42-8.55
		c-1.92-3.13-2.55-6.55-2.55-10.17c0.01-27.53,0.04-55.06-0.02-82.59C-0.82,14.55,1.18,9.9,4.99,6.03C7.74,3.25,11,1.16,14.95,0.46
		c1.48-0.26,3-0.34,4.52-0.34C47,0.13,74.53,0.16,102.06,0.09c5.57-0.01,10.19,1.98,14.07,5.78c2.3,2.24,4.05,4.91,5.11,7.99
		c0.46,1.34,0.28,2.77,0.69,4.1c0,29.13,0,58.27,0,87.4c-0.15,0.16-0.16,0.37-0.18,0.56c-0.7,6.45-4.4,10.9-9.61,14.32
		C109.74,121.82,107.07,122.62,104.21,122.85z"/>
	<path class="st1" d="M121.93,17.96c-0.39-0.31-0.37-0.78-0.45-1.19c-1.7-8.39-8.67-15.01-17.11-16.28
		c-1.15-0.17-2.29-0.25-3.45-0.25c-26.85,0.01-53.7,0-80.54,0.01C8.55,0.25-0.65,9.44-0.65,21.26c-0.01,26.89-0.01,53.78,0,80.67
		c0,10.02,6.83,18.4,16.64,20.48c0.38,0.08,0.81,0.07,1.07,0.44c-5.98,0-11.97,0-17.96,0c0-40.69,0-81.38-0.03-122.07
		C-0.93-0.1-0.55,0,0,0c40.37,0,80.74,0.01,121.1-0.02c0.74,0,0.85,0.17,0.85,0.87C121.92,6.55,121.93,12.26,121.93,17.96z"/>
	<path class="st1" d="M104.21,122.85c0.26-0.37,0.7-0.35,1.07-0.43c8.68-2.08,14.08-7.45,16.2-16.12c0.08-0.34,0.09-0.72,0.45-0.93
		c0,5.59-0.01,11.17,0.02,16.76c0,0.6-0.14,0.74-0.73,0.73C115.55,122.84,109.88,122.85,104.21,122.85z"/>
	<path class="st2" d="M18.74,122.85c0.37-0.34,0.83-0.24,1.26-0.24c27.02,0,54.03,0,81.05,0c0.43,0,0.89-0.1,1.26,0.24
		C74.44,122.85,46.59,122.85,18.74,122.85z"/>
	<path d="M50.33,103.37c-8.1-0.28-16.19,0.41-24.29,0.43c-2.08,0.01-4.05-0.34-5.8-1.54c-1.99-1.37-2.83-3.26-2.57-5.67
		c0.15-1.38,0.77-2.46,2.01-3.05c3.36-1.6,4.79-4.5,5.51-7.93c0.62-2.9,0.78-5.85,0.89-8.8c0.41-10.6,0.82-21.21,1.22-31.81
		c0.1-2.71,0.16-5.42-0.41-8.11c-0.63-3-2.22-5.17-5.2-6.17c-2.11-0.7-3.75-1.77-3.84-4.29c-0.09-2.53,1.01-4.37,3.12-5.66
		c1.79-1.09,3.75-1.51,5.83-1.49c6.02,0.06,12.05,0.26,18.06,0.63c6.23,0.38,12.44,0.03,18.65-0.4c6.19-0.43,12.36-0.4,18.41,1.29
		c1.58,0.44,3.1,1.02,4.58,1.72c13.69,6.54,11.84,23.82,3.94,30.55c-0.61,0.52-1.23,1.02-1.76,1.61c-1.28,1.43-1.01,3.05,0.65,3.99
		c0.59,0.33,1.23,0.57,1.83,0.88c6.58,3.33,11.55,8.15,12.29,15.8c0.91,9.5-2.7,17.26-10.54,22.84c-4.46,3.17-9.59,4.64-14.97,5.24
		c-6.65,0.75-13.31,0.1-19.96-0.07C55.43,103.31,52.88,103.37,50.33,103.37z"/>
	<path class="st0" d="M55.57,76.48c0-1.8-0.04-3.59,0.01-5.39c0.07-2.87,1.45-4.2,4.33-4.27c5.22-0.12,8.63,2.33,9.94,7.35
		c0.96,3.68,1.16,7.42,0.1,11.12c-1.32,4.61-6.27,7.16-10.86,5.69c-1.41-0.45-2.05-1.58-2.48-2.87c-0.69-2.1-0.86-4.3-0.95-6.49
		c-0.07-1.71-0.01-3.43-0.01-5.14C55.62,76.48,55.6,76.48,55.57,76.48z"/>
	<path class="st0" d="M55.57,43.55c0-2.59-0.05-5.18,0.01-7.77c0.08-3.2,1.56-4.46,4.75-4.11c2.63,0.28,4.61,1.64,5.71,4
		c2.3,4.94,2.38,10.06,0.48,15.11c-1.24,3.3-5.44,5.09-8.88,4.17c-0.94-0.25-1.52-0.81-1.8-1.73c-0.21-0.7-0.26-1.41-0.26-2.13
		C55.58,48.57,55.58,46.06,55.57,43.55C55.58,43.55,55.57,43.55,55.57,43.55z"/>
</g>
</svg>
